NimbusRomNo9L-ReguItal.ufo
<glyph name="two" format="1">
  <advance width="500"/>
  <unicode hex="0032"/>
  <outline>
    <contour>
      <point x="400" y="139" type="curve"/>
      <point x="417" y="132" type="line"/>
      <point x="367" y="0" type="line"/>
      <point x="12" y="0" type="line"/>
      <point x="12" y="17" type="line"/>
      <point x="222" y="241" type="line" smooth="yes"/>
      <point x="288" y="311"/>
      <point x="333" y="374"/>
      <point x="357" y="428" type="curve" smooth="yes"/>
      <point x="363" y="441"/>
      <point x="366" y="460"/>
      <point x="366" y="481" type="curve" smooth="yes"/>
      <point x="366" y="551"/>
      <point x="312" y="603"/>
      <point x="241" y="603" type="curve" smooth="yes"/>
      <point x="181" y="603"/>
      <point x="138" y="574"/>
      <point x="101" y="509" type="curve"/>
      <point x="80" y="516" type="line"/>
      <point x="109" y="588"/>
      <point x="136" y="622"/>
      <point x="187" y="650" type="curve" smooth="yes"/>
      <point x="217" y="666"/>
      <point x="255" y="676"/>
      <point x="290" y="676" type="curve" smooth="yes"/>
      <point x="381" y="676"/>
      <point x="452" y="602"/>
      <point x="452" y="506" type="curve" smooth="yes"/>
      <point x="452" y="440"/>
      <point x="420" y="390"/>
      <point x="303" y="273" type="curve" smooth="yes"/>
      <point x="111" y="81" type="line"/>
      <point x="111" y="76" type="line"/>
      <point x="301" y="76" type="line" smooth="yes"/>
      <point x="355" y="76"/>
      <point x="376" y="89"/>
    </contour>
  </outline>
</glyph>
<glyph name="six" format="1">
  <advance width="500"/>
  <unicode hex="0036"/>
  <outline>
    <contour>
      <point x="521" y="686" type="curve"/>
      <point x="521" y="670" type="line"/>
      <point x="403" y="656"/>
      <point x="269" y="555"/>
      <point x="199" y="428" type="curve"/>
      <point x="203" y="426" type="line"/>
      <point x="231" y="439"/>
      <point x="264" y="447"/>
      <point x="292" y="447" type="curve" smooth="yes"/>
      <point x="391" y="447"/>
      <point x="462" y="373"/>
      <point x="462" y="271" type="curve" smooth="yes"/>
      <point x="462" y="120"/>
      <point x="348" y="-7"/>
      <point x="213" y="-7" type="curve" smooth="yes"/>
      <point x="102" y="-7"/>
      <point x="30" y="76"/>
      <point x="30" y="204" type="curve" smooth="yes"/>
      <point x="30" y="347"/>
      <point x="107" y="489"/>
      <point x="234" y="583" type="curve" smooth="yes"/>
      <point x="320" y="646"/>
      <point x="387" y="671"/>
    </contour>
    <contour>
      <point x="259" y="411" type="curve" smooth="yes"/>
      <point x="212" y="411"/>
      <point x="180" y="391"/>
      <point x="152" y="345" type="curve" smooth="yes"/>
      <point x="126" y="301"/>
      <point x="106" y="217"/>
      <point x="106" y="150" type="curve" smooth="yes"/>
      <point x="106" y="68"/>
      <point x="142" y="19"/>
      <point x="203" y="19" type="curve" smooth="yes"/>
      <point x="246" y="19"/>
      <point x="281" y="40"/>
      <point x="312" y="85" type="curve" smooth="yes"/>
      <point x="349" y="137"/>
      <point x="373" y="216"/>
      <point x="373" y="284" type="curve" smooth="yes"/>
      <point x="373" y="361"/>
      <point x="329" y="411"/>
    </contour>
  </outline>
</glyph>
<glyph name="eight" format="1">
  <advance width="500"/>
  <unicode hex="0038"/>
  <outline>
    <contour>
      <point x="329" y="382" type="curve"/>
      <point x="414" y="294"/>
      <point x="444" y="240"/>
      <point x="444" y="173" type="curve" smooth="yes"/>
      <point x="444" y="70"/>
      <point x="352" y="-7"/>
      <point x="229" y="-7" type="curve" smooth="yes"/>
      <point x="146" y="-7"/>
      <point x="86" y="22"/>
      <point x="53" y="79" type="curve" smooth="yes"/>
      <point x="38" y="104"/>
      <point x="30" y="134"/>
      <point x="30" y="161" type="curve" smooth="yes"/>
      <point x="30" y="249"/>
      <point x="99" y="319"/>
      <point x="225" y="360" type="curve"/>
      <point x="159" y="433"/>
      <point x="138" y="472"/>
      <point x="138" y="526" type="curve" smooth="yes"/>
      <point x="138" y="615"/>
      <point x="211" y="676"/>
      <point x="318" y="676" type="curve" smooth="yes"/>
      <point x="420" y="676"/>
      <point x="493" y="617"/>
      <point x="493" y="535" type="curve" smooth="yes"/>
      <point x="493" y="464"/>
      <point x="447" y="421"/>
    </contour>
    <contour>
      <point x="247" y="344" type="curve"/>
      <point x="229" y="337"/>
      <point x="229" y="337"/>
      <point x="225" y="335" type="curve" smooth="yes"/>
      <point x="148" y="300"/>
      <point x="98" y="230"/>
      <point x="98" y="155" type="curve" smooth="yes"/>
      <point x="98" y="74"/>
      <point x="154" y="15"/>
      <point x="233" y="15" type="curve" smooth="yes"/>
      <point x="311" y="15"/>
      <point x="369" y="74"/>
      <point x="369" y="155" type="curve" smooth="yes"/>
      <point x="369" y="211"/>
      <point x="357" y="229"/>
    </contour>
    <contour>
      <point x="311" y="399" type="curve"/>
      <point x="344" y="415" type="line"/>
      <point x="400" y="444"/>
      <point x="425" y="482"/>
      <point x="425" y="535" type="curve" smooth="yes"/>
      <point x="425" y="605"/>
      <point x="382" y="653"/>
      <point x="318" y="653" type="curve" smooth="yes"/>
      <point x="255" y="653"/>
      <point x="216" y="610"/>
      <point x="216" y="540" type="curve" smooth="yes"/>
      <point x="216" y="498"/>
      <point x="233" y="472"/>
    </contour>
  </outline>
</glyph>
<glyph name="nine" format="1">
  <advance width="500"/>
  <unicode hex="0039"/>
  <outline>
    <contour>
      <point x="23" y="-17" type="curve"/>
      <point x="23" y="1" type="line"/>
      <point x="102" y="18"/>
      <point x="152" y="44"/>
      <point x="224" y="105" type="curve"/>
      <point x="286" y="162"/>
      <point x="336" y="227"/>
      <point x="352" y="272" type="curve"/>
      <point x="348" y="274" type="line"/>
      <point x="296" y="241"/>
      <point x="260" y="229"/>
      <point x="219" y="229" type="curve" smooth="yes"/>
      <point x="131" y="229"/>
      <point x="69" y="304"/>
      <point x="69" y="408" type="curve" smooth="yes"/>
      <point x="69" y="548"/>
      <point x="185" y="676"/>
      <point x="311" y="676" type="curve" smooth="yes"/>
      <point x="420" y="676"/>
      <point x="492" y="589"/>
      <point x="492" y="458" type="curve" smooth="yes"/>
      <point x="492" y="323"/>
      <point x="424" y="189"/>
      <point x="308" y="98" type="curve" smooth="yes"/>
      <point x="225" y="33"/>
      <point x="158" y="6"/>
    </contour>
    <contour>
      <point x="318" y="650" type="curve" smooth="yes"/>
      <point x="284" y="650"/>
      <point x="253" y="637"/>
      <point x="229" y="612" type="curve" smooth="yes"/>
      <point x="186" y="568"/>
      <point x="157" y="488"/>
      <point x="157" y="414" type="curve" smooth="yes"/>
      <point x="157" y="326"/>
      <point x="194" y="275"/>
      <point x="257" y="275" type="curve" smooth="yes"/>
      <point x="295" y="275"/>
      <point x="336" y="292"/>
      <point x="362" y="318" type="curve" smooth="yes"/>
      <point x="392" y="347"/>
      <point x="417" y="440"/>
      <point x="417" y="518" type="curve" smooth="yes"/>
      <point x="417" y="601"/>
      <point x="380" y="650"/>
    </contour>
  </outline>
</glyph>
<glyph name="colon" format="1">
  <advance width="333"/>
  <unicode hex="003A"/>
  <outline>
    <contour>
      <point x="106" y="100" type="curve" smooth="yes"/>
      <point x="136" y="100"/>
      <point x="161" y="74"/>
      <point x="161" y="43" type="curve" smooth="yes"/>
      <point x="161" y="13"/>
      <point x="136" y="-11"/>
      <point x="104" y="-11" type="curve" smooth="yes"/>
      <point x="75" y="-11"/>
      <point x="50" y="14"/>
      <point x="50" y="43" type="curve" smooth="yes"/>
      <point x="50" y="74"/>
      <point x="75" y="100"/>
    </contour>
    <contour>
      <point x="205" y="441" type="curve" smooth="yes"/>
      <point x="236" y="441"/>
      <point x="261" y="416"/>
      <point x="261" y="384" type="curve" smooth="yes"/>
      <point x="261" y="354"/>
      <point x="236" y="330"/>
      <point x="204" y="330" type="curve" smooth="yes"/>
      <point x="174" y="330"/>
      <point x="150" y="354"/>
      <point x="150" y="384" type="curve" smooth="yes"/>
      <point x="150" y="416"/>
      <point x="174" y="441"/>
    </contour>
  </outline>
</glyph>
<glyph name="G" format="1">
  <advance width="722"/>
  <unicode hex="0047"/>
  <outline>
    <contour>
      <point x="708" y="662" type="line"/>
      <point x="659" y="465" type="line"/>
      <point x="641" y="468" type="line"/>
      <point x="636" y="512"/>
      <point x="629" y="533"/>
      <point x="613" y="559" type="curve" smooth="yes"/>
      <point x="583" y="605"/>
      <point x="528" y="632"/>
      <point x="463" y="632" type="curve" smooth="yes"/>
      <point x="397" y="632"/>
      <point x="335" y="605"/>
      <point x="290" y="558" type="curve" smooth="yes"/>
      <point x="211" y="474"/>
      <point x="162" y="347"/>
      <point x="162" y="224" type="curve" smooth="yes"/>
      <point x="162" y="93"/>
      <point x="235" y="19"/>
      <point x="364" y="19" type="curve" smooth="yes"/>
      <point x="409" y="19"/>
      <point x="447" y="31"/>
      <point x="469" y="53" type="curve" smooth="yes"/>
      <point x="481" y="65"/>
      <point x="484" y="73"/>
      <point x="506" y="145" type="curve" smooth="yes"/>
      <point x="528" y="219"/>
      <point x="534" y="247"/>
      <point x="534" y="269" type="curve" smooth="yes"/>
      <point x="534" y="287"/>
      <point x="518" y="297"/>
      <point x="485" y="300" type="curve" smooth="yes"/>
      <point x="481" y="300"/>
      <point x="468" y="302"/>
      <point x="456" y="303" type="curve"/>
      <point x="456" y="319" type="line"/>
      <point x="722" y="319" type="line"/>
      <point x="722" y="303" type="line"/>
      <point x="657" y="299"/>
      <point x="641" y="287"/>
      <point x="625" y="231" type="curve"/>
      <point x="576" y="44" type="line"/>
      <point x="499" y="1"/>
      <point x="427" y="-18"/>
      <point x="339" y="-18" type="curve" smooth="yes"/>
      <point x="252" y="-18"/>
      <point x="179" y="9"/>
      <point x="128" y="60" type="curve" smooth="yes"/>
      <point x="81" y="108"/>
      <point x="52" y="178"/>
      <point x="52" y="246" type="curve" smooth="yes"/>
      <point x="52" y="466"/>
      <point x="244" y="666"/>
      <point x="455" y="666" type="curve" smooth="yes"/>
      <point x="496" y="666"/>
      <point x="539" y="658"/>
      <point x="589" y="642" type="curve" smooth="yes"/>
      <point x="611" y="635"/>
      <point x="623" y="632"/>
      <point x="633" y="632" type="curve" smooth="yes"/>
      <point x="659" y="632"/>
      <point x="676" y="642"/>
      <point x="693" y="666" type="curve"/>
    </contour>
  </outline>
</glyph>
<glyph name="K" format="1">
  <advance width="667"/>
  <unicode hex="004B"/>
  <outline>
    <contour>
      <point x="722" y="653" type="line"/>
      <point x="722" y="637" type="line"/>
      <point x="698" y="633"/>
      <point x="675" y="622"/>
      <point x="647" y="601" type="curve" smooth="yes"/>
      <point x="347" y="375" type="line"/>
      <point x="521" y="72" type="line" smooth="yes"/>
      <point x="549" y="25"/>
      <point x="555" y="22"/>
      <point x="618" y="16" type="curve"/>
      <point x="618" y="0" type="line"/>
      <point x="343" y="0" type="line"/>
      <point x="343" y="16" type="line"/>
      <point x="356" y="18"/>
      <point x="367" y="19"/>
      <point x="372" y="19" type="curve" smooth="yes"/>
      <point x="404" y="22"/>
      <point x="418" y="30"/>
      <point x="418" y="45" type="curve" smooth="yes"/>
      <point x="418" y="64"/>
      <point x="404" y="99"/>
      <point x="380" y="140" type="curve" smooth="yes"/>
      <point x="259" y="348" type="line"/>
      <point x="197" y="120" type="line"/>
      <point x="191" y="99" type="line" smooth="yes"/>
      <point x="185" y="79"/>
      <point x="183" y="70"/>
      <point x="183" y="60" type="curve" smooth="yes"/>
      <point x="183" y="29"/>
      <point x="192" y="23"/>
      <point x="255" y="16" type="curve"/>
      <point x="255" y="0" type="line"/>
      <point x="7" y="0" type="line"/>
      <point x="7" y="16" type="line"/>
      <point x="66" y="25"/>
      <point x="71" y="30"/>
      <point x="89" y="90" type="curve"/>
      <point x="212" y="532" type="line" smooth="yes"/>
      <point x="219" y="557"/>
      <point x="223" y="580"/>
      <point x="223" y="594" type="curve" smooth="yes"/>
      <point x="223" y="623"/>
      <point x="208" y="631"/>
      <point x="146" y="637" type="curve"/>
      <point x="146" y="653" type="line"/>
      <point x="419" y="653" type="line"/>
      <point x="419" y="637" type="line"/>
      <point x="360" y="633"/>
      <point x="333" y="613"/>
      <point x="318" y="563" type="curve"/>
      <point x="265" y="369" type="line"/>
      <point x="417" y="475" type="line" smooth="yes"/>
      <point x="506" y="537"/>
      <point x="561" y="591"/>
      <point x="561" y="615" type="curve" smooth="yes"/>
      <point x="561" y="626"/>
      <point x="551" y="632"/>
      <point x="527" y="634" type="curve" smooth="yes"/>
      <point x="523" y="634"/>
      <point x="512" y="636"/>
      <point x="500" y="637" type="curve"/>
      <point x="500" y="653" type="line"/>
    </contour>
  </outline>
</glyph>
<glyph name="P" format="1">
  <advance width="611"/>
  <unicode hex="0050"/>
  <outline>
    <contour>
      <point x="146" y="637" type="curve"/>
      <point x="146" y="653" type="line"/>
      <point x="394" y="653" type="line" smooth="yes"/>
      <point x="530" y="653"/>
      <point x="605" y="600"/>
      <point x="605" y="504" type="curve" smooth="yes"/>
      <point x="605" y="445"/>
      <point x="576" y="390"/>
      <point x="526" y="353" type="curve" smooth="yes"/>
      <point x="483" y="322"/>
      <point x="416" y="305"/>
      <point x="334" y="305" type="curve" smooth="yes"/>
      <point x="293" y="305"/>
      <point x="267" y="307"/>
      <point x="242" y="313" type="curve"/>
      <point x="189" y="120" type="line" smooth="yes"/>
      <point x="179" y="84"/>
      <point x="177" y="74"/>
      <point x="177" y="62" type="curve" smooth="yes"/>
      <point x="177" y="28"/>
      <point x="182" y="25"/>
      <point x="245" y="16" type="curve"/>
      <point x="245" y="0" type="line"/>
      <point x="0" y="0" type="line"/>
      <point x="0" y="16" type="line"/>
      <point x="57" y="24"/>
      <point x="64" y="30"/>
      <point x="82" y="90" type="curve"/>
      <point x="200" y="515" type="line" smooth="yes"/>
      <point x="213" y="560"/>
      <point x="217" y="581"/>
      <point x="217" y="595" type="curve" smooth="yes"/>
      <point x="217" y="621"/>
      <point x="203" y="630"/>
    </contour>
    <contour>
      <point x="322" y="595" type="curve" smooth="yes"/>
      <point x="251" y="347" type="line"/>
      <point x="278" y="343"/>
      <point x="286" y="342"/>
      <point x="303" y="342" type="curve" smooth="yes"/>
      <point x="365" y="342"/>
      <point x="404" y="350"/>
      <point x="435" y="367" type="curve"/>
      <point x="479" y="393"/>
      <point x="502" y="439"/>
      <point x="502" y="504" type="curve" smooth="yes"/>
      <point x="502" y="551"/>
      <point x="491" y="581"/>
      <point x="465" y="599" type="curve" smooth="yes"/>
      <point x="445" y="613"/>
      <point x="407" y="623"/>
      <point x="368" y="623" type="curve" smooth="yes"/>
      <point x="340" y="623"/>
      <point x="328" y="616"/>
    </contour>
  </outline>
</glyph>
<glyph name="k" format="1">
  <advance width="444"/>
  <unicode hex="006B"/>
  <outline>
    <contour>
      <point x="414" y="109" type="line"/>
      <point x="429" y="98" type="line"/>
      <point x="384" y="14"/>
      <point x="358" y="-11"/>
      <point x="318" y="-11" type="curve" smooth="yes"/>
      <point x="289" y="-11"/>
      <point x="271" y="8"/>
      <point x="239" y="71" type="curve" smooth="yes"/>
      <point x="221" y="107"/>
      <point x="195" y="168"/>
      <point x="179" y="212" type="curve"/>
      <point x="137" y="180" type="line"/>
      <point x="89" y="0" type="line"/>
      <point x="14" y="0" type="line"/>
      <point x="141" y="483" type="line"/>
      <point x="143" y="492" type="line" smooth="yes"/>
      <point x="145" y="500"/>
      <point x="148" y="511"/>
      <point x="152" y="525" type="curve" smooth="yes"/>
      <point x="165" y="571"/>
      <point x="172" y="598"/>
      <point x="174" y="615" type="curve"/>
      <point x="173" y="634"/>
      <point x="154" y="641"/>
      <point x="106" y="640" type="curve"/>
      <point x="106" y="656" type="line"/>
      <point x="165" y="663"/>
      <point x="203" y="670"/>
      <point x="262" y="683" type="curve"/>
      <point x="267" y="678" type="line"/>
      <point x="147" y="221" type="line"/>
      <point x="164" y="233"/>
      <point x="176" y="243"/>
      <point x="190" y="254" type="curve" smooth="yes"/>
      <point x="283" y="325"/>
      <point x="333" y="374"/>
      <point x="333" y="394" type="curve" smooth="yes"/>
      <point x="333" y="405"/>
      <point x="319" y="412"/>
      <point x="294" y="412" type="curve" smooth="yes"/>
      <point x="278" y="412" type="line"/>
      <point x="278" y="428" type="line"/>
      <point x="461" y="428" type="line"/>
      <point x="461" y="412" type="line"/>
      <point x="414" y="409"/>
      <point x="383" y="389"/>
      <point x="236" y="258" type="curve"/>
      <point x="253" y="219"/>
      <point x="268" y="183"/>
      <point x="273" y="170" type="curve" smooth="yes"/>
      <point x="312" y="74"/>
      <point x="333" y="41"/>
      <point x="354" y="41" type="curve" smooth="yes"/>
      <point x="369" y="41"/>
      <point x="381" y="52"/>
      <point x="399" y="83" type="curve" smooth="yes"/>
    </contour>
  </outline>
</glyph>
<glyph name="p" format="1">
  <advance width="500"/>
  <unicode hex="0070"/>
  <outline>
    <contour>
      <point x="56" y="404" type="line"/>
      <point x="54" y="419" type="line"/>
      <point x="208" y="441" type="line"/>
      <point x="210" y="442" type="line"/>
      <point x="210" y="442"/>
      <point x="211" y="442"/>
      <point x="211" y="441" type="curve" smooth="yes"/>
      <point x="213" y="440" type="line"/>
      <point x="214" y="438"/>
      <point x="215" y="437"/>
      <point x="215" y="437" type="curve"/>
      <point x="212" y="428" type="line"/>
      <point x="183" y="328" type="line"/>
      <point x="241" y="409"/>
      <point x="289" y="441"/>
      <point x="354" y="441" type="curve" smooth="yes"/>
      <point x="425" y="441"/>
      <point x="469" y="394"/>
      <point x="469" y="316" type="curve" smooth="yes"/>
      <point x="469" y="157"/>
      <point x="315" y="-11"/>
      <point x="169" y="-11" type="curve" smooth="yes"/>
      <point x="146" y="-11"/>
      <point x="128" y="-7"/>
      <point x="103" y="6" type="curve"/>
      <point x="83" y="-68"/>
      <point x="66" y="-146"/>
      <point x="66" y="-160" type="curve" smooth="yes"/>
      <point x="66" y="-181"/>
      <point x="83" y="-190"/>
      <point x="130" y="-190" type="curve"/>
      <point x="130" y="-205" type="line"/>
      <point x="-75" y="-205" type="line"/>
      <point x="-75" y="-189" type="line"/>
      <point x="-32" y="-188"/>
      <point x="-19" y="-176"/>
      <point x="-8" y="-130" type="curve" smooth="yes"/>
      <point x="-1" y="-101"/>
      <point x="23" y="-6"/>
      <point x="50" y="94" type="curve" smooth="yes"/>
      <point x="85" y="226"/>
      <point x="121" y="368"/>
      <point x="121" y="377" type="curve" smooth="yes"/>
      <point x="121" y="392"/>
      <point x="95" y="411"/>
      <point x="82" y="405" type="curve" smooth="yes"/>
      <point x="81" y="404"/>
      <point x="79" y="404"/>
      <point x="79" y="404" type="curve"/>
    </contour>
    <contour>
      <point x="317" y="398" type="curve" smooth="yes"/>
      <point x="267" y="401"/>
      <point x="209" y="352"/>
      <point x="182" y="284" type="curve" smooth="yes"/>
      <point x="153" y="210"/>
      <point x="117" y="79"/>
      <point x="117" y="45" type="curve" smooth="yes"/>
      <point x="117" y="23"/>
      <point x="137" y="8"/>
      <point x="165" y="8" type="curve" smooth="yes"/>
      <point x="217" y="8"/>
      <point x="265" y="39"/>
      <point x="307" y="98" type="curve" smooth="yes"/>
      <point x="350" y="160"/>
      <point x="379" y="246"/>
      <point x="379" y="312" type="curve" smooth="yes"/>
      <point x="379" y="370"/>
      <point x="360" y="396"/>
    </contour>
  </outline>
</glyph>
<glyph name="threesuperior" format="1">
  <advance width="300"/>
  <unicode hex="00B3"/>
  <outline>
    <contour>
      <point x="149" y="608" type="curve"/>
      <point x="139" y="615" type="line"/>
      <point x="159" y="653"/>
      <point x="199" y="676"/>
      <point x="244" y="676" type="curve" smooth="yes"/>
      <point x="298" y="676"/>
      <point x="339" y="643"/>
      <point x="339" y="600" type="curve" smooth="yes"/>
      <point x="339" y="561"/>
      <point x="315" y="540"/>
      <point x="238" y="513" type="curve"/>
      <point x="242" y="511" type="line" smooth="yes"/>
      <point x="270" y="497"/>
      <point x="271" y="496"/>
      <point x="280" y="487" type="curve" smooth="yes"/>
      <point x="294" y="471"/>
      <point x="301" y="451"/>
      <point x="301" y="425" type="curve" smooth="yes"/>
      <point x="301" y="333"/>
      <point x="224" y="268"/>
      <point x="116" y="268" type="curve" smooth="yes"/>
      <point x="69" y="268"/>
      <point x="43" y="282"/>
      <point x="43" y="307" type="curve" smooth="yes"/>
      <point x="43" y="322"/>
      <point x="56" y="335"/>
      <point x="73" y="335" type="curve" smooth="yes"/>
      <point x="81" y="335"/>
      <point x="94" y="329"/>
      <point x="111" y="318" type="curve"/>
      <point x="130" y="304"/>
      <point x="143" y="299"/>
      <point x="154" y="299" type="curve" smooth="yes"/>
      <point x="202" y="299"/>
      <point x="238" y="339"/>
      <point x="238" y="392" type="curve" smooth="yes"/>
      <point x="238" y="440"/>
      <point x="213" y="475"/>
      <point x="171" y="485" type="curve"/>
      <point x="159" y="489"/>
      <point x="152" y="489"/>
      <point x="125" y="489" type="curve"/>
      <point x="125" y="498" type="line"/>
      <point x="225" y="516"/>
      <point x="272" y="547"/>
      <point x="272" y="592" type="curve" smooth="yes"/>
      <point x="272" y="622"/>
      <point x="250" y="644"/>
      <point x="222" y="644" type="curve" smooth="yes"/>
      <point x="196" y="644"/>
      <point x="178" y="635"/>
    </contour>
  </outline>
</glyph>
<glyph name="onesuperior" format="1">
  <advance width="300"/>
  <unicode hex="00B9"/>
  <outline>
    <contour>
      <point x="224" y="287" type="curve"/>
      <point x="224" y="271" type="line"/>
      <point x="43" y="271" type="line"/>
      <point x="43" y="287" type="line"/>
      <point x="90" y="292"/>
      <point x="103" y="297"/>
      <point x="108" y="312" type="curve" smooth="yes"/>
      <point x="198" y="597" type="line" smooth="yes"/>
      <point x="202" y="609"/>
      <point x="203" y="614"/>
      <point x="203" y="618" type="curve" smooth="yes"/>
      <point x="203" y="628"/>
      <point x="193" y="638"/>
      <point x="185" y="636" type="curve" smooth="yes"/>
      <point x="182" y="635" type="line"/>
      <point x="148" y="635" type="line"/>
      <point x="148" y="654" type="line"/>
      <point x="179" y="659"/>
      <point x="196" y="661"/>
      <point x="218" y="666" type="curve" smooth="yes"/>
      <point x="245" y="671"/>
      <point x="264" y="675"/>
      <point x="273" y="675" type="curve" smooth="yes"/>
      <point x="274" y="675"/>
      <point x="276" y="676"/>
      <point x="276" y="676" type="curve"/>
      <point x="279" y="676" type="line" smooth="yes"/>
      <point x="281" y="676"/>
      <point x="284" y="673"/>
      <point x="284" y="671" type="curve" smooth="yes"/>
      <point x="284" y="669"/>
      <point x="283" y="663"/>
      <point x="280" y="655" type="curve" smooth="yes"/>
      <point x="194" y="381" type="line" smooth="yes"/>
      <point x="182" y="343"/>
      <point x="175" y="316"/>
      <point x="175" y="307" type="curve" smooth="yes"/>
      <point x="175" y="292"/>
      <point x="186" y="288"/>
    </contour>
  </outline>
</glyph>
<glyph name="ordmasculine" format="1">
  <advance width="310"/>
  <unicode hex="00BA"/>
  <outline>
    <contour>
      <point x="265" y="676" type="curve" smooth="yes"/>
      <point x="322" y="676"/>
      <point x="362" y="641"/>
      <point x="362" y="592" type="curve" smooth="yes"/>
      <point x="362" y="500"/>
      <point x="262" y="406"/>
      <point x="164" y="406" type="curve" smooth="yes"/>
      <point x="105" y="406"/>
      <point x="67" y="439"/>
      <point x="67" y="489" type="curve" smooth="yes"/>
      <point x="67" y="584"/>
      <point x="164" y="676"/>
    </contour>
    <contour>
      <point x="258" y="654" type="curve" smooth="yes"/>
      <point x="204" y="658"/>
      <point x="140" y="561"/>
      <point x="140" y="476" type="curve" smooth="yes"/>
      <point x="140" y="448"/>
      <point x="155" y="430"/>
      <point x="178" y="430" type="curve" smooth="yes"/>
      <point x="195" y="430"/>
      <point x="214" y="439"/>
      <point x="227" y="452" type="curve" smooth="yes"/>
      <point x="263" y="490"/>
      <point x="289" y="555"/>
      <point x="289" y="607" type="curve" smooth="yes"/>
      <point x="289" y="637"/>
      <point x="279" y="653"/>
    </contour>
  </outline>
</glyph>
<glyph name="onequarter" format="1">
  <advance width="750"/>
  <unicode hex="00BC"/>
  <outline>
    <contour>
      <point x="712" y="147" type="line"/>
      <point x="703" y="104" type="line"/>
      <point x="645" y="104" type="line"/>
      <point x="615" y="0" type="line"/>
      <point x="552" y="0" type="line"/>
      <point x="584" y="105" type="line"/>
      <point x="416" y="105" type="line"/>
      <point x="429" y="147" type="line"/>
      <point x="700" y="406" type="line"/>
      <point x="736" y="406" type="line"/>
      <point x="657" y="147" type="line"/>
    </contour>
    <contour>
      <point x="653" y="333" type="line"/>
      <point x="464" y="147" type="line"/>
      <point x="593" y="147" type="line"/>
    </contour>
    <contour>
      <point x="649" y="676" type="line"/>
      <point x="194" y="-10" type="line"/>
      <point x="143" y="-10" type="line"/>
      <point x="598" y="676" type="line"/>
    </contour>
    <contour>
      <point x="214" y="287" type="curve"/>
      <point x="214" y="271" type="line"/>
      <point x="33" y="271" type="line"/>
      <point x="33" y="287" type="line"/>
      <point x="80" y="292"/>
      <point x="93" y="297"/>
      <point x="98" y="312" type="curve" smooth="yes"/>
      <point x="188" y="597" type="line" smooth="yes"/>
      <point x="192" y="609"/>
      <point x="193" y="614"/>
      <point x="193" y="618" type="curve" smooth="yes"/>
      <point x="193" y="628"/>
      <point x="184" y="637"/>
      <point x="175" y="636" type="curve" smooth="yes"/>
      <point x="168" y="635" type="line"/>
      <point x="138" y="635" type="line"/>
      <point x="138" y="654" type="line"/>
      <point x="208" y="666" type="line" smooth="yes"/>
      <point x="235" y="671"/>
      <point x="263" y="676"/>
      <point x="268" y="676" type="curve" smooth="yes"/>
      <point x="271" y="676"/>
      <point x="273" y="674"/>
      <point x="273" y="671" type="curve" smooth="yes"/>
      <point x="273" y="667"/>
      <point x="272" y="660"/>
      <point x="270" y="655" type="curve" smooth="yes"/>
      <point x="184" y="381" type="line" smooth="yes"/>
      <point x="172" y="343"/>
      <point x="165" y="316"/>
      <point x="165" y="307" type="curve" smooth="yes"/>
      <point x="165" y="292"/>
      <point x="176" y="288"/>
    </contour>
  </outline>
</glyph>
<glyph name="Atilde" format="1">
  <advance width="611"/>
  <unicode hex="00C3"/>
  <outline>
    <contour>
      <point x="564" y="16" type="curve"/>
      <point x="564" y="0" type="line"/>
      <point x="318" y="0" type="line"/>
      <point x="318" y="16" type="line"/>
      <point x="382" y="22"/>
      <point x="396" y="31"/>
      <point x="396" y="69" type="curve" smooth="yes"/>
      <point x="396" y="77"/>
      <point x="395" y="86"/>
      <point x="394" y="95" type="curve" smooth="yes"/>
      <point x="374" y="226" type="line"/>
      <point x="154" y="226" type="line"/>
      <point x="97" y="113" type="line" smooth="yes"/>
      <point x="80" y="79"/>
      <point x="77" y="70"/>
      <point x="77" y="51" type="curve" smooth="yes"/>
      <point x="77" y="26"/>
      <point x="85" y="21"/>
      <point x="136" y="16" type="curve"/>
      <point x="136" y="0" type="line"/>
      <point x="-51" y="0" type="line"/>
      <point x="-51" y="16" type="line"/>
      <point x="-11" y="24"/>
      <point x="-1" y="35"/>
      <point x="78" y="168" type="curve"/>
      <point x="368" y="668" type="line"/>
      <point x="394" y="668" type="line"/>
      <point x="488" y="102" type="line" smooth="yes"/>
      <point x="501" y="29"/>
      <point x="507" y="21"/>
    </contour>
    <contour>
      <point x="175" y="262" type="line"/>
      <point x="369" y="262" type="line"/>
      <point x="325" y="522" type="line"/>
    </contour>
    <contour>
      <point x="538" y="836" type="curve"/>
      <point x="566" y="836" type="line"/>
      <point x="552" y="769"/>
      <point x="519" y="732"/>
      <point x="471" y="732" type="curve" smooth="yes"/>
      <point x="459" y="732"/>
      <point x="440" y="737"/>
      <point x="414" y="747" type="curve" smooth="yes"/>
      <point x="360" y="769"/>
      <point x="336" y="776"/>
      <point x="319" y="776" type="curve" smooth="yes"/>
      <point x="294" y="776"/>
      <point x="278" y="761"/>
      <point x="268" y="729" type="curve"/>
      <point x="239" y="729" type="line"/>
      <point x="259" y="806"/>
      <point x="287" y="835"/>
      <point x="339" y="835" type="curve" smooth="yes"/>
      <point x="361" y="835"/>
      <point x="387" y="828"/>
      <point x="425" y="811" type="curve" smooth="yes"/>
      <point x="455" y="797"/>
      <point x="472" y="792"/>
      <point x="487" y="792" type="curve" smooth="yes"/>
      <point x="514" y="792"/>
      <point x="527" y="803"/>
    </contour>
  </outline>
</glyph>
<glyph name="Aring" format="1">
  <advance width="611"/>
  <unicode hex="00C5"/>
  <outline>
    <contour>
      <point x="564" y="16" type="curve"/>
      <point x="564" y="0" type="line"/>
      <point x="318" y="0" type="line"/>
      <point x="318" y="16" type="line"/>
      <point x="382" y="22"/>
      <point x="396" y="31"/>
      <point x="396" y="69" type="curve" smooth="yes"/>
      <point x="396" y="77"/>
      <point x="395" y="86"/>
      <point x="394" y="95" type="curve" smooth="yes"/>
      <point x="374" y="226" type="line"/>
      <point x="154" y="226" type="line"/>
      <point x="97" y="113" type="line" smooth="yes"/>
      <point x="80" y="79"/>
      <point x="77" y="70"/>
      <point x="77" y="51" type="curve" smooth="yes"/>
      <point x="77" y="26"/>
      <point x="85" y="21"/>
      <point x="136" y="16" type="curve"/>
      <point x="136" y="0" type="line"/>
      <point x="-51" y="0" type="line"/>
      <point x="-51" y="16" type="line"/>
      <point x="-11" y="24"/>
      <point x="-1" y="35"/>
      <point x="78" y="168" type="curve"/>
      <point x="368" y="668" type="line"/>
      <point x="394" y="668" type="line"/>
      <point x="488" y="102" type="line" smooth="yes"/>
      <point x="501" y="29"/>
      <point x="507" y="21"/>
    </contour>
    <contour>
      <point x="175" y="262" type="line"/>
      <point x="369" y="262" type="line"/>
      <point x="325" y="522" type="line"/>
    </contour>
    <contour>
      <point x="388" y="904" type="curve" smooth="yes"/>
      <point x="443" y="904"/>
      <point x="489" y="859"/>
      <point x="489" y="804" type="curve" smooth="yes"/>
      <point x="489" y="750"/>
      <point x="444" y="705"/>
      <point x="389" y="705" type="curve" smooth="yes"/>
      <point x="333" y="705"/>
      <point x="289" y="749"/>
      <point x="289" y="805" type="curve" smooth="yes"/>
      <point x="289" y="859"/>
      <point x="334" y="904"/>
    </contour>
    <contour>
      <point x="388" y="870" type="curve" smooth="yes"/>
      <point x="353" y="870"/>
      <point x="323" y="840"/>
      <point x="323" y="805" type="curve" smooth="yes"/>
      <point x="323" y="768"/>
      <point x="352" y="739"/>
      <point x="388" y="739" type="curve" smooth="yes"/>
      <point x="426" y="739"/>
      <point x="455" y="767"/>
      <point x="455" y="804" type="curve" smooth="yes"/>
      <point x="455" y="840"/>
      <point x="425" y="870"/>
    </contour>
  </outline>
</glyph>
<glyph name="Yacute" format="1">
  <advance width="556"/>
  <unicode hex="00DD"/>
  <outline>
    <contour>
      <point x="91" y="637" type="curve"/>
      <point x="91" y="653" type="line"/>
      <point x="330" y="653" type="line"/>
      <point x="330" y="637" type="line"/>
      <point x="270" y="631"/>
      <point x="258" y="625"/>
      <point x="258" y="601" type="curve" smooth="yes"/>
      <point x="258" y="586"/>
      <point x="269" y="543"/>
      <point x="294" y="457" type="curve" smooth="yes"/>
      <point x="310" y="404"/>
      <point x="313" y="391"/>
      <point x="325" y="347" type="curve"/>
      <point x="363" y="393" type="line"/>
      <point x="467" y="514"/>
      <point x="513" y="579"/>
      <point x="513" y="606" type="curve" smooth="yes"/>
      <point x="513" y="623"/>
      <point x="500" y="631"/>
      <point x="471" y="634" type="curve" smooth="yes"/>
      <point x="467" y="635"/>
      <point x="456" y="636"/>
      <point x="444" y="637" type="curve"/>
      <point x="444" y="653" type="line"/>
      <point x="633" y="653" type="line"/>
      <point x="633" y="637" type="line"/>
      <point x="603" y="623"/>
      <point x="595" y="616"/>
      <point x="563" y="576" type="curve" smooth="yes"/>
      <point x="344" y="306" type="line"/>
      <point x="315" y="205" type="line" smooth="yes"/>
      <point x="314" y="201"/>
      <point x="312" y="194"/>
      <point x="309" y="185" type="curve" smooth="yes"/>
      <point x="285" y="107"/>
      <point x="278" y="77"/>
      <point x="278" y="56" type="curve" smooth="yes"/>
      <point x="278" y="31"/>
      <point x="292" y="21"/>
      <point x="331" y="19" type="curve" smooth="yes"/>
      <point x="337" y="18"/>
      <point x="351" y="17"/>
      <point x="367" y="16" type="curve"/>
      <point x="367" y="0" type="line"/>
      <point x="78" y="0" type="line"/>
      <point x="78" y="16" type="line"/>
      <point x="144" y="20"/>
      <point x="166" y="36"/>
      <point x="183" y="90" type="curve"/>
      <point x="244" y="302" type="line"/>
      <point x="167" y="571" type="line"/>
      <point x="150" y="626"/>
      <point x="147" y="629"/>
    </contour>
    <contour>
      <point x="313" y="706" type="line"/>
      <point x="475" y="866" type="line" smooth="yes"/>
      <point x="482" y="872"/>
      <point x="490" y="876"/>
      <point x="500" y="876" type="curve" smooth="yes"/>
      <point x="520" y="876"/>
      <point x="536" y="860"/>
      <point x="536" y="840" type="curve" smooth="yes"/>
      <point x="536" y="828"/>
      <point x="531" y="819"/>
      <point x="519" y="812" type="curve" smooth="yes"/>
      <point x="348" y="706" type="line"/>
    </contour>
  </outline>
</glyph>
<glyph name="Thorn" format="1">
  <advance width="611"/>
  <unicode hex="00DE"/>
  <outline>
    <contour>
      <point x="146" y="637" type="curve"/>
      <point x="146" y="653" type="line"/>
      <point x="384" y="653" type="line"/>
      <point x="384" y="637" type="line"/>
      <point x="344" y="632"/>
      <point x="331" y="623"/>
      <point x="322" y="595" type="curve"/>
      <point x="302" y="518" type="line"/>
      <point x="358" y="518" type="line" smooth="yes"/>
      <point x="494" y="518"/>
      <point x="569" y="465"/>
      <point x="569" y="369" type="curve" smooth="yes"/>
      <point x="569" y="310"/>
      <point x="540" y="255"/>
      <point x="490" y="218" type="curve" smooth="yes"/>
      <point x="447" y="187"/>
      <point x="379" y="170"/>
      <point x="295" y="170" type="curve" smooth="yes"/>
      <point x="253" y="170"/>
      <point x="230" y="173"/>
      <point x="206" y="180" type="curve"/>
      <point x="189" y="120" type="line" smooth="yes"/>
      <point x="180" y="87"/>
      <point x="177" y="74"/>
      <point x="177" y="62" type="curve" smooth="yes"/>
      <point x="177" y="28"/>
      <point x="182" y="25"/>
      <point x="245" y="16" type="curve"/>
      <point x="245" y="0" type="line"/>
      <point x="0" y="0" type="line"/>
      <point x="0" y="16" type="line"/>
      <point x="57" y="24"/>
      <point x="64" y="30"/>
      <point x="82" y="90" type="curve"/>
      <point x="200" y="515" type="line" smooth="yes"/>
      <point x="213" y="561"/>
      <point x="217" y="581"/>
      <point x="217" y="595" type="curve" smooth="yes"/>
      <point x="217" y="622"/>
      <point x="203" y="630"/>
    </contour>
    <contour>
      <point x="286" y="459" type="curve" smooth="yes"/>
      <point x="215" y="211" type="line"/>
      <point x="245" y="206"/>
      <point x="250" y="206"/>
      <point x="267" y="206" type="curve" smooth="yes"/>
      <point x="329" y="206"/>
      <point x="368" y="214"/>
      <point x="399" y="231" type="curve"/>
      <point x="443" y="257"/>
      <point x="466" y="303"/>
      <point x="466" y="368" type="curve" smooth="yes"/>
      <point x="466" y="416"/>
      <point x="455" y="445"/>
      <point x="429" y="464" type="curve" smooth="yes"/>
      <point x="409" y="478"/>
      <point x="370" y="488"/>
      <point x="332" y="488" type="curve" smooth="yes"/>
      <point x="304" y="488"/>
      <point x="292" y="480"/>
    </contour>
  </outline>
</glyph>
<glyph name="agrave" format="1">
  <advance width="500"/>
  <unicode hex="00E0"/>
  <outline>
    <contour>
      <point x="464" y="110" type="curve"/>
      <point x="476" y="100" type="line"/>
      <point x="402" y="9"/>
      <point x="377" y="-10"/>
      <point x="337" y="-10" type="curve" smooth="yes"/>
      <point x="309" y="-10"/>
      <point x="297" y="2"/>
      <point x="297" y="31" type="curve" smooth="yes"/>
      <point x="297" y="55"/>
      <point x="300" y="68"/>
      <point x="320" y="146" type="curve"/>
      <point x="232" y="22"/>
      <point x="189" y="-11"/>
      <point x="119" y="-11" type="curve" smooth="yes"/>
      <point x="55" y="-11"/>
      <point x="17" y="30"/>
      <point x="17" y="100" type="curve" smooth="yes"/>
      <point x="17" y="258"/>
      <point x="171" y="441"/>
      <point x="303" y="441" type="curve" smooth="yes"/>
      <point x="346" y="441"/>
      <point x="375" y="420"/>
      <point x="383" y="383" type="curve"/>
      <point x="394" y="431" type="line"/>
      <point x="397" y="434" type="line"/>
      <point x="458" y="441" type="line"/>
      <point x="465" y="438" type="line"/>
      <point x="463" y="429"/>
      <point x="462" y="427"/>
      <point x="459" y="417" type="curve" smooth="yes"/>
      <point x="412" y="245"/>
      <point x="370" y="74"/>
      <point x="370" y="54" type="curve" smooth="yes"/>
      <point x="370" y="47"/>
      <point x="376" y="41"/>
      <point x="384" y="41" type="curve" smooth="yes"/>
      <point x="393" y="41"/>
      <point x="406" y="51"/>
      <point x="436" y="82" type="curve" smooth="yes"/>
      <point x="443" y="90"/>
      <point x="449" y="95"/>
    </contour>
    <contour>
      <point x="309" y="419" type="curve" smooth="yes"/>
      <point x="269" y="422"/>
      <point x="222" y="390"/>
      <point x="182" y="332" type="curve" smooth="yes"/>
      <point x="139" y="270"/>
      <point x="101" y="167"/>
      <point x="101" y="113" type="curve" smooth="yes"/>
      <point x="101" y="67"/>
      <point x="124" y="38"/>
      <point x="159" y="38" type="curve" smooth="yes"/>
      <point x="188" y="38"/>
      <point x="222" y="55"/>
      <point x="246" y="82" type="curve" smooth="yes"/>
      <point x="315" y="156"/>
      <point x="365" y="274"/>
      <point x="365" y="358" type="curve" smooth="yes"/>
      <point x="365" y="393"/>
      <point x="343" y="417"/>
    </contour>
    <contour>
      <point x="363" y="492" type="line"/>
      <point x="223" y="598" type="line" smooth="yes"/>
      <point x="210" y="608"/>
      <point x="204" y="618"/>
      <point x="204" y="630" type="curve" smooth="yes"/>
      <point x="204" y="649"/>
      <point x="219" y="664"/>
      <point x="239" y="664" type="curve" smooth="yes"/>
      <point x="254" y="664"/>
      <point x="265" y="657"/>
      <point x="278" y="641" type="curve" smooth="yes"/>
      <point x="394" y="492" type="line"/>
    </contour>
  </outline>
</glyph>
<glyph name="acircumflex" format="1">
  <advance width="500"/>
  <unicode hex="00E2"/>
  <outline>
    <contour>
      <point x="464" y="110" type="curve"/>
      <point x="476" y="100" type="line"/>
      <point x="402" y="9"/>
      <point x="377" y="-10"/>
      <point x="337" y="-10" type="curve" smooth="yes"/>
      <point x="309" y="-10"/>
      <point x="297" y="2"/>
      <point x="297" y="31" type="curve" smooth="yes"/>
      <point x="297" y="55"/>
      <point x="300" y="68"/>
      <point x="320" y="146" type="curve"/>
      <point x="232" y="22"/>
      <point x="189" y="-11"/>
      <point x="119" y="-11" type="curve" smooth="yes"/>
      <point x="55" y="-11"/>
      <point x="17" y="30"/>
      <point x="17" y="100" type="curve" smooth="yes"/>
      <point x="17" y="258"/>
      <point x="171" y="441"/>
      <point x="303" y="441" type="curve" smooth="yes"/>
      <point x="346" y="441"/>
      <point x="375" y="420"/>
      <point x="383" y="383" type="curve"/>
      <point x="394" y="431" type="line"/>
      <point x="397" y="434" type="line"/>
      <point x="458" y="441" type="line"/>
      <point x="465" y="438" type="line"/>
      <point x="463" y="429"/>
      <point x="462" y="427"/>
      <point x="459" y="417" type="curve" smooth="yes"/>
      <point x="412" y="245"/>
      <point x="370" y="74"/>
      <point x="370" y="54" type="curve" smooth="yes"/>
      <point x="370" y="47"/>
      <point x="376" y="41"/>
      <point x="384" y="41" type="curve" smooth="yes"/>
      <point x="393" y="41"/>
      <point x="406" y="51"/>
      <point x="436" y="82" type="curve" smooth="yes"/>
      <point x="443" y="90"/>
      <point x="449" y="95"/>
    </contour>
    <contour>
      <point x="309" y="419" type="curve" smooth="yes"/>
      <point x="269" y="422"/>
      <point x="222" y="390"/>
      <point x="182" y="332" type="curve" smooth="yes"/>
      <point x="139" y="270"/>
      <point x="101" y="167"/>
      <point x="101" y="113" type="curve" smooth="yes"/>
      <point x="101" y="67"/>
      <point x="124" y="38"/>
      <point x="159" y="38" type="curve" smooth="yes"/>
      <point x="188" y="38"/>
      <point x="222" y="55"/>
      <point x="246" y="82" type="curve" smooth="yes"/>
      <point x="315" y="156"/>
      <point x="365" y="274"/>
      <point x="365" y="358" type="curve" smooth="yes"/>
      <point x="365" y="393"/>
      <point x="343" y="417"/>
    </contour>
    <contour>
      <point x="381" y="661" type="line"/>
      <point x="469" y="492" type="line"/>
      <point x="433" y="492" type="line"/>
      <point x="351" y="596" type="line"/>
      <point x="214" y="492" type="line"/>
      <point x="175" y="492" type="line"/>
      <point x="332" y="661" type="line"/>
    </contour>
  </outline>
</glyph>
<glyph name="atilde" format="1">
  <advance width="500"/>
  <unicode hex="00E3"/>
  <outline>
    <contour>
      <point x="464" y="110" type="curve"/>
      <point x="476" y="100" type="line"/>
      <point x="402" y="9"/>
      <point x="377" y="-10"/>
      <point x="337" y="-10" type="curve" smooth="yes"/>
      <point x="309" y="-10"/>
      <point x="297" y="2"/>
      <point x="297" y="31" type="curve" smooth="yes"/>
      <point x="297" y="55"/>
      <point x="300" y="68"/>
      <point x="320" y="146" type="curve"/>
      <point x="232" y="22"/>
      <point x="189" y="-11"/>
      <point x="119" y="-11" type="curve" smooth="yes"/>
      <point x="55" y="-11"/>
      <point x="17" y="30"/>
      <point x="17" y="100" type="curve" smooth="yes"/>
      <point x="17" y="258"/>
      <point x="171" y="441"/>
      <point x="303" y="441" type="curve" smooth="yes"/>
      <point x="346" y="441"/>
      <point x="375" y="420"/>
      <point x="383" y="383" type="curve"/>
      <point x="394" y="431" type="line"/>
      <point x="397" y="434" type="line"/>
      <point x="458" y="441" type="line"/>
      <point x="465" y="438" type="line"/>
      <point x="463" y="429"/>
      <point x="462" y="427"/>
      <point x="459" y="417" type="curve" smooth="yes"/>
      <point x="412" y="245"/>
      <point x="370" y="74"/>
      <point x="370" y="54" type="curve" smooth="yes"/>
      <point x="370" y="47"/>
      <point x="376" y="41"/>
      <point x="384" y="41" type="curve" smooth="yes"/>
      <point x="393" y="41"/>
      <point x="406" y="51"/>
      <point x="436" y="82" type="curve" smooth="yes"/>
      <point x="443" y="90"/>
      <point x="449" y="95"/>
    </contour>
    <contour>
      <point x="309" y="419" type="curve" smooth="yes"/>
      <point x="269" y="422"/>
      <point x="222" y="390"/>
      <point x="182" y="332" type="curve" smooth="yes"/>
      <point x="139" y="270"/>
      <point x="101" y="167"/>
      <point x="101" y="113" type="curve" smooth="yes"/>
      <point x="101" y="67"/>
      <point x="124" y="38"/>
      <point x="159" y="38" type="curve" smooth="yes"/>
      <point x="188" y="38"/>
      <point x="222" y="55"/>
      <point x="246" y="82" type="curve" smooth="yes"/>
      <point x="315" y="156"/>
      <point x="365" y="274"/>
      <point x="365" y="358" type="curve" smooth="yes"/>
      <point x="365" y="393"/>
      <point x="343" y="417"/>
    </contour>
    <contour>
      <point x="483" y="624" type="curve"/>
      <point x="511" y="624" type="line"/>
      <point x="497" y="557"/>
      <point x="464" y="520"/>
      <point x="416" y="520" type="curve" smooth="yes"/>
      <point x="404" y="520"/>
      <point x="385" y="525"/>
      <point x="359" y="535" type="curve" smooth="yes"/>
      <point x="305" y="557"/>
      <point x="281" y="564"/>
      <point x="264" y="564" type="curve" smooth="yes"/>
      <point x="239" y="564"/>
      <point x="223" y="549"/>
      <point x="213" y="517" type="curve"/>
      <point x="184" y="517" type="line"/>
      <point x="204" y="594"/>
      <point x="232" y="623"/>
      <point x="284" y="623" type="curve" smooth="yes"/>
      <point x="306" y="623"/>
      <point x="332" y="616"/>
      <point x="370" y="599" type="curve" smooth="yes"/>
      <point x="400" y="585"/>
      <point x="417" y="580"/>
      <point x="432" y="580" type="curve" smooth="yes"/>
      <point x="459" y="580"/>
      <point x="472" y="591"/>
    </contour>
  </outline>
</glyph>
<glyph name="adieresis" format="1">
  <advance width="500"/>
  <unicode hex="00E4"/>
  <outline>
    <contour>
      <point x="464" y="110" type="curve"/>
      <point x="476" y="100" type="line"/>
      <point x="402" y="9"/>
      <point x="377" y="-10"/>
      <point x="337" y="-10" type="curve" smooth="yes"/>
      <point x="309" y="-10"/>
      <point x="297" y="2"/>
      <point x="297" y="31" type="curve" smooth="yes"/>
      <point x="297" y="55"/>
      <point x="300" y="68"/>
      <point x="320" y="146" type="curve"/>
      <point x="232" y="22"/>
      <point x="189" y="-11"/>
      <point x="119" y="-11" type="curve" smooth="yes"/>
      <point x="55" y="-11"/>
      <point x="17" y="30"/>
      <point x="17" y="100" type="curve" smooth="yes"/>
      <point x="17" y="258"/>
      <point x="171" y="441"/>
      <point x="303" y="441" type="curve" smooth="yes"/>
      <point x="346" y="441"/>
      <point x="375" y="420"/>
      <point x="383" y="383" type="curve"/>
      <point x="394" y="431" type="line"/>
      <point x="397" y="434" type="line"/>
      <point x="458" y="441" type="line"/>
      <point x="465" y="438" type="line"/>
      <point x="463" y="429"/>
      <point x="462" y="427"/>
      <point x="459" y="417" type="curve" smooth="yes"/>
      <point x="412" y="245"/>
      <point x="370" y="74"/>
      <point x="370" y="54" type="curve" smooth="yes"/>
      <point x="370" y="47"/>
      <point x="376" y="41"/>
      <point x="384" y="41" type="curve" smooth="yes"/>
      <point x="393" y="41"/>
      <point x="406" y="51"/>
      <point x="436" y="82" type="curve" smooth="yes"/>
      <point x="443" y="90"/>
      <point x="449" y="95"/>
    </contour>
    <contour>
      <point x="309" y="419" type="curve" smooth="yes"/>
      <point x="269" y="422"/>
      <point x="222" y="390"/>
      <point x="182" y="332" type="curve" smooth="yes"/>
      <point x="139" y="270"/>
      <point x="101" y="167"/>
      <point x="101" y="113" type="curve" smooth="yes"/>
      <point x="101" y="67"/>
      <point x="124" y="38"/>
      <point x="159" y="38" type="curve" smooth="yes"/>
      <point x="188" y="38"/>
      <point x="222" y="55"/>
      <point x="246" y="82" type="curve" smooth="yes"/>
      <point x="315" y="156"/>
      <point x="365" y="274"/>
      <point x="365" y="358" type="curve" smooth="yes"/>
      <point x="365" y="393"/>
      <point x="343" y="417"/>
    </contour>
    <contour>
      <point x="241" y="606" type="curve" smooth="yes"/>
      <point x="266" y="606"/>
      <point x="289" y="582"/>
      <point x="289" y="557" type="curve" smooth="yes"/>
      <point x="289" y="530"/>
      <point x="267" y="508"/>
      <point x="240" y="508" type="curve" smooth="yes"/>
      <point x="213" y="508"/>
      <point x="191" y="530"/>
      <point x="191" y="558" type="curve" smooth="yes"/>
      <point x="191" y="584"/>
      <point x="213" y="606"/>
    </contour>
    <contour>
      <point x="441" y="606" type="curve" smooth="yes"/>
      <point x="466" y="606"/>
      <point x="489" y="582"/>
      <point x="489" y="557" type="curve" smooth="yes"/>
      <point x="489" y="530"/>
      <point x="467" y="508"/>
      <point x="440" y="508" type="curve" smooth="yes"/>
      <point x="413" y="508"/>
      <point x="391" y="530"/>
      <point x="391" y="558" type="curve" smooth="yes"/>
      <point x="391" y="584"/>
      <point x="413" y="606"/>
    </contour>
  </outline>
</glyph>
<glyph name="otilde" format="1">
  <advance width="500"/>
  <unicode hex="00F5"/>
  <outline>
    <contour>
      <point x="325" y="441" type="curve" smooth="yes"/>
      <point x="410" y="441"/>
      <point x="468" y="384"/>
      <point x="468" y="301" type="curve" smooth="yes"/>
      <point x="468" y="226"/>
      <point x="428" y="141"/>
      <point x="362" y="76" type="curve" smooth="yes"/>
      <point x="304" y="19"/>
      <point x="240" y="-11"/>
      <point x="174" y="-11" type="curve" smooth="yes"/>
      <point x="83" y="-11"/>
      <point x="27" y="43"/>
      <point x="27" y="129" type="curve" smooth="yes"/>
      <point x="27" y="286"/>
      <point x="175" y="441"/>
    </contour>
    <contour>
      <point x="313" y="420" type="curve" smooth="yes"/>
      <point x="270" y="420"/>
      <point x="228" y="390"/>
      <point x="189" y="334" type="curve" smooth="yes"/>
      <point x="140" y="263"/>
      <point x="111" y="175"/>
      <point x="111" y="101" type="curve" smooth="yes"/>
      <point x="111" y="46"/>
      <point x="142" y="10"/>
      <point x="189" y="10" type="curve" smooth="yes"/>
      <point x="232" y="10"/>
      <point x="270" y="35"/>
      <point x="307" y="88" type="curve" smooth="yes"/>
      <point x="351" y="153"/>
      <point x="384" y="253"/>
      <point x="384" y="326" type="curve" smooth="yes"/>
      <point x="384" y="383"/>
      <point x="356" y="420"/>
    </contour>
    <contour>
      <point x="468" y="624" type="curve"/>
      <point x="496" y="624" type="line"/>
      <point x="482" y="557"/>
      <point x="449" y="520"/>
      <point x="401" y="520" type="curve" smooth="yes"/>
      <point x="389" y="520"/>
      <point x="370" y="525"/>
      <point x="344" y="535" type="curve" smooth="yes"/>
      <point x="290" y="557"/>
      <point x="266" y="564"/>
      <point x="249" y="564" type="curve" smooth="yes"/>
      <point x="224" y="564"/>
      <point x="208" y="549"/>
      <point x="198" y="517" type="curve"/>
      <point x="169" y="517" type="line"/>
      <point x="189" y="594"/>
      <point x="217" y="623"/>
      <point x="269" y="623" type="curve" smooth="yes"/>
      <point x="291" y="623"/>
      <point x="317" y="616"/>
      <point x="355" y="599" type="curve" smooth="yes"/>
      <point x="385" y="585"/>
      <point x="402" y="580"/>
      <point x="417" y="580" type="curve" smooth="yes"/>
      <point x="444" y="580"/>
      <point x="457" y="591"/>
    </contour>
  </outline>
</glyph>
<glyph name="cacute" format="1">
  <advance width="444"/>
  <unicode hex="0107"/>
  <outline>
    <contour>
      <point x="350" y="106" type="curve"/>
      <point x="366" y="96" type="line"/>
      <point x="306" y="20"/>
      <point x="251" y="-11"/>
      <point x="177" y="-11" type="curve" smooth="yes"/>
      <point x="84" y="-11"/>
      <point x="30" y="44"/>
      <point x="30" y="139" type="curve" smooth="yes"/>
      <point x="30" y="295"/>
      <point x="170" y="441"/>
      <point x="320" y="441" type="curve" smooth="yes"/>
      <point x="380" y="441"/>
      <point x="425" y="406"/>
      <point x="425" y="360" type="curve" smooth="yes"/>
      <point x="425" y="334"/>
      <point x="404" y="314"/>
      <point x="377" y="314" type="curve" smooth="yes"/>
      <point x="353" y="314"/>
      <point x="338" y="328"/>
      <point x="338" y="352" type="curve" smooth="yes"/>
      <point x="338" y="361"/>
      <point x="340" y="368"/>
      <point x="347" y="381" type="curve" smooth="yes"/>
      <point x="351" y="390"/>
      <point x="353" y="395"/>
      <point x="353" y="400" type="curve" smooth="yes"/>
      <point x="353" y="412"/>
      <point x="338" y="420"/>
      <point x="315" y="420" type="curve" smooth="yes"/>
      <point x="276" y="420"/>
      <point x="236" y="402"/>
      <point x="207" y="372" type="curve" smooth="yes"/>
      <point x="151" y="313"/>
      <point x="116" y="224"/>
      <point x="116" y="139" type="curve" smooth="yes"/>
      <point x="116" y="68"/>
      <point x="150" y="25"/>
      <point x="207" y="25" type="curve" smooth="yes"/>
      <point x="256" y="25"/>
      <point x="295" y="47"/>
    </contour>
    <contour>
      <point x="235" y="494" type="line"/>
      <point x="397" y="654" type="line" smooth="yes"/>
      <point x="404" y="660"/>
      <point x="412" y="664"/>
      <point x="422" y="664" type="curve" smooth="yes"/>
      <point x="442" y="664"/>
      <point x="458" y="648"/>
      <point x="458" y="628" type="curve" smooth="yes"/>
      <point x="458" y="616"/>
      <point x="453" y="607"/>
      <point x="441" y="600" type="curve" smooth="yes"/>
      <point x="270" y="494" type="line"/>
    </contour>
  </outline>
</glyph>
<glyph name="Ccircumflex" format="1">
  <advance width="667"/>
  <unicode hex="0108"/>
  <outline>
    <contour>
      <point x="535" y="872" type="line"/>
      <point x="623" y="703" type="line"/>
      <point x="587" y="703" type="line"/>
      <point x="505" y="807" type="line"/>
      <point x="368" y="703" type="line"/>
      <point x="329" y="703" type="line"/>
      <point x="486" y="872" type="line"/>
    </contour>
    <contour>
      <point x="652" y="465" type="line"/>
      <point x="634" y="468" type="line"/>
      <point x="624" y="576"/>
      <point x="573" y="630"/>
      <point x="481" y="630" type="curve" smooth="yes"/>
      <point x="415" y="630"/>
      <point x="352" y="602"/>
      <point x="304" y="553" type="curve" smooth="yes"/>
      <point x="226" y="472"/>
      <point x="178" y="351"/>
      <point x="178" y="232" type="curve" smooth="yes"/>
      <point x="178" y="103"/>
      <point x="242" y="27"/>
      <point x="353" y="27" type="curve" smooth="yes"/>
      <point x="435" y="27"/>
      <point x="493" y="57"/>
      <point x="583" y="145" type="curve"/>
      <point x="600" y="131" type="line"/>
      <point x="510" y="26"/>
      <point x="430" y="-18"/>
      <point x="327" y="-18" type="curve" smooth="yes"/>
      <point x="174" y="-18"/>
      <point x="66" y="90"/>
      <point x="66" y="243" type="curve" smooth="yes"/>
      <point x="66" y="465"/>
      <point x="259" y="666"/>
      <point x="472" y="666" type="curve" smooth="yes"/>
      <point x="504" y="666"/>
      <point x="544" y="660"/>
      <point x="589" y="649" type="curve" smooth="yes"/>
      <point x="610" y="644"/>
      <point x="622" y="642"/>
      <point x="630" y="642" type="curve" smooth="yes"/>
      <point x="650" y="642"/>
      <point x="660" y="648"/>
      <point x="668" y="664" type="curve"/>
      <point x="689" y="664" type="line"/>
    </contour>
  </outline>
</glyph>
<glyph name="cdotaccent" format="1">
  <advance width="444"/>
  <unicode hex="010B"/>
  <outline>
    <contour>
      <point x="317" y="589" type="curve" smooth="yes"/>
      <point x="342" y="589"/>
      <point x="365" y="565"/>
      <point x="365" y="540" type="curve" smooth="yes"/>
      <point x="365" y="513"/>
      <point x="343" y="491"/>
      <point x="316" y="491" type="curve" smooth="yes"/>
      <point x="289" y="491"/>
      <point x="267" y="513"/>
      <point x="267" y="541" type="curve" smooth="yes"/>
      <point x="267" y="567"/>
      <point x="289" y="589"/>
    </contour>
    <contour>
      <point x="350" y="106" type="curve"/>
      <point x="366" y="96" type="line"/>
      <point x="306" y="20"/>
      <point x="251" y="-11"/>
      <point x="177" y="-11" type="curve" smooth="yes"/>
      <point x="84" y="-11"/>
      <point x="30" y="44"/>
      <point x="30" y="139" type="curve" smooth="yes"/>
      <point x="30" y="295"/>
      <point x="170" y="441"/>
      <point x="320" y="441" type="curve" smooth="yes"/>
      <point x="380" y="441"/>
      <point x="425" y="406"/>
      <point x="425" y="360" type="curve" smooth="yes"/>
      <point x="425" y="334"/>
      <point x="404" y="314"/>
      <point x="377" y="314" type="curve" smooth="yes"/>
      <point x="353" y="314"/>
      <point x="338" y="328"/>
      <point x="338" y="352" type="curve" smooth="yes"/>
      <point x="338" y="361"/>
      <point x="340" y="368"/>
      <point x="347" y="381" type="curve" smooth="yes"/>
      <point x="351" y="390"/>
      <point x="353" y="395"/>
      <point x="353" y="400" type="curve" smooth="yes"/>
      <point x="353" y="412"/>
      <point x="338" y="420"/>
      <point x="315" y="420" type="curve" smooth="yes"/>
      <point x="276" y="420"/>
      <point x="236" y="402"/>
      <point x="207" y="372" type="curve" smooth="yes"/>
      <point x="151" y="313"/>
      <point x="116" y="224"/>
      <point x="116" y="139" type="curve" smooth="yes"/>
      <point x="116" y="68"/>
      <point x="150" y="25"/>
      <point x="207" y="25" type="curve" smooth="yes"/>
      <point x="256" y="25"/>
      <point x="295" y="47"/>
    </contour>
  </outline>
</glyph>
<glyph name="ebreve" format="1">
  <advance width="444"/>
  <unicode hex="0115"/>
  <outline>
    <contour>
      <point x="471" y="649" type="curve"/>
      <point x="500" y="649" type="line"/>
      <point x="491" y="607"/>
      <point x="482" y="586"/>
      <point x="462" y="560" type="curve" smooth="yes"/>
      <point x="429" y="515"/>
      <point x="382" y="491"/>
      <point x="329" y="491" type="curve" smooth="yes"/>
      <point x="284" y="491"/>
      <point x="250" y="506"/>
      <point x="227" y="535" type="curve" smooth="yes"/>
      <point x="207" y="561"/>
      <point x="199" y="592"/>
      <point x="199" y="649" type="curve"/>
      <point x="228" y="649" type="line"/>
      <point x="233" y="587"/>
      <point x="272" y="550"/>
      <point x="336" y="550" type="curve" smooth="yes"/>
      <point x="397" y="550"/>
      <point x="446" y="586"/>
    </contour>
    <contour>
      <point x="358" y="109" type="curve"/>
      <point x="370" y="97" type="line"/>
      <point x="311" y="30"/>
      <point x="234" y="-11"/>
      <point x="163" y="-11" type="curve" smooth="yes"/>
      <point x="85" y="-11"/>
      <point x="31" y="45"/>
      <point x="31" y="126" type="curve" smooth="yes"/>
      <point x="31" y="276"/>
      <point x="188" y="441"/>
      <point x="332" y="441" type="curve" smooth="yes"/>
      <point x="382" y="441"/>
      <point x="412" y="415"/>
      <point x="412" y="373" type="curve" smooth="yes"/>
      <point x="412" y="287"/>
      <point x="306" y="211"/>
      <point x="156" y="190" type="curve" smooth="yes"/>
      <point x="128" y="186" type="line"/>
      <point x="120" y="154"/>
      <point x="118" y="139"/>
      <point x="118" y="124" type="curve" smooth="yes"/>
      <point x="118" y="70"/>
      <point x="155" y="34"/>
      <point x="212" y="34" type="curve" smooth="yes"/>
      <point x="255" y="34"/>
      <point x="286" y="50"/>
    </contour>
    <contour>
      <point x="152" y="252" type="curve" smooth="yes"/>
      <point x="135" y="208" type="line"/>
      <point x="221" y="229"/>
      <point x="259" y="247"/>
      <point x="296" y="282" type="curve" smooth="yes"/>
      <point x="327" y="312"/>
      <point x="346" y="348"/>
      <point x="346" y="379" type="curve" smooth="yes"/>
      <point x="346" y="402"/>
      <point x="332" y="418"/>
      <point x="311" y="418" type="curve" smooth="yes"/>
      <point x="260" y="418"/>
      <point x="186" y="341"/>
    </contour>
  </outline>
</glyph>
<glyph name="Gbreve" format="1">
  <advance width="722"/>
  <unicode hex="011E"/>
  <outline>
    <contour>
      <point x="708" y="662" type="line"/>
      <point x="659" y="465" type="line"/>
      <point x="641" y="468" type="line"/>
      <point x="636" y="512"/>
      <point x="629" y="533"/>
      <point x="613" y="559" type="curve" smooth="yes"/>
      <point x="583" y="605"/>
      <point x="528" y="632"/>
      <point x="463" y="632" type="curve" smooth="yes"/>
      <point x="397" y="632"/>
      <point x="335" y="605"/>
      <point x="290" y="558" type="curve" smooth="yes"/>
      <point x="211" y="474"/>
      <point x="162" y="347"/>
      <point x="162" y="224" type="curve" smooth="yes"/>
      <point x="162" y="93"/>
      <point x="235" y="19"/>
      <point x="364" y="19" type="curve" smooth="yes"/>
      <point x="409" y="19"/>
      <point x="447" y="31"/>
      <point x="469" y="53" type="curve" smooth="yes"/>
      <point x="481" y="65"/>
      <point x="484" y="73"/>
      <point x="506" y="145" type="curve" smooth="yes"/>
      <point x="528" y="219"/>
      <point x="534" y="247"/>
      <point x="534" y="269" type="curve" smooth="yes"/>
      <point x="534" y="287"/>
      <point x="518" y="297"/>
      <point x="485" y="300" type="curve" smooth="yes"/>
      <point x="481" y="300"/>
      <point x="468" y="302"/>
      <point x="456" y="303" type="curve"/>
      <point x="456" y="319" type="line"/>
      <point x="722" y="319" type="line"/>
      <point x="722" y="303" type="line"/>
      <point x="657" y="299"/>
      <point x="641" y="287"/>
      <point x="625" y="231" type="curve"/>
      <point x="576" y="44" type="line"/>
      <point x="499" y="1"/>
      <point x="427" y="-18"/>
      <point x="339" y="-18" type="curve" smooth="yes"/>
      <point x="252" y="-18"/>
      <point x="179" y="9"/>
      <point x="128" y="60" type="curve" smooth="yes"/>
      <point x="81" y="108"/>
      <point x="52" y="178"/>
      <point x="52" y="246" type="curve" smooth="yes"/>
      <point x="52" y="466"/>
      <point x="244" y="666"/>
      <point x="455" y="666" type="curve" smooth="yes"/>
      <point x="496" y="666"/>
      <point x="539" y="658"/>
      <point x="589" y="642" type="curve" smooth="yes"/>
      <point x="611" y="635"/>
      <point x="623" y="632"/>
      <point x="633" y="632" type="curve" smooth="yes"/>
      <point x="659" y="632"/>
      <point x="676" y="642"/>
      <point x="693" y="666" type="curve"/>
    </contour>
    <contour>
      <point x="624" y="862" type="curve"/>
      <point x="653" y="862" type="line"/>
      <point x="644" y="820"/>
      <point x="635" y="799"/>
      <point x="615" y="773" type="curve" smooth="yes"/>
      <point x="582" y="728"/>
      <point x="535" y="704"/>
      <point x="482" y="704" type="curve" smooth="yes"/>
      <point x="437" y="704"/>
      <point x="403" y="719"/>
      <point x="380" y="748" type="curve" smooth="yes"/>
      <point x="360" y="774"/>
      <point x="352" y="805"/>
      <point x="352" y="862" type="curve"/>
      <point x="381" y="862" type="line"/>
      <point x="386" y="800"/>
      <point x="425" y="763"/>
      <point x="489" y="763" type="curve" smooth="yes"/>
      <point x="550" y="763"/>
      <point x="599" y="799"/>
    </contour>
  </outline>
</glyph>
<glyph name="hbar" format="1">
  <advance width="500"/>
  <unicode hex="0127"/>
  <outline>
    <contour>
      <point x="465" y="117" type="curve"/>
      <point x="478" y="105" type="line"/>
      <point x="418" y="18"/>
      <point x="383" y="-9"/>
      <point x="332" y="-9" type="curve" smooth="yes"/>
      <point x="305" y="-9"/>
      <point x="288" y="7"/>
      <point x="288" y="33" type="curve" smooth="yes"/>
      <point x="288" y="45"/>
      <point x="295" y="76"/>
      <point x="308" y="125" type="curve" smooth="yes"/>
      <point x="363" y="332" type="line" smooth="yes"/>
      <point x="367" y="348"/>
      <point x="370" y="361"/>
      <point x="370" y="365" type="curve" smooth="yes"/>
      <point x="370" y="378"/>
      <point x="357" y="390"/>
      <point x="342" y="390" type="curve" smooth="yes"/>
      <point x="307" y="390"/>
      <point x="239" y="328"/>
      <point x="187" y="249" type="curve" smooth="yes"/>
      <point x="147" y="188"/>
      <point x="134" y="154"/>
      <point x="94" y="0" type="curve"/>
      <point x="19" y="0" type="line"/>
      <point x="151" y="502" type="line"/>
      <point x="92" y="502" type="line"/>
      <point x="105" y="549" type="line"/>
      <point x="164" y="549" type="line"/>
      <point x="173" y="578"/>
      <point x="178" y="603"/>
      <point x="178" y="617" type="curve" smooth="yes"/>
      <point x="178" y="631"/>
      <point x="154" y="648"/>
      <point x="140" y="642" type="curve" smooth="yes"/>
      <point x="139" y="641"/>
      <point x="138" y="641"/>
      <point x="137" y="641" type="curve" smooth="yes"/>
      <point x="111" y="641" type="line"/>
      <point x="111" y="656" type="line"/>
      <point x="171" y="663"/>
      <point x="210" y="670"/>
      <point x="268" y="683" type="curve"/>
      <point x="273" y="678" type="line"/>
      <point x="238" y="549" type="line"/>
      <point x="349" y="549" type="line"/>
      <point x="336" y="502" type="line"/>
      <point x="226" y="502" type="line"/>
      <point x="153" y="230" type="line"/>
      <point x="246" y="375"/>
      <point x="317" y="441"/>
      <point x="382" y="441" type="curve" smooth="yes"/>
      <point x="421" y="441"/>
      <point x="448" y="414"/>
      <point x="448" y="374" type="curve" smooth="yes"/>
      <point x="448" y="350"/>
      <point x="429" y="276"/>
      <point x="400" y="181" type="curve"/>
      <point x="383" y="129"/>
      <point x="367" y="66"/>
      <point x="367" y="56" type="curve" smooth="yes"/>
      <point x="367" y="47"/>
      <point x="374" y="38"/>
      <point x="383" y="38" type="curve" smooth="yes"/>
      <point x="399" y="38"/>
      <point x="411" y="49"/>
    </contour>
  </outline>
</glyph>
<glyph name="itilde" format="1">
  <advance width="278"/>
  <unicode hex="0129"/>
  <outline>
    <contour>
      <point x="365" y="598" type="curve"/>
      <point x="393" y="598" type="line"/>
      <point x="379" y="531"/>
      <point x="346" y="494"/>
      <point x="298" y="494" type="curve" smooth="yes"/>
      <point x="286" y="494"/>
      <point x="267" y="499"/>
      <point x="241" y="509" type="curve" smooth="yes"/>
      <point x="187" y="531"/>
      <point x="163" y="538"/>
      <point x="146" y="538" type="curve" smooth="yes"/>
      <point x="121" y="538"/>
      <point x="105" y="523"/>
      <point x="95" y="491" type="curve"/>
      <point x="66" y="491" type="line"/>
      <point x="86" y="568"/>
      <point x="114" y="597"/>
      <point x="166" y="597" type="curve" smooth="yes"/>
      <point x="188" y="597"/>
      <point x="214" y="590"/>
      <point x="252" y="573" type="curve" smooth="yes"/>
      <point x="282" y="559"/>
      <point x="299" y="554"/>
      <point x="314" y="554" type="curve" smooth="yes"/>
      <point x="341" y="554"/>
      <point x="354" y="565"/>
    </contour>
    <contour>
      <point x="222" y="114" type="curve"/>
      <point x="235" y="103" type="line"/>
      <point x="178" y="19"/>
      <point x="141" y="-11"/>
      <point x="95" y="-11" type="curve" smooth="yes"/>
      <point x="65" y="-11"/>
      <point x="49" y="9"/>
      <point x="49" y="46" type="curve" smooth="yes"/>
      <point x="49" y="66"/>
      <point x="55" y="97"/>
      <point x="71" y="155" type="curve" smooth="yes"/>
      <point x="119" y="332" type="line" smooth="yes"/>
      <point x="125" y="352"/>
      <point x="128" y="368"/>
      <point x="128" y="376" type="curve" smooth="yes"/>
      <point x="128" y="396"/>
      <point x="118" y="399"/>
      <point x="65" y="400" type="curve"/>
      <point x="65" y="416" type="line"/>
      <point x="104" y="419"/>
      <point x="124" y="422"/>
      <point x="225" y="441" type="curve"/>
      <point x="228" y="439" type="line"/>
      <point x="140" y="117" type="line"/>
      <point x="139" y="115" type="line"/>
      <point x="139" y="113" type="line"/>
      <point x="137" y="105"/>
      <point x="134" y="98"/>
      <point x="134" y="95" type="curve"/>
      <point x="127" y="76"/>
      <point x="124" y="61"/>
      <point x="124" y="51" type="curve" smooth="yes"/>
      <point x="124" y="44"/>
      <point x="132" y="36"/>
      <point x="140" y="36" type="curve" smooth="yes"/>
      <point x="149" y="36"/>
      <point x="164" y="46"/>
      <point x="181" y="63" type="curve" smooth="yes"/>
      <point x="191" y="74"/>
      <point x="198" y="82"/>
    </contour>
  </outline>
</glyph>
<glyph name="Ibreve" format="1">
  <advance width="333"/>
  <unicode hex="012C"/>
  <outline>
    <contour>
      <point x="-8" y="0" type="line"/>
      <point x="-8" y="16" type="line"/>
      <point x="48" y="26"/>
      <point x="55" y="32"/>
      <point x="73" y="90" type="curve"/>
      <point x="196" y="532" type="line" smooth="yes"/>
      <point x="203" y="557"/>
      <point x="207" y="580"/>
      <point x="207" y="594" type="curve" smooth="yes"/>
      <point x="207" y="622"/>
      <point x="195" y="630"/>
      <point x="137" y="637" type="curve"/>
      <point x="137" y="653" type="line"/>
      <point x="384" y="653" type="line"/>
      <point x="384" y="637" type="line"/>
      <point x="327" y="627"/>
      <point x="320" y="621"/>
      <point x="302" y="563" type="curve"/>
      <point x="179" y="120" type="line" smooth="yes"/>
      <point x="170" y="88"/>
      <point x="168" y="76"/>
      <point x="168" y="57" type="curve" smooth="yes"/>
      <point x="168" y="29"/>
      <point x="179" y="23"/>
      <point x="236" y="16" type="curve"/>
      <point x="236" y="0" type="line"/>
    </contour>
    <contour>
      <point x="456" y="861" type="curve"/>
      <point x="485" y="861" type="line"/>
      <point x="476" y="819"/>
      <point x="467" y="798"/>
      <point x="447" y="772" type="curve" smooth="yes"/>
      <point x="414" y="727"/>
      <point x="367" y="703"/>
      <point x="314" y="703" type="curve" smooth="yes"/>
      <point x="269" y="703"/>
      <point x="235" y="718"/>
      <point x="212" y="747" type="curve" smooth="yes"/>
      <point x="192" y="773"/>
      <point x="184" y="804"/>
      <point x="184" y="861" type="curve"/>
      <point x="213" y="861" type="line"/>
      <point x="218" y="799"/>
      <point x="257" y="762"/>
      <point x="321" y="762" type="curve" smooth="yes"/>
      <point x="382" y="762"/>
      <point x="431" y="798"/>
    </contour>
  </outline>
</glyph>
<glyph name="ij" format="1">
  <advance width="474"/>
  <unicode hex="0133"/>
  <outline>
    <contour>
      <point x="222" y="114" type="curve"/>
      <point x="235" y="103" type="line"/>
      <point x="178" y="19"/>
      <point x="141" y="-11"/>
      <point x="95" y="-11" type="curve" smooth="yes"/>
      <point x="65" y="-11"/>
      <point x="49" y="9"/>
      <point x="49" y="46" type="curve" smooth="yes"/>
      <point x="49" y="66"/>
      <point x="55" y="97"/>
      <point x="71" y="155" type="curve" smooth="yes"/>
      <point x="119" y="332" type="line" smooth="yes"/>
      <point x="125" y="352"/>
      <point x="128" y="368"/>
      <point x="128" y="376" type="curve" smooth="yes"/>
      <point x="128" y="396"/>
      <point x="118" y="399"/>
      <point x="65" y="400" type="curve"/>
      <point x="65" y="416" type="line"/>
      <point x="104" y="419"/>
      <point x="124" y="422"/>
      <point x="225" y="441" type="curve"/>
      <point x="228" y="439" type="line"/>
      <point x="140" y="117" type="line"/>
      <point x="139" y="115" type="line"/>
      <point x="139" y="113" type="line"/>
      <point x="137" y="105"/>
      <point x="134" y="98"/>
      <point x="134" y="95" type="curve"/>
      <point x="127" y="76"/>
      <point x="124" y="61"/>
      <point x="124" y="51" type="curve" smooth="yes"/>
      <point x="124" y="44"/>
      <point x="132" y="36"/>
      <point x="140" y="36" type="curve" smooth="yes"/>
      <point x="149" y="36"/>
      <point x="164" y="46"/>
      <point x="181" y="63" type="curve" smooth="yes"/>
      <point x="191" y="74"/>
      <point x="198" y="82"/>
    </contour>
    <contour>
      <point x="214" y="654" type="curve" smooth="yes"/>
      <point x="241" y="654"/>
      <point x="264" y="628"/>
      <point x="264" y="599" type="curve" smooth="yes"/>
      <point x="264" y="571"/>
      <point x="241" y="548"/>
      <point x="215" y="548" type="curve" smooth="yes"/>
      <point x="186" y="548"/>
      <point x="167" y="569"/>
      <point x="167" y="601" type="curve" smooth="yes"/>
      <point x="167" y="631"/>
      <point x="187" y="654"/>
    </contour>
    <contour>
      <point x="432" y="439" type="line"/>
      <point x="328" y="28" type="line" smooth="yes"/>
      <point x="288" y="-131"/>
      <point x="228" y="-207"/>
      <point x="141" y="-207" type="curve" smooth="yes"/>
      <point x="95" y="-207"/>
      <point x="62" y="-181"/>
      <point x="62" y="-146" type="curve" smooth="yes"/>
      <point x="62" y="-122"/>
      <point x="79" y="-104"/>
      <point x="102" y="-104" type="curve" smooth="yes"/>
      <point x="125" y="-104"/>
      <point x="143" y="-120"/>
      <point x="143" y="-141" type="curve" smooth="yes"/>
      <point x="143" y="-149"/>
      <point x="141" y="-154"/>
      <point x="135" y="-162" type="curve" smooth="yes"/>
      <point x="131" y="-167"/>
      <point x="130" y="-169"/>
      <point x="130" y="-173" type="curve" smooth="yes"/>
      <point x="130" y="-180"/>
      <point x="136" y="-184"/>
      <point x="148" y="-184" type="curve" smooth="yes"/>
      <point x="188" y="-184"/>
      <point x="211" y="-140"/>
      <point x="245" y="-3" type="curve" smooth="yes"/>
      <point x="317" y="289" type="line" smooth="yes"/>
      <point x="328" y="332"/>
      <point x="333" y="359"/>
      <point x="333" y="369" type="curve" smooth="yes"/>
      <point x="333" y="379"/>
      <point x="330" y="388"/>
      <point x="326" y="392" type="curve" smooth="yes"/>
      <point x="321" y="396"/>
      <point x="301" y="402"/>
      <point x="293" y="401" type="curve" smooth="yes"/>
      <point x="286" y="400" type="line"/>
      <point x="259" y="400" type="line"/>
      <point x="259" y="416" type="line"/>
      <point x="290" y="417"/>
      <point x="340" y="425"/>
      <point x="429" y="441" type="curve"/>
    </contour>
    <contour>
      <point x="412" y="654" type="curve" smooth="yes"/>
      <point x="439" y="654"/>
      <point x="462" y="628"/>
      <point x="462" y="599" type="curve" smooth="yes"/>
      <point x="462" y="571"/>
      <point x="439" y="548"/>
      <point x="413" y="548" type="curve" smooth="yes"/>
      <point x="384" y="548"/>
      <point x="365" y="569"/>
      <point x="365" y="601" type="curve" smooth="yes"/>
      <point x="365" y="632"/>
      <point x="385" y="654"/>
    </contour>
  </outline>
</glyph>
<glyph name="Lcommaaccent" format="1">
  <advance width="556"/>
  <unicode hex="013B"/>
  <outline>
    <contour>
      <point x="403" y="653" type="line"/>
      <point x="403" y="637" type="line"/>
      <point x="343" y="633"/>
      <point x="317" y="614"/>
      <point x="302" y="563" type="curve" smooth="yes"/>
      <point x="179" y="120" type="line" smooth="yes"/>
      <point x="174" y="101"/>
      <point x="169" y="77"/>
      <point x="169" y="70" type="curve" smooth="yes"/>
      <point x="169" y="44"/>
      <point x="194" y="36"/>
      <point x="270" y="36" type="curve" smooth="yes"/>
      <point x="357" y="36"/>
      <point x="398" y="42"/>
      <point x="433" y="59" type="curve" smooth="yes"/>
      <point x="477" y="81"/>
      <point x="504" y="113"/>
      <point x="539" y="185" type="curve"/>
      <point x="559" y="179" type="line"/>
      <point x="501" y="0" type="line"/>
      <point x="-8" y="0" type="line"/>
      <point x="-8" y="16" type="line"/>
      <point x="48" y="26"/>
      <point x="55" y="32"/>
      <point x="73" y="90" type="curve"/>
      <point x="196" y="532" type="line" smooth="yes"/>
      <point x="203" y="557"/>
      <point x="207" y="580"/>
      <point x="207" y="594" type="curve" smooth="yes"/>
      <point x="207" y="623"/>
      <point x="192" y="631"/>
      <point x="130" y="637" type="curve"/>
      <point x="130" y="653" type="line"/>
    </contour>
    <contour>
      <point x="127" y="-270" type="curve"/>
      <point x="118" y="-253" type="line"/>
      <point x="170" y="-218"/>
      <point x="193" y="-191"/>
      <point x="193" y="-164" type="curve" smooth="yes"/>
      <point x="193" y="-154"/>
      <point x="188" y="-146"/>
      <point x="173" y="-132" type="curve" smooth="yes"/>
      <point x="154" y="-115"/>
      <point x="148" y="-104"/>
      <point x="148" y="-87" type="curve" smooth="yes"/>
      <point x="148" y="-60"/>
      <point x="170" y="-40"/>
      <point x="199" y="-40" type="curve" smooth="yes"/>
      <point x="232" y="-40"/>
      <point x="257" y="-71"/>
      <point x="257" y="-111" type="curve" smooth="yes"/>
      <point x="257" y="-167"/>
      <point x="211" y="-223"/>
    </contour>
  </outline>
</glyph>
<glyph name="Lcaron" format="1">
  <advance width="556"/>
  <unicode hex="013D"/>
  <outline>
    <contour>
      <point x="403" y="653" type="line"/>
      <point x="403" y="637" type="line"/>
      <point x="343" y="633"/>
      <point x="317" y="614"/>
      <point x="302" y="563" type="curve" smooth="yes"/>
      <point x="179" y="120" type="line" smooth="yes"/>
      <point x="174" y="101"/>
      <point x="169" y="77"/>
      <point x="169" y="70" type="curve" smooth="yes"/>
      <point x="169" y="44"/>
      <point x="194" y="36"/>
      <point x="270" y="36" type="curve" smooth="yes"/>
      <point x="357" y="36"/>
      <point x="398" y="42"/>
      <point x="433" y="59" type="curve" smooth="yes"/>
      <point x="477" y="81"/>
      <point x="504" y="113"/>
      <point x="539" y="185" type="curve"/>
      <point x="559" y="179" type="line"/>
      <point x="501" y="0" type="line"/>
      <point x="-8" y="0" type="line"/>
      <point x="-8" y="16" type="line"/>
      <point x="48" y="26"/>
      <point x="55" y="32"/>
      <point x="73" y="90" type="curve"/>
      <point x="196" y="532" type="line" smooth="yes"/>
      <point x="203" y="557"/>
      <point x="207" y="580"/>
      <point x="207" y="594" type="curve" smooth="yes"/>
      <point x="207" y="623"/>
      <point x="192" y="631"/>
      <point x="130" y="637" type="curve"/>
      <point x="130" y="653" type="line"/>
    </contour>
    <contour>
      <point x="466" y="436" type="curve"/>
      <point x="457" y="453" type="line"/>
      <point x="509" y="488"/>
      <point x="532" y="515"/>
      <point x="532" y="541" type="curve" smooth="yes"/>
      <point x="532" y="551"/>
      <point x="526" y="560"/>
      <point x="512" y="574" type="curve"/>
      <point x="493" y="591"/>
      <point x="487" y="602"/>
      <point x="487" y="619" type="curve" smooth="yes"/>
      <point x="487" y="646"/>
      <point x="509" y="666"/>
      <point x="538" y="666" type="curve" smooth="yes"/>
      <point x="571" y="666"/>
      <point x="596" y="635"/>
      <point x="596" y="595" type="curve" smooth="yes"/>
      <point x="596" y="539"/>
      <point x="550" y="482"/>
    </contour>
  </outline>
</glyph>
<glyph name="Ncommaaccent" format="1">
  <advance width="667"/>
  <unicode hex="0145"/>
  <outline>
    <contour>
      <point x="727" y="653" type="line"/>
      <point x="727" y="637" type="line"/>
      <point x="664" y="623"/>
      <point x="660" y="617"/>
      <point x="623" y="488" type="curve" smooth="yes"/>
      <point x="479" y="-15" type="line"/>
      <point x="461" y="-15" type="line"/>
      <point x="231" y="535" type="line"/>
      <point x="117" y="113" type="line" smooth="yes"/>
      <point x="111" y="92"/>
      <point x="108" y="72"/>
      <point x="108" y="59" type="curve" smooth="yes"/>
      <point x="108" y="31"/>
      <point x="127" y="20"/>
      <point x="178" y="16" type="curve"/>
      <point x="178" y="0" type="line"/>
      <point x="-20" y="0" type="line"/>
      <point x="-20" y="16" type="line"/>
      <point x="37" y="24"/>
      <point x="45" y="36"/>
      <point x="83" y="164" type="curve"/>
      <point x="202" y="581" type="line"/>
      <point x="184" y="620"/>
      <point x="163" y="633"/>
      <point x="116" y="637" type="curve"/>
      <point x="116" y="653" type="line"/>
      <point x="277" y="653" type="line"/>
      <point x="485" y="154" type="line"/>
      <point x="587" y="534" type="line" smooth="yes"/>
      <point x="587" y="535"/>
      <point x="588" y="539"/>
      <point x="589" y="542" type="curve" smooth="yes"/>
      <point x="596" y="562"/>
      <point x="598" y="574"/>
      <point x="598" y="586" type="curve" smooth="yes"/>
      <point x="598" y="622"/>
      <point x="585" y="632"/>
      <point x="528" y="637" type="curve"/>
      <point x="528" y="653" type="line"/>
    </contour>
    <contour>
      <point x="183" y="-270" type="curve"/>
      <point x="174" y="-253" type="line"/>
      <point x="226" y="-218"/>
      <point x="249" y="-191"/>
      <point x="249" y="-164" type="curve" smooth="yes"/>
      <point x="249" y="-154"/>
      <point x="244" y="-146"/>
      <point x="229" y="-132" type="curve" smooth="yes"/>
      <point x="210" y="-115"/>
      <point x="204" y="-104"/>
      <point x="204" y="-87" type="curve" smooth="yes"/>
      <point x="204" y="-60"/>
      <point x="226" y="-40"/>
      <point x="255" y="-40" type="curve" smooth="yes"/>
      <point x="288" y="-40"/>
      <point x="313" y="-71"/>
      <point x="313" y="-111" type="curve" smooth="yes"/>
      <point x="313" y="-167"/>
      <point x="267" y="-223"/>
    </contour>
  </outline>
</glyph>
<glyph name="Ncaron" format="1">
  <advance width="667"/>
  <unicode hex="0147"/>
  <outline>
    <contour>
      <point x="727" y="653" type="line"/>
      <point x="727" y="637" type="line"/>
      <point x="664" y="623"/>
      <point x="660" y="617"/>
      <point x="623" y="488" type="curve" smooth="yes"/>
      <point x="479" y="-15" type="line"/>
      <point x="461" y="-15" type="line"/>
      <point x="231" y="535" type="line"/>
      <point x="117" y="113" type="line" smooth="yes"/>
      <point x="111" y="92"/>
      <point x="108" y="72"/>
      <point x="108" y="59" type="curve" smooth="yes"/>
      <point x="108" y="31"/>
      <point x="127" y="20"/>
      <point x="178" y="16" type="curve"/>
      <point x="178" y="0" type="line"/>
      <point x="-20" y="0" type="line"/>
      <point x="-20" y="16" type="line"/>
      <point x="37" y="24"/>
      <point x="45" y="36"/>
      <point x="83" y="164" type="curve"/>
      <point x="202" y="581" type="line"/>
      <point x="184" y="620"/>
      <point x="163" y="633"/>
      <point x="116" y="637" type="curve"/>
      <point x="116" y="653" type="line"/>
      <point x="277" y="653" type="line"/>
      <point x="485" y="154" type="line"/>
      <point x="587" y="534" type="line" smooth="yes"/>
      <point x="587" y="535"/>
      <point x="588" y="539"/>
      <point x="589" y="542" type="curve" smooth="yes"/>
      <point x="596" y="562"/>
      <point x="598" y="574"/>
      <point x="598" y="586" type="curve" smooth="yes"/>
      <point x="598" y="622"/>
      <point x="585" y="632"/>
      <point x="528" y="637" type="curve"/>
      <point x="528" y="653" type="line"/>
    </contour>
    <contour>
      <point x="633" y="873" type="line"/>
      <point x="470" y="704" type="line"/>
      <point x="424" y="704" type="line"/>
      <point x="328" y="873" type="line"/>
      <point x="365" y="873" type="line"/>
      <point x="455" y="768" type="line"/>
      <point x="597" y="873" type="line"/>
    </contour>
  </outline>
</glyph>
<glyph name="Ohungarumlaut" format="1">
  <advance width="722"/>
  <unicode hex="0150"/>
  <outline>
    <contour>
      <point x="474" y="666" type="curve" smooth="yes"/>
      <point x="608" y="666"/>
      <point x="706" y="559"/>
      <point x="699" y="418" type="curve" smooth="yes"/>
      <point x="688" y="192"/>
      <point x="486" y="-18"/>
      <point x="278" y="-18" type="curve" smooth="yes"/>
      <point x="151" y="-18"/>
      <point x="60" y="81"/>
      <point x="60" y="221" type="curve" smooth="yes"/>
      <point x="60" y="338"/>
      <point x="119" y="460"/>
      <point x="220" y="553" type="curve" smooth="yes"/>
      <point x="300" y="626"/>
      <point x="390" y="666"/>
    </contour>
    <contour>
      <point x="465" y="633" type="curve" smooth="yes"/>
      <point x="392" y="633"/>
      <point x="331" y="595"/>
      <point x="275" y="514" type="curve" smooth="yes"/>
      <point x="215" y="427"/>
      <point x="165" y="278"/>
      <point x="165" y="184" type="curve" smooth="yes"/>
      <point x="165" y="76"/>
      <point x="211" y="15"/>
      <point x="295" y="15" type="curve" smooth="yes"/>
      <point x="365" y="15"/>
      <point x="427" y="54"/>
      <point x="482" y="133" type="curve" smooth="yes"/>
      <point x="547" y="227"/>
      <point x="594" y="373"/>
      <point x="594" y="481" type="curve" smooth="yes"/>
      <point x="594" y="575"/>
      <point x="544" y="633"/>
    </contour>
    <contour>
      <point x="288" y="706" type="line"/>
      <point x="450" y="866" type="line" smooth="yes"/>
      <point x="457" y="872"/>
      <point x="465" y="876"/>
      <point x="475" y="876" type="curve" smooth="yes"/>
      <point x="495" y="876"/>
      <point x="511" y="860"/>
      <point x="511" y="840" type="curve" smooth="yes"/>
      <point x="511" y="828"/>
      <point x="506" y="819"/>
      <point x="494" y="812" type="curve" smooth="yes"/>
      <point x="323" y="706" type="line"/>
    </contour>
    <contour>
      <point x="458" y="706" type="line"/>
      <point x="620" y="866" type="line" smooth="yes"/>
      <point x="627" y="872"/>
      <point x="635" y="876"/>
      <point x="645" y="876" type="curve" smooth="yes"/>
      <point x="665" y="876"/>
      <point x="681" y="860"/>
      <point x="681" y="840" type="curve" smooth="yes"/>
      <point x="681" y="828"/>
      <point x="676" y="819"/>
      <point x="664" y="812" type="curve" smooth="yes"/>
      <point x="493" y="706" type="line"/>
    </contour>
  </outline>
</glyph>
<glyph name="Racute" format="1">
  <advance width="611"/>
  <unicode hex="0154"/>
  <outline>
    <contour>
      <point x="567" y="16" type="curve"/>
      <point x="567" y="0" type="line"/>
      <point x="419" y="0" type="line"/>
      <point x="296" y="324" type="line"/>
      <point x="231" y="329" type="line"/>
      <point x="175" y="120" type="line" smooth="yes"/>
      <point x="166" y="85"/>
      <point x="163" y="72"/>
      <point x="163" y="62" type="curve" smooth="yes"/>
      <point x="163" y="29"/>
      <point x="170" y="24"/>
      <point x="231" y="16" type="curve"/>
      <point x="231" y="0" type="line"/>
      <point x="-13" y="0" type="line"/>
      <point x="-13" y="16" type="line"/>
      <point x="43" y="25"/>
      <point x="50" y="31"/>
      <point x="68" y="90" type="curve"/>
      <point x="191" y="532" type="line" smooth="yes"/>
      <point x="198" y="559"/>
      <point x="203" y="583"/>
      <point x="203" y="595" type="curve" smooth="yes"/>
      <point x="203" y="606"/>
      <point x="197" y="618"/>
      <point x="189" y="623" type="curve" smooth="yes"/>
      <point x="179" y="630"/>
      <point x="174" y="631"/>
      <point x="132" y="637" type="curve"/>
      <point x="132" y="653" type="line"/>
      <point x="380" y="653" type="line" smooth="yes"/>
      <point x="514" y="653"/>
      <point x="588" y="602"/>
      <point x="588" y="509" type="curve" smooth="yes"/>
      <point x="588" y="464"/>
      <point x="570" y="425"/>
      <point x="537" y="396" type="curve" smooth="yes"/>
      <point x="501" y="364"/>
      <point x="468" y="350"/>
      <point x="391" y="333" type="curve"/>
      <point x="484" y="88" type="line" smooth="yes"/>
      <point x="503" y="36"/>
      <point x="523" y="19"/>
    </contour>
    <contour>
      <point x="308" y="595" type="curve" smooth="yes"/>
      <point x="243" y="366" type="line"/>
      <point x="267" y="362"/>
      <point x="278" y="361"/>
      <point x="294" y="361" type="curve" smooth="yes"/>
      <point x="419" y="361"/>
      <point x="483" y="412"/>
      <point x="483" y="511" type="curve" smooth="yes"/>
      <point x="483" y="585"/>
      <point x="442" y="623"/>
      <point x="359" y="623" type="curve" smooth="yes"/>
      <point x="327" y="623"/>
      <point x="314" y="616"/>
    </contour>
    <contour>
      <point x="319" y="706" type="line"/>
      <point x="481" y="866" type="line" smooth="yes"/>
      <point x="488" y="872"/>
      <point x="496" y="876"/>
      <point x="506" y="876" type="curve" smooth="yes"/>
      <point x="526" y="876"/>
      <point x="542" y="860"/>
      <point x="542" y="840" type="curve" smooth="yes"/>
      <point x="542" y="828"/>
      <point x="537" y="819"/>
      <point x="525" y="812" type="curve" smooth="yes"/>
      <point x="354" y="706" type="line"/>
    </contour>
  </outline>
</glyph>
<glyph name="Scircumflex" format="1">
  <advance width="500"/>
  <unicode hex="015C"/>
  <outline>
    <contour>
      <point x="441" y="872" type="line"/>
      <point x="529" y="703" type="line"/>
      <point x="493" y="703" type="line"/>
      <point x="411" y="807" type="line"/>
      <point x="274" y="703" type="line"/>
      <point x="235" y="703" type="line"/>
      <point x="392" y="872" type="line"/>
    </contour>
    <contour>
      <point x="468" y="468" type="line"/>
      <point x="450" y="471" type="line"/>
      <point x="448" y="537"/>
      <point x="440" y="571"/>
      <point x="418" y="596" type="curve" smooth="yes"/>
      <point x="397" y="620"/>
      <point x="366" y="633"/>
      <point x="329" y="633" type="curve" smooth="yes"/>
      <point x="261" y="633"/>
      <point x="219" y="594"/>
      <point x="219" y="531" type="curve" smooth="yes"/>
      <point x="219" y="482"/>
      <point x="228" y="468"/>
      <point x="318" y="377" type="curve" smooth="yes"/>
      <point x="408" y="286"/>
      <point x="431" y="247"/>
      <point x="431" y="182" type="curve" smooth="yes"/>
      <point x="431" y="69"/>
      <point x="344" y="-18"/>
      <point x="229" y="-18" type="curve" smooth="yes"/>
      <point x="198" y="-18"/>
      <point x="171" y="-12"/>
      <point x="125" y="5" type="curve" smooth="yes"/>
      <point x="99" y="14"/>
      <point x="84" y="18"/>
      <point x="73" y="18" type="curve" smooth="yes"/>
      <point x="53" y="18"/>
      <point x="42" y="8"/>
      <point x="35" y="-15" type="curve"/>
      <point x="17" y="-15" type="line"/>
      <point x="51" y="208" type="line"/>
      <point x="71" y="206" type="line"/>
      <point x="70" y="199"/>
      <point x="69" y="191"/>
      <point x="69" y="183" type="curve" smooth="yes"/>
      <point x="69" y="88"/>
      <point x="132" y="17"/>
      <point x="215" y="17" type="curve" smooth="yes"/>
      <point x="288" y="17"/>
      <point x="344" y="75"/>
      <point x="344" y="150" type="curve" smooth="yes"/>
      <point x="344" y="193"/>
      <point x="331" y="219"/>
      <point x="284" y="268" type="curve" smooth="yes"/>
      <point x="277" y="276"/>
      <point x="263" y="291"/>
      <point x="245" y="310" type="curve" smooth="yes"/>
      <point x="228" y="329"/>
      <point x="215" y="343"/>
      <point x="206" y="352" type="curve" smooth="yes"/>
      <point x="146" y="416"/>
      <point x="131" y="445"/>
      <point x="131" y="499" type="curve" smooth="yes"/>
      <point x="131" y="597"/>
      <point x="205" y="666"/>
      <point x="309" y="666" type="curve" smooth="yes"/>
      <point x="340" y="666"/>
      <point x="372" y="661"/>
      <point x="394" y="652" type="curve"/>
      <point x="417" y="644"/>
      <point x="428" y="641"/>
      <point x="440" y="641" type="curve" smooth="yes"/>
      <point x="462" y="641"/>
      <point x="471" y="646"/>
      <point x="485" y="667" type="curve"/>
      <point x="508" y="667" type="line"/>
    </contour>
  </outline>
</glyph>
<glyph name="Tcommaaccent" format="1">
  <advance width="556"/>
  <unicode hex="0162"/>
  <outline>
    <contour>
      <point x="633" y="653" type="line"/>
      <point x="589" y="490" type="line"/>
      <point x="572" y="492" type="line"/>
      <point x="574" y="509"/>
      <point x="575" y="524"/>
      <point x="575" y="537" type="curve" smooth="yes"/>
      <point x="575" y="593"/>
      <point x="543" y="618"/>
      <point x="471" y="618" type="curve" smooth="yes"/>
      <point x="416" y="618" type="line"/>
      <point x="277" y="120" type="line" smooth="yes"/>
      <point x="268" y="86"/>
      <point x="265" y="74"/>
      <point x="265" y="61" type="curve" smooth="yes"/>
      <point x="265" y="31"/>
      <point x="277" y="22"/>
      <point x="317" y="19" type="curve" smooth="yes"/>
      <point x="323" y="19"/>
      <point x="338" y="17"/>
      <point x="355" y="16" type="curve"/>
      <point x="355" y="0" type="line"/>
      <point x="65" y="0" type="line"/>
      <point x="65" y="16" type="line"/>
      <point x="131" y="21"/>
      <point x="155" y="37"/>
      <point x="171" y="90" type="curve"/>
      <point x="315" y="618" type="line"/>
      <point x="162" y="620"/>
      <point x="130" y="603"/>
      <point x="77" y="495" type="curve"/>
      <point x="59" y="499" type="line"/>
      <point x="101" y="653" type="line"/>
    </contour>
    <contour>
      <point x="107" y="-270" type="curve"/>
      <point x="98" y="-253" type="line"/>
      <point x="150" y="-218"/>
      <point x="173" y="-191"/>
      <point x="173" y="-164" type="curve" smooth="yes"/>
      <point x="173" y="-154"/>
      <point x="168" y="-146"/>
      <point x="153" y="-132" type="curve" smooth="yes"/>
      <point x="134" y="-115"/>
      <point x="128" y="-104"/>
      <point x="128" y="-87" type="curve" smooth="yes"/>
      <point x="128" y="-60"/>
      <point x="150" y="-40"/>
      <point x="179" y="-40" type="curve" smooth="yes"/>
      <point x="212" y="-40"/>
      <point x="237" y="-71"/>
      <point x="237" y="-111" type="curve" smooth="yes"/>
      <point x="237" y="-167"/>
      <point x="191" y="-223"/>
    </contour>
  </outline>
</glyph>
<glyph name="tcommaaccent" format="1">
  <advance width="278"/>
  <unicode hex="0163"/>
  <outline>
    <contour>
      <point x="296" y="428" type="line"/>
      <point x="291" y="396" type="line"/>
      <point x="207" y="396" type="line"/>
      <point x="119" y="63" type="line" smooth="yes"/>
      <point x="118" y="60"/>
      <point x="118" y="59"/>
      <point x="118" y="58" type="curve" smooth="yes"/>
      <point x="118" y="46"/>
      <point x="124" y="38"/>
      <point x="133" y="38" type="curve" smooth="yes"/>
      <point x="149" y="38"/>
      <point x="165" y="54"/>
      <point x="214" y="117" type="curve"/>
      <point x="227" y="110" type="line"/>
      <point x="164" y="17"/>
      <point x="131" y="-11"/>
      <point x="85" y="-11" type="curve" smooth="yes"/>
      <point x="58" y="-11"/>
      <point x="37" y="5"/>
      <point x="37" y="27" type="curve" smooth="yes"/>
      <point x="37" y="35"/>
      <point x="45" y="70"/>
      <point x="54" y="100" type="curve" smooth="yes"/>
      <point x="57" y="109"/>
      <point x="58" y="112"/>
      <point x="60" y="121" type="curve" smooth="yes"/>
      <point x="132" y="396" type="line"/>
      <point x="58" y="396" type="line"/>
      <point x="57" y="399"/>
      <point x="57" y="401"/>
      <point x="57" y="402" type="curve" smooth="yes"/>
      <point x="57" y="413"/>
      <point x="64" y="419"/>
      <point x="89" y="427" type="curve" smooth="yes"/>
      <point x="121" y="436"/>
      <point x="183" y="486"/>
      <point x="222" y="537" type="curve" smooth="yes"/>
      <point x="228" y="545"/>
      <point x="231" y="546"/>
      <point x="237" y="546" type="curve" smooth="yes"/>
      <point x="242" y="546"/>
      <point x="245" y="543"/>
      <point x="245" y="536" type="curve" smooth="yes"/>
      <point x="245" y="535"/>
      <point x="245" y="533"/>
      <point x="244" y="531" type="curve" smooth="yes"/>
      <point x="216" y="428" type="line"/>
    </contour>
    <contour>
      <point x="-12" y="-270" type="curve"/>
      <point x="-21" y="-253" type="line"/>
      <point x="31" y="-218"/>
      <point x="54" y="-191"/>
      <point x="54" y="-164" type="curve" smooth="yes"/>
      <point x="54" y="-154"/>
      <point x="49" y="-146"/>
      <point x="34" y="-132" type="curve" smooth="yes"/>
      <point x="15" y="-115"/>
      <point x="9" y="-104"/>
      <point x="9" y="-87" type="curve" smooth="yes"/>
      <point x="9" y="-60"/>
      <point x="31" y="-40"/>
      <point x="60" y="-40" type="curve" smooth="yes"/>
      <point x="93" y="-40"/>
      <point x="118" y="-71"/>
      <point x="118" y="-111" type="curve" smooth="yes"/>
      <point x="118" y="-167"/>
      <point x="72" y="-223"/>
    </contour>
  </outline>
</glyph>
<glyph name="Tbar" format="1">
  <advance width="556"/>
  <unicode hex="0166"/>
  <outline>
    <contour>
      <point x="101" y="653" type="line"/>
      <point x="633" y="653" type="line"/>
      <point x="589" y="490" type="line"/>
      <point x="572" y="492" type="line"/>
      <point x="574" y="509"/>
      <point x="575" y="524"/>
      <point x="575" y="537" type="curve" smooth="yes"/>
      <point x="575" y="593"/>
      <point x="543" y="618"/>
      <point x="471" y="618" type="curve" smooth="yes"/>
      <point x="416" y="618" type="line"/>
      <point x="345" y="362" type="line"/>
      <point x="443" y="362" type="line"/>
      <point x="432" y="311" type="line"/>
      <point x="330" y="311" type="line"/>
      <point x="277" y="120" type="line" smooth="yes"/>
      <point x="268" y="86"/>
      <point x="265" y="74"/>
      <point x="265" y="61" type="curve" smooth="yes"/>
      <point x="265" y="31"/>
      <point x="277" y="22"/>
      <point x="317" y="19" type="curve" smooth="yes"/>
      <point x="323" y="19"/>
      <point x="338" y="17"/>
      <point x="355" y="16" type="curve"/>
      <point x="355" y="0" type="line"/>
      <point x="65" y="0" type="line"/>
      <point x="65" y="16" type="line"/>
      <point x="131" y="21"/>
      <point x="155" y="37"/>
      <point x="171" y="90" type="curve"/>
      <point x="231" y="311" type="line"/>
      <point x="131" y="311" type="line"/>
      <point x="142" y="362" type="line"/>
      <point x="245" y="362" type="line"/>
      <point x="315" y="618" type="line"/>
      <point x="162" y="620"/>
      <point x="130" y="603"/>
      <point x="77" y="495" type="curve"/>
      <point x="59" y="499" type="line"/>
    </contour>
  </outline>
</glyph>
<glyph name="tbar" format="1">
  <advance width="278"/>
  <unicode hex="0167"/>
  <outline>
    <contour>
      <point x="216" y="428" type="line"/>
      <point x="296" y="428" type="line"/>
      <point x="291" y="396" type="line"/>
      <point x="207" y="396" type="line"/>
      <point x="179" y="290" type="line"/>
      <point x="270" y="290" type="line"/>
      <point x="258" y="239" type="line"/>
      <point x="166" y="239" type="line"/>
      <point x="119" y="63" type="line" smooth="yes"/>
      <point x="118" y="60"/>
      <point x="118" y="59"/>
      <point x="118" y="58" type="curve" smooth="yes"/>
      <point x="118" y="46"/>
      <point x="124" y="38"/>
      <point x="133" y="38" type="curve" smooth="yes"/>
      <point x="149" y="38"/>
      <point x="165" y="54"/>
      <point x="214" y="117" type="curve"/>
      <point x="227" y="110" type="line"/>
      <point x="164" y="17"/>
      <point x="131" y="-11"/>
      <point x="85" y="-11" type="curve" smooth="yes"/>
      <point x="58" y="-11"/>
      <point x="37" y="5"/>
      <point x="37" y="27" type="curve" smooth="yes"/>
      <point x="37" y="35"/>
      <point x="45" y="70"/>
      <point x="54" y="100" type="curve" smooth="yes"/>
      <point x="57" y="109"/>
      <point x="58" y="112"/>
      <point x="60" y="121" type="curve" smooth="yes"/>
      <point x="91" y="239" type="line"/>
      <point x="13" y="239" type="line"/>
      <point x="25" y="290" type="line"/>
      <point x="104" y="290" type="line"/>
      <point x="132" y="396" type="line"/>
      <point x="58" y="396" type="line"/>
      <point x="57" y="399"/>
      <point x="57" y="401"/>
      <point x="57" y="402" type="curve" smooth="yes"/>
      <point x="57" y="413"/>
      <point x="64" y="419"/>
      <point x="89" y="427" type="curve" smooth="yes"/>
      <point x="121" y="436"/>
      <point x="183" y="486"/>
      <point x="222" y="537" type="curve" smooth="yes"/>
      <point x="228" y="545"/>
      <point x="231" y="546"/>
      <point x="237" y="546" type="curve" smooth="yes"/>
      <point x="242" y="546"/>
      <point x="245" y="543"/>
      <point x="245" y="536" type="curve" smooth="yes"/>
      <point x="245" y="535"/>
      <point x="245" y="533"/>
      <point x="244" y="531" type="curve" smooth="yes"/>
    </contour>
  </outline>
</glyph>
<glyph name="Utilde" format="1">
  <advance width="722"/>
  <unicode hex="0168"/>
  <outline>
    <contour>
      <point x="613" y="810" type="curve"/>
      <point x="641" y="810" type="line"/>
      <point x="627" y="743"/>
      <point x="594" y="706"/>
      <point x="546" y="706" type="curve" smooth="yes"/>
      <point x="534" y="706"/>
      <point x="515" y="711"/>
      <point x="489" y="721" type="curve" smooth="yes"/>
      <point x="435" y="743"/>
      <point x="411" y="750"/>
      <point x="394" y="750" type="curve" smooth="yes"/>
      <point x="369" y="750"/>
      <point x="353" y="735"/>
      <point x="343" y="703" type="curve"/>
      <point x="314" y="703" type="line"/>
      <point x="334" y="780"/>
      <point x="362" y="809"/>
      <point x="414" y="809" type="curve" smooth="yes"/>
      <point x="436" y="809"/>
      <point x="462" y="802"/>
      <point x="500" y="785" type="curve" smooth="yes"/>
      <point x="530" y="771"/>
      <point x="547" y="766"/>
      <point x="562" y="766" type="curve" smooth="yes"/>
      <point x="589" y="766"/>
      <point x="602" y="777"/>
    </contour>
    <contour>
      <point x="765" y="653" type="line"/>
      <point x="765" y="637" type="line"/>
      <point x="703" y="623"/>
      <point x="699" y="618"/>
      <point x="661" y="488" type="curve" smooth="yes"/>
      <point x="578" y="203" type="line" smooth="yes"/>
      <point x="534" y="53"/>
      <point x="451" y="-18"/>
      <point x="320" y="-18" type="curve" smooth="yes"/>
      <point x="194" y="-18"/>
      <point x="102" y="51"/>
      <point x="102" y="147" type="curve" smooth="yes"/>
      <point x="102" y="187"/>
      <point x="115" y="251"/>
      <point x="145" y="359" type="curve" smooth="yes"/>
      <point x="198" y="551" type="line" smooth="yes"/>
      <point x="202" y="568"/>
      <point x="205" y="584"/>
      <point x="205" y="596" type="curve" smooth="yes"/>
      <point x="205" y="625"/>
      <point x="194" y="631"/>
      <point x="127" y="637" type="curve"/>
      <point x="127" y="653" type="line"/>
      <point x="400" y="653" type="line"/>
      <point x="400" y="637" type="line"/>
      <point x="332" y="630"/>
      <point x="316" y="616"/>
      <point x="295" y="546" type="curve" smooth="yes"/>
      <point x="294" y="541"/>
      <point x="292" y="534"/>
      <point x="290" y="527" type="curve" smooth="yes"/>
      <point x="223" y="296"/>
      <point x="192" y="175"/>
      <point x="192" y="141" type="curve" smooth="yes"/>
      <point x="192" y="71"/>
      <point x="249" y="23"/>
      <point x="332" y="23" type="curve" smooth="yes"/>
      <point x="402" y="23"/>
      <point x="456" y="54"/>
      <point x="495" y="116" type="curve" smooth="yes"/>
      <point x="517" y="150"/>
      <point x="532" y="190"/>
      <point x="550" y="255" type="curve" smooth="yes"/>
      <point x="555" y="274"/>
      <point x="559" y="291"/>
      <point x="563" y="304" type="curve" smooth="yes"/>
      <point x="611" y="473"/>
      <point x="637" y="575"/>
      <point x="637" y="591" type="curve" smooth="yes"/>
      <point x="637" y="604"/>
      <point x="630" y="618"/>
      <point x="620" y="624" type="curve" smooth="yes"/>
      <point x="608" y="632"/>
      <point x="598" y="634"/>
      <point x="566" y="637" type="curve"/>
      <point x="566" y="653" type="line"/>
    </contour>
  </outline>
</glyph>
<glyph name="utilde" format="1">
  <advance width="500"/>
  <unicode hex="0169"/>
  <outline>
    <contour>
      <point x="481" y="598" type="curve"/>
      <point x="509" y="598" type="line"/>
      <point x="495" y="531"/>
      <point x="462" y="494"/>
      <point x="414" y="494" type="curve" smooth="yes"/>
      <point x="402" y="494"/>
      <point x="383" y="499"/>
      <point x="357" y="509" type="curve" smooth="yes"/>
      <point x="303" y="531"/>
      <point x="279" y="538"/>
      <point x="262" y="538" type="curve" smooth="yes"/>
      <point x="237" y="538"/>
      <point x="221" y="523"/>
      <point x="211" y="491" type="curve"/>
      <point x="182" y="491" type="line"/>
      <point x="202" y="568"/>
      <point x="230" y="597"/>
      <point x="282" y="597" type="curve" smooth="yes"/>
      <point x="304" y="597"/>
      <point x="330" y="590"/>
      <point x="368" y="573" type="curve" smooth="yes"/>
      <point x="398" y="559"/>
      <point x="415" y="554"/>
      <point x="430" y="554" type="curve" smooth="yes"/>
      <point x="457" y="554"/>
      <point x="470" y="565"/>
    </contour>
    <contour>
      <point x="461" y="117" type="curve"/>
      <point x="475" y="108" type="line"/>
      <point x="407" y="11"/>
      <point x="384" y="-9"/>
      <point x="337" y="-9" type="curve" smooth="yes"/>
      <point x="307" y="-9"/>
      <point x="289" y="9"/>
      <point x="289" y="39" type="curve" smooth="yes"/>
      <point x="289" y="60"/>
      <point x="305" y="129"/>
      <point x="334" y="236" type="curve"/>
      <point x="219" y="43"/>
      <point x="166" y="-11"/>
      <point x="95" y="-11" type="curve" smooth="yes"/>
      <point x="60" y="-11"/>
      <point x="42" y="8"/>
      <point x="42" y="44" type="curve" smooth="yes"/>
      <point x="42" y="62"/>
      <point x="49" y="96"/>
      <point x="67" y="167" type="curve" smooth="yes"/>
      <point x="104" y="309" type="line" smooth="yes"/>
      <point x="113" y="343"/>
      <point x="118" y="368"/>
      <point x="118" y="376" type="curve" smooth="yes"/>
      <point x="118" y="383"/>
      <point x="113" y="392"/>
      <point x="107" y="394" type="curve"/>
      <point x="98" y="399"/>
      <point x="96" y="400"/>
      <point x="58" y="400" type="curve"/>
      <point x="58" y="414" type="line"/>
      <point x="115" y="421"/>
      <point x="151" y="428"/>
      <point x="208" y="441" type="curve"/>
      <point x="211" y="439" type="line"/>
      <point x="120" y="76" type="line" smooth="yes"/>
      <point x="119" y="73"/>
      <point x="119" y="71"/>
      <point x="119" y="67" type="curve" smooth="yes"/>
      <point x="119" y="52"/>
      <point x="128" y="42"/>
      <point x="140" y="42" type="curve" smooth="yes"/>
      <point x="172" y="42"/>
      <point x="221" y="93"/>
      <point x="281" y="188" type="curve" smooth="yes"/>
      <point x="327" y="261"/>
      <point x="334" y="277"/>
      <point x="391" y="432" type="curve"/>
      <point x="465" y="432" type="line"/>
      <point x="386" y="133" type="line" smooth="yes"/>
      <point x="367" y="61"/>
      <point x="367" y="61"/>
      <point x="367" y="55" type="curve" smooth="yes"/>
      <point x="367" y="44"/>
      <point x="371" y="38"/>
      <point x="378" y="38" type="curve" smooth="yes"/>
      <point x="394" y="38"/>
      <point x="409" y="52"/>
    </contour>
  </outline>
</glyph>
<glyph name="wcircumflex" format="1">
  <advance width="667"/>
  <unicode hex="0175"/>
  <outline>
    <contour>
      <point x="416" y="660" type="line"/>
      <point x="504" y="491" type="line"/>
      <point x="468" y="491" type="line"/>
      <point x="386" y="595" type="line"/>
      <point x="249" y="491" type="line"/>
      <point x="210" y="491" type="line"/>
      <point x="367" y="660" type="line"/>
    </contour>
    <contour>
      <point x="16" y="404" type="line"/>
      <point x="16" y="417" type="line"/>
      <point x="28" y="419"/>
      <point x="38" y="421"/>
      <point x="42" y="421" type="curve" smooth="yes"/>
      <point x="75" y="426"/>
      <point x="99" y="430"/>
      <point x="110" y="434" type="curve" smooth="yes"/>
      <point x="123" y="438"/>
      <point x="134" y="441"/>
      <point x="140" y="441" type="curve" smooth="yes"/>
      <point x="152" y="441"/>
      <point x="154" y="433"/>
      <point x="165" y="371" type="curve"/>
      <point x="176" y="301"/>
      <point x="187" y="196"/>
      <point x="190" y="126" type="curve"/>
      <point x="382" y="430" type="line" smooth="yes"/>
      <point x="387" y="438"/>
      <point x="390" y="440"/>
      <point x="395" y="440" type="curve" smooth="yes"/>
      <point x="401" y="440"/>
      <point x="403" y="437"/>
      <point x="403" y="426" type="curve" smooth="yes"/>
      <point x="435" y="74" type="line"/>
      <point x="566" y="237"/>
      <point x="600" y="291"/>
      <point x="600" y="334" type="curve" smooth="yes"/>
      <point x="600" y="346"/>
      <point x="594" y="356"/>
      <point x="578" y="371" type="curve" smooth="yes"/>
      <point x="562" y="386"/>
      <point x="557" y="394"/>
      <point x="557" y="407" type="curve" smooth="yes"/>
      <point x="557" y="428"/>
      <point x="572" y="441"/>
      <point x="596" y="441" type="curve" smooth="yes"/>
      <point x="626" y="441"/>
      <point x="648" y="419"/>
      <point x="648" y="389" type="curve" smooth="yes"/>
      <point x="648" y="325"/>
      <point x="572" y="199"/>
      <point x="436" y="36" type="curve" smooth="yes"/>
      <point x="432" y="31"/>
      <point x="428" y="26"/>
      <point x="427" y="25" type="curve" smooth="yes"/>
      <point x="400" y="-8"/>
      <point x="390" y="-18"/>
      <point x="382" y="-18" type="curve" smooth="yes"/>
      <point x="375" y="-18"/>
      <point x="373" y="-15"/>
      <point x="371" y="12" type="curve" smooth="yes"/>
      <point x="342" y="331" type="line"/>
      <point x="253" y="175" type="line" smooth="yes"/>
      <point x="223" y="122"/>
      <point x="203" y="87"/>
      <point x="198" y="76" type="curve" smooth="yes"/>
      <point x="162" y="7"/>
      <point x="145" y="-18"/>
      <point x="134" y="-18" type="curve" smooth="yes"/>
      <point x="125" y="-18"/>
      <point x="123" y="-10"/>
      <point x="121" y="29" type="curve" smooth="yes"/>
      <point x="117" y="117" type="line" smooth="yes"/>
      <point x="114" y="196"/>
      <point x="102" y="302"/>
      <point x="90" y="359" type="curve" smooth="yes"/>
      <point x="83" y="397"/>
      <point x="73" y="407"/>
      <point x="45" y="405" type="curve" smooth="yes"/>
      <point x="40" y="404"/>
      <point x="37" y="404"/>
      <point x="36" y="404" type="curve" smooth="yes"/>
    </contour>
  </outline>
</glyph>
<glyph name="Ycircumflex" format="1">
  <advance width="556"/>
  <unicode hex="0176"/>
  <outline>
    <contour>
      <point x="437" y="872" type="line"/>
      <point x="525" y="703" type="line"/>
      <point x="489" y="703" type="line"/>
      <point x="407" y="807" type="line"/>
      <point x="270" y="703" type="line"/>
      <point x="231" y="703" type="line"/>
      <point x="388" y="872" type="line"/>
    </contour>
    <contour>
      <point x="91" y="637" type="curve"/>
      <point x="91" y="653" type="line"/>
      <point x="330" y="653" type="line"/>
      <point x="330" y="637" type="line"/>
      <point x="270" y="631"/>
      <point x="258" y="625"/>
      <point x="258" y="601" type="curve" smooth="yes"/>
      <point x="258" y="586"/>
      <point x="269" y="543"/>
      <point x="294" y="457" type="curve" smooth="yes"/>
      <point x="310" y="404"/>
      <point x="313" y="391"/>
      <point x="325" y="347" type="curve"/>
      <point x="363" y="393" type="line"/>
      <point x="467" y="514"/>
      <point x="513" y="579"/>
      <point x="513" y="606" type="curve" smooth="yes"/>
      <point x="513" y="623"/>
      <point x="500" y="631"/>
      <point x="471" y="634" type="curve" smooth="yes"/>
      <point x="467" y="635"/>
      <point x="456" y="636"/>
      <point x="444" y="637" type="curve"/>
      <point x="444" y="653" type="line"/>
      <point x="633" y="653" type="line"/>
      <point x="633" y="637" type="line"/>
      <point x="603" y="623"/>
      <point x="595" y="616"/>
      <point x="563" y="576" type="curve" smooth="yes"/>
      <point x="344" y="306" type="line"/>
      <point x="315" y="205" type="line" smooth="yes"/>
      <point x="314" y="201"/>
      <point x="312" y="194"/>
      <point x="309" y="185" type="curve" smooth="yes"/>
      <point x="285" y="107"/>
      <point x="278" y="77"/>
      <point x="278" y="56" type="curve" smooth="yes"/>
      <point x="278" y="31"/>
      <point x="292" y="21"/>
      <point x="331" y="19" type="curve" smooth="yes"/>
      <point x="337" y="18"/>
      <point x="351" y="17"/>
      <point x="367" y="16" type="curve"/>
      <point x="367" y="0" type="line"/>
      <point x="78" y="0" type="line"/>
      <point x="78" y="16" type="line"/>
      <point x="144" y="20"/>
      <point x="166" y="36"/>
      <point x="183" y="90" type="curve"/>
      <point x="244" y="302" type="line"/>
      <point x="167" y="571" type="line"/>
      <point x="150" y="626"/>
      <point x="147" y="629"/>
    </contour>
  </outline>
</glyph>
<glyph name="Ydieresis" format="1">
  <advance width="556"/>
  <unicode hex="0178"/>
  <outline>
    <contour>
      <point x="91" y="637" type="curve"/>
      <point x="91" y="653" type="line"/>
      <point x="330" y="653" type="line"/>
      <point x="330" y="637" type="line"/>
      <point x="270" y="631"/>
      <point x="258" y="625"/>
      <point x="258" y="601" type="curve" smooth="yes"/>
      <point x="258" y="586"/>
      <point x="269" y="543"/>
      <point x="294" y="457" type="curve" smooth="yes"/>
      <point x="310" y="404"/>
      <point x="313" y="391"/>
      <point x="325" y="347" type="curve"/>
      <point x="363" y="393" type="line"/>
      <point x="467" y="514"/>
      <point x="513" y="579"/>
      <point x="513" y="606" type="curve" smooth="yes"/>
      <point x="513" y="623"/>
      <point x="500" y="631"/>
      <point x="471" y="634" type="curve" smooth="yes"/>
      <point x="467" y="635"/>
      <point x="456" y="636"/>
      <point x="444" y="637" type="curve"/>
      <point x="444" y="653" type="line"/>
      <point x="633" y="653" type="line"/>
      <point x="633" y="637" type="line"/>
      <point x="603" y="623"/>
      <point x="595" y="616"/>
      <point x="563" y="576" type="curve" smooth="yes"/>
      <point x="344" y="306" type="line"/>
      <point x="315" y="205" type="line" smooth="yes"/>
      <point x="314" y="201"/>
      <point x="312" y="194"/>
      <point x="309" y="185" type="curve" smooth="yes"/>
      <point x="285" y="107"/>
      <point x="278" y="77"/>
      <point x="278" y="56" type="curve" smooth="yes"/>
      <point x="278" y="31"/>
      <point x="292" y="21"/>
      <point x="331" y="19" type="curve" smooth="yes"/>
      <point x="337" y="18"/>
      <point x="351" y="17"/>
      <point x="367" y="16" type="curve"/>
      <point x="367" y="0" type="line"/>
      <point x="78" y="0" type="line"/>
      <point x="78" y="16" type="line"/>
      <point x="144" y="20"/>
      <point x="166" y="36"/>
      <point x="183" y="90" type="curve"/>
      <point x="244" y="302" type="line"/>
      <point x="167" y="571" type="line"/>
      <point x="150" y="626"/>
      <point x="147" y="629"/>
    </contour>
    <contour>
      <point x="288" y="818" type="curve" smooth="yes"/>
      <point x="313" y="818"/>
      <point x="336" y="794"/>
      <point x="336" y="769" type="curve" smooth="yes"/>
      <point x="336" y="742"/>
      <point x="314" y="720"/>
      <point x="287" y="720" type="curve" smooth="yes"/>
      <point x="260" y="720"/>
      <point x="238" y="742"/>
      <point x="238" y="770" type="curve" smooth="yes"/>
      <point x="238" y="796"/>
      <point x="260" y="818"/>
    </contour>
    <contour>
      <point x="488" y="818" type="curve" smooth="yes"/>
      <point x="513" y="818"/>
      <point x="536" y="794"/>
      <point x="536" y="769" type="curve" smooth="yes"/>
      <point x="536" y="742"/>
      <point x="514" y="720"/>
      <point x="487" y="720" type="curve" smooth="yes"/>
      <point x="460" y="720"/>
      <point x="438" y="742"/>
      <point x="438" y="770" type="curve" smooth="yes"/>
      <point x="438" y="796"/>
      <point x="460" y="818"/>
    </contour>
  </outline>
</glyph>
<glyph name="hungarumlaut" format="1">
  <advance width="333"/>
  <unicode hex="02DD"/>
  <outline>
    <contour>
      <point x="93" y="494" type="line"/>
      <point x="255" y="654" type="line" smooth="yes"/>
      <point x="262" y="660"/>
      <point x="270" y="664"/>
      <point x="280" y="664" type="curve" smooth="yes"/>
      <point x="300" y="664"/>
      <point x="316" y="648"/>
      <point x="316" y="628" type="curve" smooth="yes"/>
      <point x="316" y="616"/>
      <point x="311" y="607"/>
      <point x="299" y="600" type="curve" smooth="yes"/>
      <point x="128" y="494" type="line"/>
    </contour>
    <contour>
      <point x="263" y="494" type="line"/>
      <point x="425" y="654" type="line" smooth="yes"/>
      <point x="432" y="660"/>
      <point x="440" y="664"/>
      <point x="450" y="664" type="curve" smooth="yes"/>
      <point x="470" y="664"/>
      <point x="486" y="648"/>
      <point x="486" y="628" type="curve" smooth="yes"/>
      <point x="486" y="616"/>
      <point x="481" y="607"/>
      <point x="469" y="600" type="curve" smooth="yes"/>
      <point x="298" y="494" type="line"/>
    </contour>
  </outline>
</glyph>
<glyph name="afii10051" format="1">
  <advance width="669"/>
  <unicode hex="0402"/>
  <outline>
    <contour>
      <point x="333" y="320" type="curve" smooth="yes"/>
      <point x="277" y="120" type="line" smooth="yes"/>
      <point x="267" y="86"/>
      <point x="265" y="74"/>
      <point x="265" y="61" type="curve" smooth="yes"/>
      <point x="265" y="31"/>
      <point x="277" y="22"/>
      <point x="317" y="19" type="curve" smooth="yes"/>
      <point x="323" y="19"/>
      <point x="338" y="17"/>
      <point x="355" y="16" type="curve"/>
      <point x="355" y="0" type="line"/>
      <point x="65" y="0" type="line"/>
      <point x="65" y="16" type="line"/>
      <point x="131" y="21"/>
      <point x="155" y="37"/>
      <point x="171" y="90" type="curve"/>
      <point x="315" y="618" type="line"/>
      <point x="162" y="620"/>
      <point x="130" y="603"/>
      <point x="77" y="495" type="curve"/>
      <point x="59" y="499" type="line"/>
      <point x="101" y="653" type="line"/>
      <point x="633" y="653" type="line"/>
      <point x="589" y="490" type="line"/>
      <point x="572" y="492" type="line"/>
      <point x="574" y="509"/>
      <point x="575" y="524"/>
      <point x="575" y="537" type="curve" smooth="yes"/>
      <point x="575" y="593"/>
      <point x="543" y="618"/>
      <point x="471" y="618" type="curve" smooth="yes"/>
      <point x="416" y="618" type="line"/>
      <point x="345" y="363" type="line"/>
      <point x="391" y="406"/>
      <point x="448" y="440"/>
      <point x="515" y="440" type="curve" smooth="yes"/>
      <point x="602" y="440"/>
      <point x="713" y="411"/>
      <point x="688" y="319" type="curve" smooth="yes"/>
      <point x="611" y="42" type="line" smooth="yes"/>
      <point x="582" y="-64"/>
      <point x="460" y="-146"/>
      <point x="348" y="-146" type="curve" smooth="yes"/>
      <point x="308" y="-146"/>
      <point x="268" y="-127"/>
      <point x="268" y="-99" type="curve" smooth="yes"/>
      <point x="268" y="-74"/>
      <point x="297" y="-52"/>
      <point x="321" y="-52" type="curve" smooth="yes"/>
      <point x="337" y="-52"/>
      <point x="349" y="-61"/>
      <point x="360" y="-84" type="curve" smooth="yes"/>
      <point x="371" y="-105"/>
      <point x="379" y="-112"/>
      <point x="394" y="-112" type="curve" smooth="yes"/>
      <point x="408" y="-112"/>
      <point x="425" y="-104"/>
      <point x="433" y="-94" type="curve" smooth="yes"/>
      <point x="458" y="-64"/>
      <point x="475" y="-32"/>
      <point x="496" y="45" type="curve" smooth="yes"/>
      <point x="570" y="312" type="line" smooth="yes"/>
      <point x="585" y="366"/>
      <point x="522" y="385"/>
      <point x="465" y="385" type="curve" smooth="yes"/>
      <point x="404" y="385"/>
      <point x="339" y="339"/>
    </contour>
  </outline>
</glyph>
<glyph name="afii10052" format="1">
  <advance width="556"/>
  <unicode hex="0403"/>
  <outline>
    <contour>
      <point x="386" y="624" type="line" smooth="yes"/>
      <point x="359" y="624"/>
      <point x="352" y="618"/>
      <point x="344" y="590" type="curve" smooth="yes"/>
      <point x="211" y="109" type="line" smooth="yes"/>
      <point x="191" y="37"/>
      <point x="201" y="23"/>
      <point x="277" y="19" type="curve"/>
      <point x="272" y="0" type="line"/>
      <point x="-8" y="0" type="line"/>
      <point x="-3" y="19" type="line"/>
      <point x="74" y="24"/>
      <point x="89" y="37"/>
      <point x="112" y="120" type="curve" smooth="yes"/>
      <point x="232" y="553" type="line" smooth="yes"/>
      <point x="251" y="623"/>
      <point x="242" y="637"/>
      <point x="170" y="643" type="curve"/>
      <point x="175" y="662" type="line"/>
      <point x="672" y="662" type="line"/>
      <point x="635" y="519" type="line"/>
      <point x="610" y="519" type="line"/>
      <point x="618" y="609"/>
      <point x="600" y="624"/>
      <point x="487" y="624" type="curve" smooth="yes"/>
    </contour>
    <contour>
      <point x="408" y="703" type="line"/>
      <point x="570" y="863" type="line" smooth="yes"/>
      <point x="577" y="869"/>
      <point x="585" y="873"/>
      <point x="595" y="873" type="curve" smooth="yes"/>
      <point x="615" y="873"/>
      <point x="631" y="857"/>
      <point x="631" y="837" type="curve" smooth="yes"/>
      <point x="631" y="825"/>
      <point x="626" y="816"/>
      <point x="614" y="809" type="curve" smooth="yes"/>
      <point x="443" y="703" type="line"/>
    </contour>
  </outline>
</glyph>
<glyph name="afii10053" format="1">
  <advance width="667"/>
  <unicode hex="0404"/>
  <outline>
    <contour>
      <point x="153" y="359" type="curve"/>
      <point x="456" y="359" type="line"/>
      <point x="444" y="315" type="line"/>
      <point x="140" y="315" type="line"/>
      <point x="116" y="215"/>
      <point x="124" y="134"/>
      <point x="163" y="88" type="curve" smooth="yes"/>
      <point x="195" y="50"/>
      <point x="246" y="30"/>
      <point x="309" y="30" type="curve" smooth="yes"/>
      <point x="392" y="30"/>
      <point x="466" y="60"/>
      <point x="560" y="131" type="curve"/>
      <point x="573" y="113" type="line"/>
      <point x="489" y="32"/>
      <point x="377" y="-14"/>
      <point x="264" y="-14" type="curve" smooth="yes"/>
      <point x="165" y="-14"/>
      <point x="84" y="24"/>
      <point x="42" y="89" type="curve"/>
      <point x="7" y="146"/>
      <point x="1" y="232"/>
      <point x="26" y="325" type="curve"/>
      <point x="57" y="435"/>
      <point x="121" y="528"/>
      <point x="208" y="590" type="curve" smooth="yes"/>
      <point x="285" y="645"/>
      <point x="377" y="676"/>
      <point x="459" y="676" type="curve" smooth="yes"/>
      <point x="506" y="676"/>
      <point x="553" y="668"/>
      <point x="598" y="652" type="curve"/>
      <point x="611" y="646"/>
      <point x="626" y="643"/>
      <point x="635" y="643" type="curve" smooth="yes"/>
      <point x="655" y="643"/>
      <point x="674" y="655"/>
      <point x="686" y="676" type="curve"/>
      <point x="707" y="676" type="line"/>
      <point x="653" y="450" type="line"/>
      <point x="630" y="450" type="line"/>
      <point x="629" y="515"/>
      <point x="622" y="543"/>
      <point x="599" y="575" type="curve" smooth="yes"/>
      <point x="570" y="615"/>
      <point x="524" y="636"/>
      <point x="467" y="636" type="curve" smooth="yes"/>
      <point x="327" y="636"/>
      <point x="207" y="528"/>
    </contour>
  </outline>
</glyph>
<glyph name="afii10058" format="1">
  <advance width="896"/>
  <unicode hex="0409"/>
  <outline>
    <contour>
      <point x="338" y="0" type="line"/>
      <point x="339" y="19" type="line"/>
      <point x="418" y="24"/>
      <point x="436" y="36"/>
      <point x="460" y="120" type="curve" smooth="yes"/>
      <point x="595" y="609" type="line"/>
      <point x="379" y="609" type="line"/>
      <point x="307" y="347" type="line" smooth="yes"/>
      <point x="272" y="222"/>
      <point x="159" y="-13"/>
      <point x="38" y="-13" type="curve" smooth="yes"/>
      <point x="-3" y="-13"/>
      <point x="-48" y="0"/>
      <point x="-48" y="41" type="curve" smooth="yes"/>
      <point x="-48" y="77"/>
      <point x="-16" y="102"/>
      <point x="21" y="102" type="curve" smooth="yes"/>
      <point x="67" y="102"/>
      <point x="48" y="67"/>
      <point x="84" y="67" type="curve" smooth="yes"/>
      <point x="117" y="67"/>
      <point x="130" y="76"/>
      <point x="154" y="109" type="curve" smooth="yes"/>
      <point x="204" y="178"/>
      <point x="241" y="264"/>
      <point x="264" y="347" type="curve" smooth="yes"/>
      <point x="318" y="544" type="line" smooth="yes"/>
      <point x="338" y="616"/>
      <point x="330" y="627"/>
      <point x="255" y="634" type="curve"/>
      <point x="256" y="653" type="line"/>
      <point x="796" y="653" type="line"/>
      <point x="793" y="634" type="line"/>
      <point x="713" y="631"/>
      <point x="697" y="617"/>
      <point x="677" y="544" type="curve" smooth="yes"/>
      <point x="628" y="371" type="line"/>
      <point x="655" y="373"/>
      <point x="672" y="374"/>
      <point x="698" y="374" type="curve" smooth="yes"/>
      <point x="776" y="374"/>
      <point x="827" y="364"/>
      <point x="863" y="340" type="curve"/>
      <point x="902" y="316"/>
      <point x="922" y="276"/>
      <point x="922" y="230" type="curve" smooth="yes"/>
      <point x="922" y="158"/>
      <point x="887" y="108"/>
      <point x="844" y="72" type="curve" smooth="yes"/>
      <point x="792" y="28"/>
      <point x="697" y="0"/>
      <point x="603" y="0" type="curve" smooth="yes"/>
    </contour>
    <contour>
      <point x="545" y="71" type="line" smooth="yes"/>
      <point x="537" y="44"/>
      <point x="542" y="37"/>
      <point x="569" y="37" type="curve" smooth="yes"/>
      <point x="722" y="37"/>
      <point x="816" y="114"/>
      <point x="816" y="237" type="curve" smooth="yes"/>
      <point x="816" y="301"/>
      <point x="768" y="334"/>
      <point x="675" y="334" type="curve" smooth="yes"/>
      <point x="655" y="334"/>
      <point x="641" y="333"/>
      <point x="617" y="331" type="curve"/>
    </contour>
  </outline>
</glyph>
<glyph name="afii10059" format="1">
  <advance width="922"/>
  <unicode hex="040A"/>
  <outline>
    <contour>
      <point x="806" y="637" type="line"/>
      <point x="730" y="628"/>
      <point x="714" y="617"/>
      <point x="693" y="544" type="curve" smooth="yes"/>
      <point x="644" y="371" type="line"/>
      <point x="671" y="373"/>
      <point x="688" y="374"/>
      <point x="714" y="374" type="curve" smooth="yes"/>
      <point x="792" y="374"/>
      <point x="843" y="364"/>
      <point x="879" y="340" type="curve"/>
      <point x="918" y="316"/>
      <point x="938" y="276"/>
      <point x="938" y="230" type="curve" smooth="yes"/>
      <point x="938" y="158"/>
      <point x="903" y="108"/>
      <point x="860" y="72" type="curve" smooth="yes"/>
      <point x="808" y="28"/>
      <point x="713" y="0"/>
      <point x="619" y="0" type="curve" smooth="yes"/>
      <point x="354" y="0" type="line"/>
      <point x="355" y="16" type="line"/>
      <point x="420" y="23"/>
      <point x="440" y="38"/>
      <point x="456" y="90" type="curve"/>
      <point x="521" y="326" type="line"/>
      <point x="236" y="326" type="line"/>
      <point x="170" y="82" type="line" smooth="yes"/>
      <point x="168" y="75"/>
      <point x="167" y="67"/>
      <point x="167" y="60" type="curve" smooth="yes"/>
      <point x="167" y="31"/>
      <point x="178" y="24"/>
      <point x="238" y="16" type="curve"/>
      <point x="238" y="0" type="line"/>
      <point x="-8" y="0" type="line"/>
      <point x="-8" y="16" type="line"/>
      <point x="48" y="26"/>
      <point x="55" y="32"/>
      <point x="73" y="90" type="curve"/>
      <point x="196" y="532" type="line" smooth="yes"/>
      <point x="203" y="557"/>
      <point x="207" y="580"/>
      <point x="207" y="594" type="curve" smooth="yes"/>
      <point x="207" y="623"/>
      <point x="192" y="631"/>
      <point x="130" y="637" type="curve"/>
      <point x="130" y="653" type="line"/>
      <point x="403" y="653" type="line"/>
      <point x="403" y="637" type="line"/>
      <point x="343" y="633"/>
      <point x="317" y="614"/>
      <point x="302" y="563" type="curve" smooth="yes"/>
      <point x="248" y="368" type="line"/>
      <point x="533" y="368" type="line"/>
      <point x="579" y="532" type="line" smooth="yes"/>
      <point x="586" y="557"/>
      <point x="590" y="580"/>
      <point x="590" y="594" type="curve" smooth="yes"/>
      <point x="590" y="622"/>
      <point x="578" y="630"/>
      <point x="520" y="637" type="curve"/>
      <point x="520" y="653" type="line"/>
      <point x="806" y="653" type="line"/>
    </contour>
    <contour>
      <point x="561" y="71" type="line" smooth="yes"/>
      <point x="553" y="44"/>
      <point x="558" y="37"/>
      <point x="585" y="37" type="curve" smooth="yes"/>
      <point x="738" y="37"/>
      <point x="832" y="114"/>
      <point x="832" y="237" type="curve" smooth="yes"/>
      <point x="832" y="301"/>
      <point x="784" y="334"/>
      <point x="691" y="334" type="curve" smooth="yes"/>
      <point x="671" y="334"/>
      <point x="657" y="333"/>
      <point x="633" y="331" type="curve"/>
    </contour>
  </outline>
</glyph>
<glyph name="afii10060" format="1">
  <advance width="758"/>
  <unicode hex="040B"/>
  <outline>
    <contour>
      <point x="331" y="313" type="curve"/>
      <point x="277" y="120" type="line" smooth="yes"/>
      <point x="268" y="86"/>
      <point x="265" y="74"/>
      <point x="265" y="61" type="curve" smooth="yes"/>
      <point x="265" y="31"/>
      <point x="277" y="22"/>
      <point x="317" y="19" type="curve" smooth="yes"/>
      <point x="323" y="19"/>
      <point x="338" y="17"/>
      <point x="355" y="16" type="curve"/>
      <point x="355" y="0" type="line"/>
      <point x="65" y="0" type="line"/>
      <point x="65" y="16" type="line"/>
      <point x="131" y="21"/>
      <point x="155" y="37"/>
      <point x="171" y="90" type="curve"/>
      <point x="315" y="618" type="line"/>
      <point x="162" y="620"/>
      <point x="130" y="603"/>
      <point x="77" y="495" type="curve"/>
      <point x="59" y="499" type="line"/>
      <point x="101" y="653" type="line"/>
      <point x="633" y="653" type="line"/>
      <point x="589" y="490" type="line"/>
      <point x="572" y="492" type="line"/>
      <point x="574" y="509"/>
      <point x="575" y="524"/>
      <point x="575" y="537" type="curve" smooth="yes"/>
      <point x="575" y="593"/>
      <point x="543" y="618"/>
      <point x="471" y="618" type="curve" smooth="yes"/>
      <point x="416" y="618" type="line"/>
      <point x="343" y="357" type="line"/>
      <point x="393" y="402"/>
      <point x="455" y="418"/>
      <point x="515" y="418" type="curve" smooth="yes"/>
      <point x="568" y="418"/>
      <point x="758" y="393"/>
      <point x="729" y="288" type="curve" smooth="yes"/>
      <point x="676" y="98" type="line" smooth="yes"/>
      <point x="656" y="26"/>
      <point x="667" y="26"/>
      <point x="742" y="19" type="curve"/>
      <point x="742" y="0" type="line"/>
      <point x="464" y="0" type="line"/>
      <point x="464" y="19" type="line"/>
      <point x="543" y="26"/>
      <point x="554" y="26"/>
      <point x="574" y="98" type="curve" smooth="yes"/>
      <point x="627" y="289" type="line" smooth="yes"/>
      <point x="642" y="345"/>
      <point x="545" y="374"/>
      <point x="505" y="374" type="curve" smooth="yes"/>
      <point x="450" y="374"/>
      <point x="387" y="357"/>
    </contour>
  </outline>
</glyph>
<glyph name="afii10062" format="1">
  <advance width="730"/>
  <unicode hex="040E"/>
  <outline>
    <contour>
      <point x="765" y="653" type="line"/>
      <point x="765" y="634" type="line"/>
      <point x="700" y="630"/>
      <point x="673" y="627"/>
      <point x="602" y="540" type="curve"/>
      <point x="283" y="140" type="line" smooth="yes"/>
      <point x="205" y="41"/>
      <point x="152" y="-12"/>
      <point x="56" y="-12" type="curve" smooth="yes"/>
      <point x="4" y="-12"/>
      <point x="-32" y="12"/>
      <point x="-21" y="51" type="curve" smooth="yes"/>
      <point x="-9" y="96"/>
      <point x="20" y="111"/>
      <point x="45" y="111" type="curve" smooth="yes"/>
      <point x="93" y="110"/>
      <point x="99" y="87"/>
      <point x="94" y="65" type="curve"/>
      <point x="92" y="51"/>
      <point x="92" y="36"/>
      <point x="111" y="36" type="curve" smooth="yes"/>
      <point x="140" y="36"/>
      <point x="166" y="70"/>
      <point x="218" y="133" type="curve"/>
      <point x="167" y="479" type="line"/>
      <point x="155" y="627"/>
      <point x="126" y="631"/>
      <point x="62" y="634" type="curve"/>
      <point x="62" y="653" type="line"/>
      <point x="348" y="653" type="line"/>
      <point x="348" y="634" type="line"/>
      <point x="320" y="633" type="line" smooth="yes"/>
      <point x="287" y="632"/>
      <point x="269" y="624"/>
      <point x="264" y="604" type="curve" smooth="yes"/>
      <point x="258" y="582"/>
      <point x="253" y="568"/>
      <point x="262" y="511" type="curve" smooth="yes"/>
      <point x="302" y="244" type="line"/>
      <point x="534" y="533" type="line" smooth="yes"/>
      <point x="567" y="574"/>
      <point x="577" y="587"/>
      <point x="581" y="602" type="curve" smooth="yes"/>
      <point x="588" y="625"/>
      <point x="574" y="632"/>
      <point x="520" y="634" type="curve"/>
      <point x="520" y="653" type="line"/>
    </contour>
    <contour>
      <point x="596" y="861" type="curve"/>
      <point x="625" y="861" type="line"/>
      <point x="616" y="819"/>
      <point x="607" y="798"/>
      <point x="587" y="772" type="curve" smooth="yes"/>
      <point x="554" y="727"/>
      <point x="507" y="703"/>
      <point x="454" y="703" type="curve" smooth="yes"/>
      <point x="409" y="703"/>
      <point x="375" y="718"/>
      <point x="352" y="747" type="curve" smooth="yes"/>
      <point x="332" y="773"/>
      <point x="324" y="804"/>
      <point x="324" y="861" type="curve"/>
      <point x="353" y="861" type="line"/>
      <point x="358" y="799"/>
      <point x="397" y="762"/>
      <point x="461" y="762" type="curve" smooth="yes"/>
      <point x="522" y="762"/>
      <point x="571" y="798"/>
    </contour>
  </outline>
</glyph>
<glyph name="afii10145" format="1">
  <advance width="814"/>
  <unicode hex="040F"/>
  <outline>
    <contour>
      <point x="171" y="0" type="curve" smooth="yes"/>
      <point x="-7" y="0" type="line"/>
      <point x="-7" y="19" type="line"/>
      <point x="72" y="26"/>
      <point x="86" y="37"/>
      <point x="106" y="109" type="curve" smooth="yes"/>
      <point x="226" y="544" type="line" smooth="yes"/>
      <point x="246" y="615"/>
      <point x="242" y="628"/>
      <point x="168" y="634" type="curve"/>
      <point x="169" y="653" type="line"/>
      <point x="446" y="653" type="line"/>
      <point x="446" y="634" type="line"/>
      <point x="367" y="629"/>
      <point x="349" y="617"/>
      <point x="325" y="533" type="curve" smooth="yes"/>
      <point x="190" y="44" type="line"/>
      <point x="493" y="44" type="line"/>
      <point x="631" y="544" type="line" smooth="yes"/>
      <point x="651" y="615"/>
      <point x="647" y="628"/>
      <point x="573" y="634" type="curve"/>
      <point x="574" y="653" type="line"/>
      <point x="851" y="653" type="line"/>
      <point x="851" y="634" type="line"/>
      <point x="772" y="629"/>
      <point x="754" y="617"/>
      <point x="730" y="533" type="curve" smooth="yes"/>
      <point x="613" y="109" type="line" smooth="yes"/>
      <point x="593" y="37"/>
      <point x="601" y="26"/>
      <point x="676" y="19" type="curve"/>
      <point x="676" y="0" type="line"/>
      <point x="476" y="0" type="line" smooth="yes"/>
      <point x="382" y="0"/>
      <point x="338" y="-60"/>
      <point x="317" y="-129" type="curve"/>
      <point x="292" y="-129" type="line"/>
      <point x="300" y="-39"/>
      <point x="284" y="0"/>
    </contour>
  </outline>
</glyph>
<glyph name="afii10018" format="1">
  <advance width="682"/>
  <unicode hex="0411"/>
  <outline>
    <contour>
      <point x="714" y="653" type="line"/>
      <point x="677" y="510" type="line"/>
      <point x="652" y="510" type="line"/>
      <point x="660" y="600"/>
      <point x="642" y="615"/>
      <point x="529" y="615" type="curve" smooth="yes"/>
      <point x="393" y="615" type="line" smooth="yes"/>
      <point x="366" y="615"/>
      <point x="360" y="609"/>
      <point x="352" y="581" type="curve" smooth="yes"/>
      <point x="304" y="406" type="line"/>
      <point x="374" y="406" type="line" smooth="yes"/>
      <point x="502" y="406"/>
      <point x="571" y="408"/>
      <point x="618" y="353" type="curve" smooth="yes"/>
      <point x="653" y="312"/>
      <point x="637" y="242"/>
      <point x="624" y="198" type="curve"/>
      <point x="611" y="150"/>
      <point x="573" y="87"/>
      <point x="528" y="55" type="curve" smooth="yes"/>
      <point x="481" y="21"/>
      <point x="404" y="0"/>
      <point x="326" y="0" type="curve" smooth="yes"/>
      <point x="-8" y="0" type="line"/>
      <point x="-8" y="19" type="line"/>
      <point x="76" y="22"/>
      <point x="98" y="35"/>
      <point x="119" y="109" type="curve" smooth="yes"/>
      <point x="240" y="544" type="line" smooth="yes"/>
      <point x="260" y="618"/>
      <point x="251" y="629"/>
      <point x="169" y="634" type="curve"/>
      <point x="168" y="653" type="line"/>
    </contour>
    <contour>
      <point x="293" y="366" type="curve"/>
      <point x="212" y="78" type="line" smooth="yes"/>
      <point x="203" y="46"/>
      <point x="215" y="37"/>
      <point x="264" y="37" type="curve" smooth="yes"/>
      <point x="330" y="37"/>
      <point x="373" y="45"/>
      <point x="410" y="63" type="curve" smooth="yes"/>
      <point x="456" y="86"/>
      <point x="494" y="143"/>
      <point x="509" y="197" type="curve" smooth="yes"/>
      <point x="527" y="260"/>
      <point x="517" y="322"/>
      <point x="466" y="346" type="curve" smooth="yes"/>
      <point x="434" y="361"/>
      <point x="390" y="366"/>
    </contour>
  </outline>
</glyph>
<glyph name="afii10020" format="1">
  <advance width="640"/>
  <unicode hex="0413"/>
  <outline>
    <contour>
      <point x="386" y="624" type="line" smooth="yes"/>
      <point x="359" y="624"/>
      <point x="352" y="618"/>
      <point x="344" y="590" type="curve" smooth="yes"/>
      <point x="211" y="109" type="line" smooth="yes"/>
      <point x="191" y="37"/>
      <point x="201" y="23"/>
      <point x="277" y="19" type="curve"/>
      <point x="272" y="0" type="line"/>
      <point x="-8" y="0" type="line"/>
      <point x="-3" y="19" type="line"/>
      <point x="74" y="24"/>
      <point x="89" y="37"/>
      <point x="112" y="120" type="curve" smooth="yes"/>
      <point x="232" y="553" type="line" smooth="yes"/>
      <point x="251" y="623"/>
      <point x="242" y="637"/>
      <point x="170" y="643" type="curve"/>
      <point x="175" y="662" type="line"/>
      <point x="672" y="662" type="line"/>
      <point x="635" y="519" type="line"/>
      <point x="610" y="519" type="line"/>
      <point x="618" y="609"/>
      <point x="600" y="624"/>
      <point x="487" y="624" type="curve" smooth="yes"/>
    </contour>
  </outline>
</glyph>
<glyph name="afii10021" format="1">
  <advance width="747"/>
  <unicode hex="0414"/>
  <outline>
    <contour>
      <point x="146" y="109" type="curve"/>
      <point x="196" y="178"/>
      <point x="233" y="264"/>
      <point x="256" y="347" type="curve" smooth="yes"/>
      <point x="310" y="544" type="line" smooth="yes"/>
      <point x="330" y="616"/>
      <point x="322" y="627"/>
      <point x="247" y="634" type="curve"/>
      <point x="248" y="653" type="line"/>
      <point x="785" y="653" type="line"/>
      <point x="784" y="634" type="line"/>
      <point x="705" y="627"/>
      <point x="691" y="616"/>
      <point x="671" y="544" type="curve" smooth="yes"/>
      <point x="556" y="128" type="line" smooth="yes"/>
      <point x="536" y="56"/>
      <point x="544" y="45"/>
      <point x="619" y="38" type="curve"/>
      <point x="581" y="-129" type="line"/>
      <point x="556" y="-129" type="line"/>
      <point x="564" y="-39"/>
      <point x="547" y="0"/>
      <point x="434" y="0" type="curve" smooth="yes"/>
      <point x="177" y="0" type="line" smooth="yes"/>
      <point x="64" y="0"/>
      <point x="27" y="-39"/>
      <point x="-15" y="-129" type="curve"/>
      <point x="-40" y="-129" type="line"/>
      <point x="14" y="38" type="line"/>
      <point x="100" y="39"/>
      <point x="110" y="54"/>
    </contour>
    <contour>
      <point x="183" y="44" type="curve"/>
      <point x="343" y="44" type="line"/>
      <point x="422" y="49"/>
      <point x="435" y="61"/>
      <point x="459" y="145" type="curve" smooth="yes"/>
      <point x="587" y="609" type="line"/>
      <point x="371" y="609" type="line"/>
      <point x="299" y="347" type="line" smooth="yes"/>
      <point x="279" y="274"/>
      <point x="234" y="164"/>
      <point x="176" y="86" type="curve" smooth="yes"/>
      <point x="142" y="40"/>
      <point x="183" y="44"/>
    </contour>
  </outline>
</glyph>
<glyph name="afii10028" format="1">
  <advance width="729"/>
  <unicode hex="041A"/>
  <outline>
    <contour>
      <point x="780" y="604" type="curve" smooth="yes"/>
      <point x="771" y="570"/>
      <point x="742" y="556"/>
      <point x="722" y="556" type="curve" smooth="yes"/>
      <point x="658" y="556"/>
      <point x="653" y="590"/>
      <point x="625" y="590" type="curve" smooth="yes"/>
      <point x="609" y="590"/>
      <point x="592" y="572"/>
      <point x="561" y="510" type="curve" smooth="yes"/>
      <point x="516" y="420"/>
      <point x="443" y="355"/>
      <point x="407" y="347" type="curve"/>
      <point x="443" y="341"/>
      <point x="460" y="316"/>
      <point x="476" y="272" type="curve"/>
      <point x="523" y="127" type="line" smooth="yes"/>
      <point x="561" y="13"/>
      <point x="580" y="20"/>
      <point x="632" y="19" type="curve"/>
      <point x="631" y="0" type="line"/>
      <point x="467" y="0" type="line"/>
      <point x="392" y="222" type="line"/>
      <point x="368" y="288"/>
      <point x="361" y="326"/>
      <point x="307" y="326" type="curve" smooth="yes"/>
      <point x="275" y="326" type="line"/>
      <point x="214" y="109" type="line" smooth="yes"/>
      <point x="194" y="36"/>
      <point x="198" y="24"/>
      <point x="275" y="19" type="curve"/>
      <point x="274" y="0" type="line"/>
      <point x="-8" y="0" type="line"/>
      <point x="-7" y="19" type="line"/>
      <point x="73" y="24"/>
      <point x="92" y="37"/>
      <point x="116" y="120" type="curve" smooth="yes"/>
      <point x="235" y="544" type="line" smooth="yes"/>
      <point x="255" y="615"/>
      <point x="246" y="628"/>
      <point x="170" y="634" type="curve"/>
      <point x="169" y="653" type="line"/>
      <point x="453" y="653" type="line"/>
      <point x="454" y="634" type="line"/>
      <point x="371" y="628"/>
      <point x="358" y="617"/>
      <point x="337" y="544" type="curve" smooth="yes"/>
      <point x="285" y="364" type="line"/>
      <point x="317" y="364" type="line" smooth="yes"/>
      <point x="391" y="364"/>
      <point x="475" y="432"/>
      <point x="522" y="520" type="curve" smooth="yes"/>
      <point x="594" y="652"/>
      <point x="657" y="668"/>
      <point x="709" y="668" type="curve" smooth="yes"/>
      <point x="748" y="668"/>
      <point x="795" y="656"/>
    </contour>
  </outline>
</glyph>
<glyph name="afii10030" format="1">
  <advance width="828"/>
  <unicode hex="041C"/>
  <outline>
    <contour>
      <point x="873" y="653" type="line"/>
      <point x="873" y="637" type="line"/>
      <point x="814" y="628"/>
      <point x="809" y="623"/>
      <point x="791" y="563" type="curve"/>
      <point x="668" y="120" type="line" smooth="yes"/>
      <point x="659" y="89"/>
      <point x="657" y="76"/>
      <point x="657" y="59" type="curve" smooth="yes"/>
      <point x="657" y="28"/>
      <point x="666" y="22"/>
      <point x="734" y="16" type="curve"/>
      <point x="734" y="0" type="line"/>
      <point x="461" y="0" type="line"/>
      <point x="461" y="16" type="line"/>
      <point x="526" y="23"/>
      <point x="546" y="38"/>
      <point x="562" y="91" type="curve"/>
      <point x="691" y="561" type="line"/>
      <point x="314" y="0" type="line"/>
      <point x="297" y="0" type="line"/>
      <point x="236" y="546" type="line"/>
      <point x="118" y="113" type="line" smooth="yes"/>
      <point x="113" y="96"/>
      <point x="109" y="70"/>
      <point x="109" y="60" type="curve" smooth="yes"/>
      <point x="109" y="32"/>
      <point x="129" y="20"/>
      <point x="180" y="16" type="curve"/>
      <point x="180" y="0" type="line"/>
      <point x="-18" y="0" type="line"/>
      <point x="-18" y="16" type="line"/>
      <point x="34" y="22"/>
      <point x="49" y="42"/>
      <point x="80" y="146" type="curve"/>
      <point x="186" y="518" type="line" smooth="yes"/>
      <point x="187" y="522"/>
      <point x="188" y="526"/>
      <point x="189" y="529" type="curve" smooth="yes"/>
      <point x="193" y="544"/>
      <point x="196" y="555"/>
      <point x="198" y="559" type="curve" smooth="yes"/>
      <point x="204" y="577"/>
      <point x="208" y="592"/>
      <point x="208" y="600" type="curve" smooth="yes"/>
      <point x="208" y="623"/>
      <point x="184" y="634"/>
      <point x="134" y="637" type="curve"/>
      <point x="134" y="653" type="line"/>
      <point x="315" y="653" type="line"/>
      <point x="370" y="160" type="line"/>
      <point x="706" y="653" type="line"/>
    </contour>
  </outline>
</glyph>
<glyph name="afii10033" format="1">
  <advance width="805"/>
  <unicode hex="041F"/>
  <outline>
    <contour>
      <point x="850" y="653" type="line"/>
      <point x="850" y="634" type="line"/>
      <point x="771" y="627"/>
      <point x="757" y="616"/>
      <point x="737" y="544" type="curve" smooth="yes"/>
      <point x="617" y="109" type="line" smooth="yes"/>
      <point x="597" y="38"/>
      <point x="601" y="25"/>
      <point x="675" y="19" type="curve"/>
      <point x="674" y="0" type="line"/>
      <point x="397" y="0" type="line"/>
      <point x="397" y="19" type="line"/>
      <point x="476" y="24"/>
      <point x="494" y="36"/>
      <point x="518" y="120" type="curve" smooth="yes"/>
      <point x="653" y="609" type="line"/>
      <point x="350" y="609" type="line"/>
      <point x="212" y="109" type="line" smooth="yes"/>
      <point x="192" y="38"/>
      <point x="196" y="25"/>
      <point x="270" y="19" type="curve"/>
      <point x="269" y="0" type="line"/>
      <point x="-8" y="0" type="line"/>
      <point x="-8" y="19" type="line"/>
      <point x="71" y="24"/>
      <point x="89" y="36"/>
      <point x="113" y="120" type="curve" smooth="yes"/>
      <point x="230" y="544" type="line" smooth="yes"/>
      <point x="250" y="616"/>
      <point x="242" y="627"/>
      <point x="167" y="634" type="curve"/>
      <point x="167" y="653" type="line"/>
    </contour>
  </outline>
</glyph>
<glyph name="afii10038" format="1">
  <advance width="801"/>
  <unicode hex="0424"/>
  <outline>
    <contour>
      <point x="298" y="90" type="curve"/>
      <point x="167" y="90"/>
      <point x="4" y="132"/>
      <point x="59" y="331" type="curve" smooth="yes"/>
      <point x="116" y="536"/>
      <point x="303" y="574"/>
      <point x="432" y="574" type="curve"/>
      <point x="443" y="615"/>
      <point x="454" y="634"/>
      <point x="354" y="634" type="curve"/>
      <point x="354" y="653" type="line"/>
      <point x="651" y="653" type="line"/>
      <point x="651" y="634" type="line"/>
      <point x="554" y="634"/>
      <point x="546" y="616"/>
      <point x="534" y="574" type="curve"/>
      <point x="663" y="574"/>
      <point x="828" y="536"/>
      <point x="771" y="331" type="curve" smooth="yes"/>
      <point x="716" y="132"/>
      <point x="531" y="90"/>
      <point x="400" y="90" type="curve"/>
      <point x="388" y="49"/>
      <point x="378" y="20"/>
      <point x="473" y="19" type="curve"/>
      <point x="473" y="0" type="line"/>
      <point x="176" y="0" type="line"/>
      <point x="176" y="19" type="line"/>
      <point x="274" y="20"/>
      <point x="286" y="48"/>
    </contour>
    <contour>
      <point x="309" y="132" type="curve"/>
      <point x="420" y="532" type="line"/>
      <point x="335" y="532"/>
      <point x="198" y="498"/>
      <point x="151" y="331" type="curve" smooth="yes"/>
      <point x="106" y="168"/>
      <point x="221" y="132"/>
    </contour>
    <contour>
      <point x="411" y="132" type="line"/>
      <point x="499" y="132"/>
      <point x="634" y="168"/>
      <point x="679" y="331" type="curve" smooth="yes"/>
      <point x="726" y="498"/>
      <point x="607" y="532"/>
      <point x="522" y="532" type="curve"/>
    </contour>
  </outline>
</glyph>
<glyph name="afii10040" format="1">
  <advance width="807"/>
  <unicode hex="0426"/>
  <outline>
    <contour>
      <point x="501" y="0" type="curve" smooth="yes"/>
      <point x="-8" y="0" type="line"/>
      <point x="-8" y="19" type="line"/>
      <point x="71" y="26"/>
      <point x="90" y="37"/>
      <point x="110" y="109" type="curve" smooth="yes"/>
      <point x="231" y="544" type="line" smooth="yes"/>
      <point x="251" y="615"/>
      <point x="241" y="628"/>
      <point x="168" y="634" type="curve"/>
      <point x="168" y="653" type="line"/>
      <point x="446" y="653" type="line"/>
      <point x="446" y="634" type="line"/>
      <point x="366" y="629"/>
      <point x="353" y="617"/>
      <point x="330" y="533" type="curve" smooth="yes"/>
      <point x="194" y="44" type="line"/>
      <point x="497" y="44" type="line"/>
      <point x="636" y="544" type="line" smooth="yes"/>
      <point x="655" y="615"/>
      <point x="646" y="628"/>
      <point x="573" y="634" type="curve"/>
      <point x="573" y="653" type="line"/>
      <point x="851" y="653" type="line"/>
      <point x="851" y="634" type="line"/>
      <point x="771" y="629"/>
      <point x="758" y="617"/>
      <point x="735" y="533" type="curve" smooth="yes"/>
      <point x="622" y="128" type="line" smooth="yes"/>
      <point x="602" y="56"/>
      <point x="610" y="45"/>
      <point x="685" y="38" type="curve"/>
      <point x="647" y="-129" type="line"/>
      <point x="622" y="-129" type="line"/>
      <point x="630" y="-39"/>
      <point x="614" y="0"/>
    </contour>
  </outline>
</glyph>
<glyph name="afii10042" format="1">
  <advance width="1063"/>
  <unicode hex="0428"/>
  <outline>
    <contour>
      <point x="423" y="44" type="line"/>
      <point x="562" y="544" type="line" smooth="yes"/>
      <point x="581" y="615"/>
      <point x="572" y="628"/>
      <point x="499" y="634" type="curve"/>
      <point x="499" y="653" type="line"/>
      <point x="777" y="653" type="line"/>
      <point x="777" y="634" type="line"/>
      <point x="697" y="629"/>
      <point x="686" y="625"/>
      <point x="663" y="541" type="curve" smooth="yes"/>
      <point x="526" y="44" type="line"/>
      <point x="754" y="44" type="line"/>
      <point x="893" y="544" type="line" smooth="yes"/>
      <point x="912" y="615"/>
      <point x="903" y="628"/>
      <point x="830" y="634" type="curve"/>
      <point x="830" y="653" type="line"/>
      <point x="1108" y="653" type="line"/>
      <point x="1108" y="634" type="line"/>
      <point x="1028" y="629"/>
      <point x="1015" y="617"/>
      <point x="992" y="533" type="curve" smooth="yes"/>
      <point x="874" y="109" type="line" smooth="yes"/>
      <point x="854" y="37"/>
      <point x="857" y="26"/>
      <point x="932" y="19" type="curve"/>
      <point x="932" y="0" type="line"/>
      <point x="-8" y="0" type="line"/>
      <point x="-8" y="19" type="line"/>
      <point x="71" y="26"/>
      <point x="90" y="37"/>
      <point x="110" y="109" type="curve" smooth="yes"/>
      <point x="231" y="544" type="line" smooth="yes"/>
      <point x="250" y="615"/>
      <point x="241" y="628"/>
      <point x="168" y="634" type="curve"/>
      <point x="168" y="653" type="line"/>
      <point x="446" y="653" type="line"/>
      <point x="446" y="634" type="line"/>
      <point x="366" y="629"/>
      <point x="353" y="617"/>
      <point x="330" y="533" type="curve" smooth="yes"/>
      <point x="194" y="44" type="line"/>
    </contour>
  </outline>
</glyph>
<glyph name="afii10043" format="1">
  <advance width="1065"/>
  <unicode hex="0429"/>
  <outline>
    <contour>
      <point x="759" y="0" type="curve" smooth="yes"/>
      <point x="-7" y="0" type="line"/>
      <point x="-8" y="19" type="line"/>
      <point x="71" y="26"/>
      <point x="91" y="37"/>
      <point x="111" y="109" type="curve" smooth="yes"/>
      <point x="232" y="544" type="line" smooth="yes"/>
      <point x="252" y="615"/>
      <point x="240" y="628"/>
      <point x="166" y="634" type="curve"/>
      <point x="168" y="653" type="line"/>
      <point x="446" y="653" type="line"/>
      <point x="447" y="634" type="line"/>
      <point x="368" y="629"/>
      <point x="354" y="617"/>
      <point x="331" y="533" type="curve" smooth="yes"/>
      <point x="195" y="44" type="line"/>
      <point x="424" y="44" type="line"/>
      <point x="563" y="544" type="line" smooth="yes"/>
      <point x="583" y="615"/>
      <point x="574" y="628"/>
      <point x="500" y="634" type="curve"/>
      <point x="500" y="653" type="line"/>
      <point x="777" y="653" type="line"/>
      <point x="778" y="634" type="line"/>
      <point x="699" y="629"/>
      <point x="687" y="625"/>
      <point x="664" y="541" type="curve" smooth="yes"/>
      <point x="527" y="44" type="line"/>
      <point x="755" y="44" type="line"/>
      <point x="894" y="544" type="line" smooth="yes"/>
      <point x="914" y="615"/>
      <point x="905" y="628"/>
      <point x="831" y="634" type="curve"/>
      <point x="830" y="653" type="line"/>
      <point x="1109" y="653" type="line"/>
      <point x="1109" y="634" type="line"/>
      <point x="1030" y="629"/>
      <point x="1016" y="617"/>
      <point x="993" y="533" type="curve" smooth="yes"/>
      <point x="881" y="128" type="line" smooth="yes"/>
      <point x="861" y="56"/>
      <point x="869" y="45"/>
      <point x="944" y="38" type="curve"/>
      <point x="905" y="-129" type="line"/>
      <point x="880" y="-129" type="line"/>
      <point x="888" y="-39"/>
      <point x="872" y="0"/>
    </contour>
  </outline>
</glyph>
<glyph name="afii10044" format="1">
  <advance width="731"/>
  <unicode hex="042A"/>
  <outline>
    <contour>
      <point x="331" y="611" type="line"/>
      <point x="277" y="611" type="line" smooth="yes"/>
      <point x="165" y="611"/>
      <point x="137" y="592"/>
      <point x="83" y="483" type="curve"/>
      <point x="59" y="483" type="line"/>
      <point x="112" y="653" type="line"/>
      <point x="534" y="653" type="line"/>
      <point x="534" y="634" type="line"/>
      <point x="454" y="631"/>
      <point x="436" y="617"/>
      <point x="415" y="544" type="curve" smooth="yes"/>
      <point x="367" y="371" type="line"/>
      <point x="394" y="373"/>
      <point x="411" y="374"/>
      <point x="437" y="374" type="curve" smooth="yes"/>
      <point x="515" y="374"/>
      <point x="566" y="364"/>
      <point x="602" y="340" type="curve"/>
      <point x="654" y="308"/>
      <point x="673" y="247"/>
      <point x="654" y="181" type="curve"/>
      <point x="643" y="139"/>
      <point x="618" y="101"/>
      <point x="583" y="72" type="curve" smooth="yes"/>
      <point x="531" y="28"/>
      <point x="436" y="0"/>
      <point x="342" y="0" type="curve" smooth="yes"/>
      <point x="78" y="0" type="line"/>
      <point x="78" y="19" type="line"/>
      <point x="155" y="27"/>
      <point x="172" y="37"/>
      <point x="192" y="109" type="curve" smooth="yes"/>
    </contour>
    <contour>
      <point x="282" y="71" type="line" smooth="yes"/>
      <point x="274" y="44"/>
      <point x="279" y="37"/>
      <point x="306" y="37" type="curve" smooth="yes"/>
      <point x="441" y="37"/>
      <point x="517" y="84"/>
      <point x="545" y="187" type="curve" smooth="yes"/>
      <point x="572" y="284"/>
      <point x="527" y="334"/>
      <point x="412" y="334" type="curve" smooth="yes"/>
      <point x="392" y="334"/>
      <point x="378" y="333"/>
      <point x="354" y="331" type="curve"/>
    </contour>
  </outline>
</glyph>
<glyph name="afii10045" format="1">
  <advance width="961"/>
  <unicode hex="042B"/>
  <outline>
    <contour>
      <point x="660" y="109" type="curve" smooth="yes"/>
      <point x="781" y="544" type="line" smooth="yes"/>
      <point x="802" y="618"/>
      <point x="793" y="629"/>
      <point x="709" y="634" type="curve"/>
      <point x="709" y="653" type="line"/>
      <point x="1006" y="653" type="line"/>
      <point x="1006" y="634" type="line"/>
      <point x="921" y="630"/>
      <point x="903" y="617"/>
      <point x="883" y="544" type="curve" smooth="yes"/>
      <point x="762" y="109" type="line" smooth="yes"/>
      <point x="742" y="36"/>
      <point x="748" y="22"/>
      <point x="829" y="19" type="curve"/>
      <point x="830" y="0" type="line"/>
      <point x="533" y="0" type="line"/>
      <point x="532" y="19" type="line"/>
      <point x="617" y="22"/>
      <point x="640" y="34"/>
    </contour>
    <contour>
      <point x="281" y="371" type="line"/>
      <point x="308" y="373"/>
      <point x="325" y="374"/>
      <point x="351" y="374" type="curve" smooth="yes"/>
      <point x="429" y="374"/>
      <point x="480" y="364"/>
      <point x="516" y="340" type="curve"/>
      <point x="568" y="308"/>
      <point x="587" y="247"/>
      <point x="568" y="181" type="curve"/>
      <point x="557" y="139"/>
      <point x="532" y="101"/>
      <point x="497" y="72" type="curve" smooth="yes"/>
      <point x="445" y="28"/>
      <point x="350" y="0"/>
      <point x="256" y="0" type="curve" smooth="yes"/>
      <point x="-8" y="0" type="line"/>
      <point x="-8" y="19" type="line"/>
      <point x="69" y="27"/>
      <point x="86" y="37"/>
      <point x="106" y="109" type="curve" smooth="yes"/>
      <point x="224" y="533" type="line" smooth="yes"/>
      <point x="247" y="617"/>
      <point x="242" y="627"/>
      <point x="168" y="634" type="curve"/>
      <point x="167" y="653" type="line"/>
      <point x="448" y="653" type="line"/>
      <point x="448" y="634" type="line"/>
      <point x="368" y="631"/>
      <point x="349" y="617"/>
      <point x="329" y="544" type="curve" smooth="yes"/>
    </contour>
    <contour>
      <point x="198" y="71" type="line" smooth="yes"/>
      <point x="190" y="44"/>
      <point x="195" y="37"/>
      <point x="222" y="37" type="curve" smooth="yes"/>
      <point x="357" y="37"/>
      <point x="433" y="84"/>
      <point x="461" y="187" type="curve" smooth="yes"/>
      <point x="488" y="284"/>
      <point x="443" y="334"/>
      <point x="328" y="334" type="curve" smooth="yes"/>
      <point x="308" y="334"/>
      <point x="294" y="333"/>
      <point x="270" y="331" type="curve"/>
    </contour>
  </outline>
</glyph>
<glyph name="afii10046" format="1">
  <advance width="645"/>
  <unicode hex="042C"/>
  <outline>
    <contour>
      <point x="281" y="371" type="line"/>
      <point x="308" y="373"/>
      <point x="325" y="374"/>
      <point x="351" y="374" type="curve" smooth="yes"/>
      <point x="429" y="374"/>
      <point x="480" y="364"/>
      <point x="516" y="340" type="curve"/>
      <point x="568" y="308"/>
      <point x="587" y="247"/>
      <point x="568" y="181" type="curve"/>
      <point x="557" y="139"/>
      <point x="532" y="101"/>
      <point x="497" y="72" type="curve" smooth="yes"/>
      <point x="445" y="28"/>
      <point x="350" y="0"/>
      <point x="256" y="0" type="curve" smooth="yes"/>
      <point x="-8" y="0" type="line"/>
      <point x="-8" y="19" type="line"/>
      <point x="69" y="27"/>
      <point x="86" y="37"/>
      <point x="106" y="109" type="curve" smooth="yes"/>
      <point x="225" y="533" type="line" smooth="yes"/>
      <point x="248" y="617"/>
      <point x="243" y="627"/>
      <point x="169" y="634" type="curve"/>
      <point x="169" y="653" type="line"/>
      <point x="449" y="653" type="line"/>
      <point x="449" y="634" type="line"/>
      <point x="369" y="631"/>
      <point x="350" y="617"/>
      <point x="330" y="544" type="curve" smooth="yes"/>
    </contour>
    <contour>
      <point x="198" y="71" type="line" smooth="yes"/>
      <point x="190" y="44"/>
      <point x="195" y="37"/>
      <point x="222" y="37" type="curve" smooth="yes"/>
      <point x="357" y="37"/>
      <point x="433" y="84"/>
      <point x="461" y="187" type="curve" smooth="yes"/>
      <point x="488" y="284"/>
      <point x="443" y="334"/>
      <point x="328" y="334" type="curve" smooth="yes"/>
      <point x="308" y="334"/>
      <point x="294" y="333"/>
      <point x="270" y="331" type="curve"/>
    </contour>
  </outline>
</glyph>
<glyph name="afii10049" format="1">
  <advance width="746"/>
  <unicode hex="042F"/>
  <outline>
    <contour>
      <point x="-28" y="19" type="line"/>
      <point x="11" y="22"/>
      <point x="39" y="32"/>
      <point x="78" y="66" type="curve" smooth="yes"/>
      <point x="352" y="310" type="line"/>
      <point x="288" y="323"/>
      <point x="262" y="335"/>
      <point x="236" y="362" type="curve" smooth="yes"/>
      <point x="211" y="388"/>
      <point x="204" y="430"/>
      <point x="217" y="477" type="curve" smooth="yes"/>
      <point x="229" y="520"/>
      <point x="252" y="557"/>
      <point x="286" y="586" type="curve" smooth="yes"/>
      <point x="336" y="627"/>
      <point x="426" y="653"/>
      <point x="520" y="653" type="curve" smooth="yes"/>
      <point x="791" y="653" type="line"/>
      <point x="791" y="634" type="line"/>
      <point x="713" y="626"/>
      <point x="701" y="615"/>
      <point x="681" y="544" type="curve" smooth="yes"/>
      <point x="562" y="120" type="line" smooth="yes"/>
      <point x="539" y="37"/>
      <point x="541" y="25"/>
      <point x="614" y="19" type="curve"/>
      <point x="614" y="0" type="line"/>
      <point x="337" y="0" type="line"/>
      <point x="337" y="19" type="line"/>
      <point x="416" y="24"/>
      <point x="437" y="37"/>
      <point x="457" y="109" type="curve" smooth="yes"/>
      <point x="510" y="297" type="line"/>
      <point x="455" y="299" type="line"/>
      <point x="133" y="0" type="line"/>
      <point x="-28" y="0" type="line"/>
    </contour>
    <contour>
      <point x="589" y="580" type="line" smooth="yes"/>
      <point x="596" y="608"/>
      <point x="588" y="616"/>
      <point x="548" y="616" type="curve" smooth="yes"/>
      <point x="423" y="616"/>
      <point x="353" y="573"/>
      <point x="327" y="479" type="curve" smooth="yes"/>
      <point x="313" y="429"/>
      <point x="322" y="387"/>
      <point x="353" y="368" type="curve"/>
      <point x="392" y="342"/>
      <point x="425" y="336"/>
      <point x="520" y="334" type="curve"/>
    </contour>
  </outline>
</glyph>
<glyph name="afii10066" format="1">
  <advance width="500"/>
  <unicode hex="0431"/>
  <outline>
    <contour>
      <point x="259" y="640" type="curve" smooth="yes"/>
      <point x="301" y="672"/>
      <point x="368" y="672"/>
      <point x="389" y="672" type="curve" smooth="yes"/>
      <point x="486" y="672" type="line" smooth="yes"/>
      <point x="528" y="672"/>
      <point x="550" y="672"/>
      <point x="567" y="689" type="curve"/>
      <point x="590" y="689" type="line"/>
      <point x="554" y="640"/>
      <point x="527" y="598"/>
      <point x="421" y="598" type="curve" smooth="yes"/>
      <point x="345" y="598" type="line"/>
      <point x="288" y="597"/>
      <point x="268" y="585"/>
      <point x="224" y="555" type="curve" smooth="yes"/>
      <point x="156" y="508"/>
      <point x="119" y="382"/>
      <point x="97" y="330" type="curve"/>
      <point x="165" y="428"/>
      <point x="236" y="460"/>
      <point x="320" y="460" type="curve" smooth="yes"/>
      <point x="425" y="460"/>
      <point x="488" y="397"/>
      <point x="488" y="302" type="curve" smooth="yes"/>
      <point x="488" y="134"/>
      <point x="323" y="-10"/>
      <point x="188" y="-10" type="curve" smooth="yes"/>
      <point x="93" y="-10"/>
      <point x="30" y="40"/>
      <point x="30" y="154" type="curve" smooth="yes"/>
      <point x="30" y="350"/>
      <point x="142" y="551"/>
    </contour>
    <contour>
      <point x="300" y="432" type="curve" smooth="yes"/>
      <point x="192" y="432"/>
      <point x="120" y="294"/>
      <point x="120" y="154" type="curve" smooth="yes"/>
      <point x="120" y="82"/>
      <point x="140" y="18"/>
      <point x="208" y="18" type="curve" smooth="yes"/>
      <point x="312" y="18"/>
      <point x="394" y="166"/>
      <point x="394" y="304" type="curve" smooth="yes"/>
      <point x="394" y="382"/>
      <point x="360" y="432"/>
    </contour>
  </outline>
</glyph>
<glyph name="afii10067" format="1">
  <advance width="429"/>
  <unicode hex="0432"/>
  <outline>
    <contour>
      <point x="292" y="231" type="curve"/>
      <point x="336" y="227"/>
      <point x="391" y="188"/>
      <point x="391" y="132" type="curve" smooth="yes"/>
      <point x="391" y="41"/>
      <point x="282" y="-11"/>
      <point x="168" y="-11" type="curve" smooth="yes"/>
      <point x="48" y="-11"/>
      <point x="31" y="29"/>
      <point x="31" y="110" type="curve" smooth="yes"/>
      <point x="31" y="274"/>
      <point x="202" y="450"/>
      <point x="313" y="450" type="curve" smooth="yes"/>
      <point x="372" y="450"/>
      <point x="397" y="406"/>
      <point x="397" y="364" type="curve" smooth="yes"/>
      <point x="397" y="309"/>
      <point x="364" y="250"/>
    </contour>
    <contour>
      <point x="221" y="208" type="curve" smooth="yes"/>
      <point x="184" y="208"/>
      <point x="130" y="199"/>
      <point x="130" y="199" type="curve"/>
      <point x="123" y="168"/>
      <point x="76" y="28"/>
      <point x="179" y="28" type="curve" smooth="yes"/>
      <point x="251" y="28"/>
      <point x="320" y="92"/>
      <point x="320" y="138" type="curve" smooth="yes"/>
      <point x="320" y="186"/>
      <point x="281" y="208"/>
    </contour>
    <contour>
      <point x="152" y="253" type="curve" smooth="yes"/>
      <point x="141" y="227" type="line"/>
      <point x="225" y="239"/>
      <point x="253" y="234"/>
      <point x="290" y="269" type="curve" smooth="yes"/>
      <point x="321" y="299"/>
      <point x="346" y="350"/>
      <point x="346" y="381" type="curve" smooth="yes"/>
      <point x="346" y="404"/>
      <point x="329" y="427"/>
      <point x="308" y="427" type="curve" smooth="yes"/>
      <point x="257" y="427"/>
      <point x="189" y="341"/>
    </contour>
  </outline>
</glyph>
<glyph name="afii10069" format="1">
  <advance width="552"/>
  <unicode hex="0434"/>
  <outline>
    <contour>
      <point x="450" y="366" type="curve"/>
      <point x="450" y="366"/>
      <point x="477" y="455"/>
      <point x="477" y="516" type="curve" smooth="yes"/>
      <point x="477" y="579"/>
      <point x="439" y="610"/>
      <point x="386" y="610" type="curve" smooth="yes"/>
      <point x="320" y="610"/>
      <point x="283" y="596"/>
      <point x="233" y="548" type="curve"/>
      <point x="211" y="578" type="line"/>
      <point x="246" y="615"/>
      <point x="322" y="675"/>
      <point x="439" y="675" type="curve" smooth="yes"/>
      <point x="510" y="675"/>
      <point x="531" y="604"/>
      <point x="531" y="502" type="curve" smooth="yes"/>
      <point x="531" y="314"/>
      <point x="428" y="141"/>
      <point x="362" y="76" type="curve" smooth="yes"/>
      <point x="304" y="19"/>
      <point x="240" y="-11"/>
      <point x="174" y="-11" type="curve" smooth="yes"/>
      <point x="83" y="-11"/>
      <point x="27" y="43"/>
      <point x="27" y="129" type="curve" smooth="yes"/>
      <point x="27" y="286"/>
      <point x="175" y="441"/>
      <point x="325" y="441" type="curve" smooth="yes"/>
      <point x="379" y="441"/>
      <point x="440" y="422"/>
    </contour>
    <contour>
      <point x="313" y="420" type="curve" smooth="yes"/>
      <point x="270" y="420"/>
      <point x="228" y="390"/>
      <point x="189" y="334" type="curve" smooth="yes"/>
      <point x="140" y="263"/>
      <point x="111" y="175"/>
      <point x="111" y="101" type="curve" smooth="yes"/>
      <point x="111" y="46"/>
      <point x="142" y="10"/>
      <point x="189" y="10" type="curve" smooth="yes"/>
      <point x="232" y="10"/>
      <point x="270" y="35"/>
      <point x="307" y="88" type="curve" smooth="yes"/>
      <point x="351" y="153"/>
      <point x="384" y="253"/>
      <point x="384" y="326" type="curve" smooth="yes"/>
      <point x="384" y="383"/>
      <point x="356" y="420"/>
    </contour>
  </outline>
</glyph>
<glyph name="afii10072" format="1">
  <advance width="1058"/>
  <unicode hex="0436"/>
  <outline>
    <contour>
      <point x="664" y="238" type="line"/>
      <point x="708" y="350"/>
      <point x="818" y="441"/>
      <point x="934" y="441" type="curve" smooth="yes"/>
      <point x="994" y="441"/>
      <point x="1039" y="406"/>
      <point x="1039" y="360" type="curve" smooth="yes"/>
      <point x="1039" y="334"/>
      <point x="1018" y="314"/>
      <point x="991" y="314" type="curve" smooth="yes"/>
      <point x="967" y="314"/>
      <point x="952" y="328"/>
      <point x="952" y="352" type="curve" smooth="yes"/>
      <point x="952" y="361"/>
      <point x="954" y="368"/>
      <point x="961" y="381" type="curve" smooth="yes"/>
      <point x="965" y="390"/>
      <point x="967" y="395"/>
      <point x="967" y="400" type="curve" smooth="yes"/>
      <point x="967" y="412"/>
      <point x="952" y="420"/>
      <point x="929" y="420" type="curve" smooth="yes"/>
      <point x="890" y="420"/>
      <point x="850" y="402"/>
      <point x="821" y="372" type="curve" smooth="yes"/>
      <point x="765" y="313"/>
      <point x="730" y="224"/>
      <point x="730" y="139" type="curve" smooth="yes"/>
      <point x="730" y="68"/>
      <point x="764" y="25"/>
      <point x="821" y="25" type="curve" smooth="yes"/>
      <point x="870" y="25"/>
      <point x="909" y="47"/>
      <point x="964" y="106" type="curve"/>
      <point x="980" y="96" type="line"/>
      <point x="920" y="20"/>
      <point x="865" y="-11"/>
      <point x="791" y="-11" type="curve" smooth="yes"/>
      <point x="698" y="-11"/>
      <point x="644" y="44"/>
      <point x="644" y="139" type="curve" smooth="yes"/>
      <point x="644" y="159"/>
      <point x="647" y="179"/>
      <point x="651" y="198" type="curve"/>
      <point x="560" y="198" type="line"/>
      <point x="505" y="0" type="line"/>
      <point x="430" y="0" type="line"/>
      <point x="484" y="198" type="line"/>
      <point x="391" y="198" type="line"/>
      <point x="350" y="82"/>
      <point x="237" y="-11"/>
      <point x="118" y="-11" type="curve" smooth="yes"/>
      <point x="58" y="-11"/>
      <point x="13" y="24"/>
      <point x="13" y="70" type="curve" smooth="yes"/>
      <point x="13" y="96"/>
      <point x="34" y="116"/>
      <point x="61" y="116" type="curve" smooth="yes"/>
      <point x="85" y="116"/>
      <point x="100" y="102"/>
      <point x="100" y="78" type="curve" smooth="yes"/>
      <point x="100" y="69"/>
      <point x="98" y="62"/>
      <point x="91" y="49" type="curve" smooth="yes"/>
      <point x="87" y="40"/>
      <point x="85" y="35"/>
      <point x="85" y="30" type="curve" smooth="yes"/>
      <point x="85" y="18"/>
      <point x="100" y="10"/>
      <point x="123" y="10" type="curve" smooth="yes"/>
      <point x="162" y="10"/>
      <point x="202" y="28"/>
      <point x="231" y="58" type="curve" smooth="yes"/>
      <point x="287" y="117"/>
      <point x="322" y="206"/>
      <point x="322" y="291" type="curve" smooth="yes"/>
      <point x="322" y="362"/>
      <point x="288" y="405"/>
      <point x="231" y="405" type="curve" smooth="yes"/>
      <point x="182" y="405"/>
      <point x="143" y="383"/>
      <point x="88" y="324" type="curve"/>
      <point x="72" y="334" type="line"/>
      <point x="132" y="410"/>
      <point x="187" y="441"/>
      <point x="261" y="441" type="curve" smooth="yes"/>
      <point x="354" y="441"/>
      <point x="408" y="386"/>
      <point x="408" y="291" type="curve" smooth="yes"/>
      <point x="408" y="273"/>
      <point x="405" y="255"/>
      <point x="401" y="238" type="curve"/>
      <point x="495" y="238" type="line"/>
      <point x="546" y="432" type="line"/>
      <point x="620" y="432" type="line"/>
      <point x="570" y="238" type="line"/>
    </contour>
  </outline>
</glyph>
<glyph name="afii10077" format="1">
  <advance width="538"/>
  <unicode hex="043B"/>
  <outline>
    <contour>
      <point x="218" y="260" type="line" smooth="yes"/>
      <point x="246" y="361"/>
      <point x="326" y="432"/>
      <point x="426" y="432" type="curve" smooth="yes"/>
      <point x="500" y="432" type="line"/>
      <point x="415" y="117" type="line"/>
      <point x="401" y="61"/>
      <point x="401" y="61"/>
      <point x="401" y="54" type="curve" smooth="yes"/>
      <point x="401" y="46"/>
      <point x="409" y="38"/>
      <point x="417" y="38" type="curve" smooth="yes"/>
      <point x="431" y="38"/>
      <point x="448" y="54"/>
      <point x="478" y="91" type="curve" smooth="yes"/>
      <point x="499" y="117" type="line"/>
      <point x="513" y="104" type="line"/>
      <point x="444" y="12"/>
      <point x="418" y="-9"/>
      <point x="373" y="-9" type="curve" smooth="yes"/>
      <point x="340" y="-9"/>
      <point x="326" y="7"/>
      <point x="326" y="45" type="curve" smooth="yes"/>
      <point x="326" y="55"/>
      <point x="329" y="69"/>
      <point x="342" y="120" type="curve" smooth="yes"/>
      <point x="415" y="391" type="line"/>
      <point x="390" y="392"/>
      <point x="294" y="376"/>
      <point x="245" y="206" type="curve" smooth="yes"/>
      <point x="202" y="57"/>
      <point x="143" y="-9"/>
      <point x="63" y="-9" type="curve" smooth="yes"/>
      <point x="44" y="-9"/>
      <point x="5" y="-7"/>
      <point x="5" y="23" type="curve" smooth="yes"/>
      <point x="5" y="44"/>
      <point x="22" y="75"/>
      <point x="50" y="75" type="curve" smooth="yes"/>
      <point x="76" y="75"/>
      <point x="85" y="50"/>
      <point x="102" y="50" type="curve" smooth="yes"/>
      <point x="144" y="50"/>
      <point x="176" y="136"/>
      <point x="203" y="207" type="curve"/>
    </contour>
  </outline>
</glyph>
<glyph name="afii10084" format="1">
  <advance width="722"/>
  <unicode hex="0442"/>
  <outline>
    <contour>
      <point x="689" y="117" type="curve"/>
      <point x="704" y="105" type="line"/>
      <point x="699" y="98" type="line" smooth="yes"/>
      <point x="646" y="24"/>
      <point x="602" y="-9"/>
      <point x="555" y="-9" type="curve" smooth="yes"/>
      <point x="529" y="-9"/>
      <point x="515" y="7"/>
      <point x="515" y="37" type="curve" smooth="yes"/>
      <point x="515" y="47"/>
      <point x="519" y="66"/>
      <point x="528" y="103" type="curve" smooth="yes"/>
      <point x="586" y="333" type="line" smooth="yes"/>
      <point x="591" y="351"/>
      <point x="593" y="363"/>
      <point x="593" y="368" type="curve" smooth="yes"/>
      <point x="593" y="379"/>
      <point x="584" y="389"/>
      <point x="573" y="389" type="curve" smooth="yes"/>
      <point x="544" y="389"/>
      <point x="494" y="345"/>
      <point x="445" y="277" type="curve" smooth="yes"/>
      <point x="394" y="206"/>
      <point x="374" y="156"/>
      <point x="334" y="0" type="curve"/>
      <point x="259" y="0" type="line"/>
      <point x="322" y="234"/>
      <point x="354" y="355"/>
      <point x="354" y="364" type="curve" smooth="yes"/>
      <point x="354" y="380"/>
      <point x="347" y="389"/>
      <point x="334" y="389" type="curve" smooth="yes"/>
      <point x="300" y="389"/>
      <point x="240" y="333"/>
      <point x="184" y="248" type="curve" smooth="yes"/>
      <point x="150" y="196"/>
      <point x="135" y="159"/>
      <point x="87" y="0" type="curve"/>
      <point x="12" y="0" type="line"/>
      <point x="25" y="51"/>
      <point x="28" y="61"/>
      <point x="51" y="143" type="curve" smooth="yes"/>
      <point x="87" y="270"/>
      <point x="110" y="361"/>
      <point x="110" y="372" type="curve" smooth="yes"/>
      <point x="110" y="387"/>
      <point x="97" y="394"/>
      <point x="71" y="394" type="curve" smooth="yes"/>
      <point x="46" y="394" type="line"/>
      <point x="46" y="410" type="line"/>
      <point x="129" y="425"/>
      <point x="150" y="429"/>
      <point x="206" y="441" type="curve"/>
      <point x="209" y="439" type="line"/>
      <point x="151" y="230" type="line"/>
      <point x="243" y="375"/>
      <point x="313" y="441"/>
      <point x="374" y="441" type="curve" smooth="yes"/>
      <point x="408" y="441"/>
      <point x="431" y="416"/>
      <point x="431" y="381" type="curve" smooth="yes"/>
      <point x="431" y="362"/>
      <point x="416" y="305"/>
      <point x="391" y="229" type="curve"/>
      <point x="460" y="339"/>
      <point x="501" y="387"/>
      <point x="550" y="419" type="curve" smooth="yes"/>
      <point x="574" y="434"/>
      <point x="594" y="441"/>
      <point x="613" y="441" type="curve" smooth="yes"/>
      <point x="647" y="441"/>
      <point x="672" y="414"/>
      <point x="672" y="378" type="curve" smooth="yes"/>
      <point x="672" y="372"/>
      <point x="670" y="354"/>
      <point x="669" y="350" type="curve" smooth="yes"/>
      <point x="601" y="99" type="line" smooth="yes"/>
      <point x="595" y="75"/>
      <point x="591" y="59"/>
      <point x="591" y="54" type="curve" smooth="yes"/>
      <point x="591" y="44"/>
      <point x="596" y="38"/>
      <point x="604" y="38" type="curve" smooth="yes"/>
      <point x="619" y="38"/>
      <point x="640" y="55"/>
      <point x="668" y="91" type="curve" smooth="yes"/>
      <point x="671" y="95"/>
      <point x="679" y="105"/>
    </contour>
  </outline>
</glyph>
<glyph name="afii10093" format="1">
  <advance width="684"/>
  <unicode hex="044B"/>
  <outline>
    <contour>
      <point x="646" y="114" type="curve"/>
      <point x="659" y="103" type="line"/>
      <point x="602" y="19"/>
      <point x="565" y="-11"/>
      <point x="519" y="-11" type="curve" smooth="yes"/>
      <point x="489" y="-11"/>
      <point x="473" y="9"/>
      <point x="473" y="46" type="curve" smooth="yes"/>
      <point x="473" y="66"/>
      <point x="479" y="97"/>
      <point x="495" y="155" type="curve" smooth="yes"/>
      <point x="543" y="332" type="line" smooth="yes"/>
      <point x="549" y="352"/>
      <point x="552" y="368"/>
      <point x="552" y="376" type="curve" smooth="yes"/>
      <point x="552" y="396"/>
      <point x="542" y="399"/>
      <point x="489" y="400" type="curve"/>
      <point x="489" y="416" type="line"/>
      <point x="528" y="419"/>
      <point x="548" y="422"/>
      <point x="649" y="441" type="curve"/>
      <point x="652" y="439" type="line"/>
      <point x="564" y="117" type="line"/>
      <point x="563" y="115" type="line"/>
      <point x="563" y="113" type="line"/>
      <point x="561" y="105"/>
      <point x="558" y="98"/>
      <point x="558" y="95" type="curve"/>
      <point x="551" y="76"/>
      <point x="548" y="61"/>
      <point x="548" y="51" type="curve" smooth="yes"/>
      <point x="548" y="44"/>
      <point x="556" y="36"/>
      <point x="564" y="36" type="curve" smooth="yes"/>
      <point x="573" y="36"/>
      <point x="588" y="46"/>
      <point x="605" y="63" type="curve" smooth="yes"/>
      <point x="615" y="74"/>
      <point x="622" y="82"/>
    </contour>
    <contour>
      <point x="56" y="176" type="curve"/>
      <point x="104" y="350" type="line" smooth="yes"/>
      <point x="105" y="355"/>
      <point x="106" y="361"/>
      <point x="106" y="367" type="curve" smooth="yes"/>
      <point x="106" y="387"/>
      <point x="93" y="393"/>
      <point x="42" y="394" type="curve"/>
      <point x="42" y="410" type="line"/>
      <point x="129" y="426"/>
      <point x="150" y="430"/>
      <point x="204" y="441" type="curve"/>
      <point x="207" y="439" type="line"/>
      <point x="147" y="227" type="line"/>
      <point x="164" y="242"/>
      <point x="202" y="272"/>
      <point x="246" y="272" type="curve" smooth="yes"/>
      <point x="325" y="272"/>
      <point x="408" y="216"/>
      <point x="402" y="132" type="curve"/>
      <point x="393" y="26"/>
      <point x="285" y="-12"/>
      <point x="179" y="-11" type="curve" smooth="yes"/>
      <point x="53" y="-10"/>
      <point x="32" y="77"/>
    </contour>
    <contour>
      <point x="235" y="231" type="curve" smooth="yes"/>
      <point x="191" y="231"/>
      <point x="137" y="182"/>
      <point x="137" y="182" type="curve"/>
      <point x="130" y="151"/>
      <point x="87" y="28"/>
      <point x="190" y="28" type="curve" smooth="yes"/>
      <point x="261" y="28"/>
      <point x="331" y="92"/>
      <point x="331" y="138" type="curve" smooth="yes"/>
      <point x="331" y="191"/>
      <point x="295" y="231"/>
    </contour>
  </outline>
</glyph>
<glyph name="afii10095" format="1">
  <advance width="457"/>
  <unicode hex="044D"/>
  <outline>
    <contour>
      <point x="330" y="216" type="curve"/>
      <point x="156" y="216" type="line"/>
      <point x="166" y="253" type="line"/>
      <point x="337" y="253" type="line"/>
      <point x="338" y="266"/>
      <point x="339" y="278"/>
      <point x="339" y="291" type="curve" smooth="yes"/>
      <point x="339" y="362"/>
      <point x="305" y="405"/>
      <point x="248" y="405" type="curve" smooth="yes"/>
      <point x="199" y="405"/>
      <point x="160" y="383"/>
      <point x="105" y="324" type="curve"/>
      <point x="89" y="334" type="line"/>
      <point x="149" y="410"/>
      <point x="204" y="441"/>
      <point x="278" y="441" type="curve" smooth="yes"/>
      <point x="371" y="441"/>
      <point x="425" y="386"/>
      <point x="425" y="291" type="curve" smooth="yes"/>
      <point x="425" y="135"/>
      <point x="285" y="-11"/>
      <point x="135" y="-11" type="curve" smooth="yes"/>
      <point x="75" y="-11"/>
      <point x="30" y="24"/>
      <point x="30" y="70" type="curve" smooth="yes"/>
      <point x="30" y="96"/>
      <point x="51" y="116"/>
      <point x="78" y="116" type="curve" smooth="yes"/>
      <point x="102" y="116"/>
      <point x="117" y="102"/>
      <point x="117" y="78" type="curve" smooth="yes"/>
      <point x="117" y="69"/>
      <point x="115" y="62"/>
      <point x="108" y="49" type="curve" smooth="yes"/>
      <point x="104" y="40"/>
      <point x="102" y="35"/>
      <point x="102" y="30" type="curve" smooth="yes"/>
      <point x="102" y="18"/>
      <point x="117" y="10"/>
      <point x="140" y="10" type="curve" smooth="yes"/>
      <point x="179" y="10"/>
      <point x="219" y="28"/>
      <point x="248" y="58" type="curve" smooth="yes"/>
      <point x="288" y="100"/>
      <point x="317" y="156"/>
    </contour>
  </outline>
</glyph>
<glyph name="afii10097" format="1">
  <advance width="560"/>
  <unicode hex="044F"/>
  <outline>
    <contour>
      <point x="213" y="199" type="curve"/>
      <point x="157" y="199"/>
      <point x="113" y="215"/>
      <point x="92" y="240" type="curve" smooth="yes"/>
      <point x="79" y="255"/>
      <point x="73" y="267"/>
      <point x="73" y="283" type="curve" smooth="yes"/>
      <point x="73" y="330"/>
      <point x="110" y="371"/>
      <point x="157" y="395" type="curve" smooth="yes"/>
      <point x="201" y="418"/>
      <point x="266" y="432"/>
      <point x="344" y="432" type="curve" smooth="yes"/>
      <point x="425" y="432" type="line"/>
      <point x="499" y="432" type="line"/>
      <point x="414" y="117" type="line"/>
      <point x="400" y="61"/>
      <point x="400" y="61"/>
      <point x="400" y="54" type="curve" smooth="yes"/>
      <point x="400" y="46"/>
      <point x="408" y="38"/>
      <point x="416" y="38" type="curve" smooth="yes"/>
      <point x="430" y="38"/>
      <point x="447" y="54"/>
      <point x="477" y="91" type="curve" smooth="yes"/>
      <point x="498" y="117" type="line"/>
      <point x="512" y="104" type="line"/>
      <point x="443" y="12"/>
      <point x="417" y="-9"/>
      <point x="372" y="-9" type="curve" smooth="yes"/>
      <point x="339" y="-9"/>
      <point x="325" y="7"/>
      <point x="325" y="45" type="curve" smooth="yes"/>
      <point x="325" y="55"/>
      <point x="328" y="69"/>
      <point x="341" y="120" type="curve"/>
      <point x="364" y="198" type="line"/>
      <point x="294" y="198" type="line"/>
      <point x="269" y="197"/>
      <point x="252" y="173"/>
      <point x="248" y="162" type="curve" smooth="yes"/>
      <point x="207" y="46"/>
      <point x="148" y="-9"/>
      <point x="75" y="-9" type="curve" smooth="yes"/>
      <point x="56" y="-9"/>
      <point x="17" y="-7"/>
      <point x="17" y="23" type="curve" smooth="yes"/>
      <point x="17" y="54"/>
      <point x="34" y="75"/>
      <point x="62" y="75" type="curve" smooth="yes"/>
      <point x="88" y="75"/>
      <point x="97" y="50"/>
      <point x="114" y="50" type="curve" smooth="yes"/>
      <point x="156" y="50"/>
      <point x="186" y="128"/>
    </contour>
    <contour>
      <point x="372" y="232" type="curve"/>
      <point x="406" y="355" type="line" smooth="yes"/>
      <point x="412" y="377"/>
      <point x="419" y="396"/>
      <point x="370" y="396" type="curve" smooth="yes"/>
      <point x="304" y="396"/>
      <point x="299" y="391"/>
      <point x="263" y="378" type="curve" smooth="yes"/>
      <point x="226" y="365"/>
      <point x="182" y="336"/>
      <point x="182" y="295" type="curve" smooth="yes"/>
      <point x="182" y="268"/>
      <point x="206" y="252"/>
      <point x="243" y="240" type="curve" smooth="yes"/>
      <point x="266" y="233"/>
      <point x="290" y="232"/>
    </contour>
  </outline>
</glyph>
<glyph name="afii10099" format="1">
  <advance width="500"/>
  <unicode hex="0452"/>
  <outline>
    <contour>
      <point x="171" y="299" type="curve"/>
      <point x="94" y="0" type="line"/>
      <point x="19" y="0" type="line"/>
      <point x="147" y="486" type="line"/>
      <point x="64" y="486" type="line"/>
      <point x="75" y="537" type="line"/>
      <point x="161" y="537" type="line"/>
      <point x="162" y="544"/>
      <point x="163" y="548"/>
      <point x="164" y="549" type="curve" smooth="yes"/>
      <point x="173" y="578"/>
      <point x="178" y="603"/>
      <point x="178" y="617" type="curve" smooth="yes"/>
      <point x="178" y="631"/>
      <point x="154" y="648"/>
      <point x="140" y="642" type="curve" smooth="yes"/>
      <point x="139" y="641"/>
      <point x="138" y="641"/>
      <point x="137" y="641" type="curve" smooth="yes"/>
      <point x="111" y="641" type="line"/>
      <point x="111" y="656" type="line"/>
      <point x="171" y="663"/>
      <point x="210" y="670"/>
      <point x="268" y="683" type="curve"/>
      <point x="273" y="678" type="line"/>
      <point x="235" y="537" type="line"/>
      <point x="376" y="537" type="line"/>
      <point x="365" y="486" type="line"/>
      <point x="222" y="486" type="line"/>
      <point x="180" y="331" type="line"/>
      <point x="224" y="363"/>
      <point x="259" y="379"/>
      <point x="297" y="379" type="curve" smooth="yes"/>
      <point x="376" y="379"/>
      <point x="427" y="330"/>
      <point x="427" y="253" type="curve" smooth="yes"/>
      <point x="427" y="235"/>
      <point x="424" y="216"/>
      <point x="419" y="196" type="curve" smooth="yes"/>
      <point x="356" y="-30" type="line" smooth="yes"/>
      <point x="324" y="-144"/>
      <point x="266" y="-203"/>
      <point x="186" y="-203" type="curve" smooth="yes"/>
      <point x="124" y="-203"/>
      <point x="58" y="-168"/>
      <point x="58" y="-127" type="curve" smooth="yes"/>
      <point x="58" y="-104"/>
      <point x="77" y="-89"/>
      <point x="97" y="-89" type="curve" smooth="yes"/>
      <point x="120" y="-89"/>
      <point x="134" y="-104"/>
      <point x="147" y="-134" type="curve" smooth="yes"/>
      <point x="158" y="-160"/>
      <point x="168" y="-174"/>
      <point x="190" y="-174" type="curve" smooth="yes"/>
      <point x="232" y="-174"/>
      <point x="241" y="-132"/>
      <point x="263" y="-51" type="curve" smooth="yes"/>
      <point x="337" y="217" type="line" smooth="yes"/>
      <point x="342" y="233"/>
      <point x="344" y="247"/>
      <point x="344" y="260" type="curve" smooth="yes"/>
      <point x="344" y="309"/>
      <point x="312" y="334"/>
      <point x="264" y="334" type="curve" smooth="yes"/>
      <point x="237" y="334"/>
      <point x="210" y="323"/>
    </contour>
  </outline>
</glyph>
<glyph name="afii10100" format="1">
  <advance width="454"/>
  <unicode hex="0453"/>
  <outline>
    <contour>
      <point x="267" y="491" type="line"/>
      <point x="429" y="651" type="line" smooth="yes"/>
      <point x="436" y="657"/>
      <point x="444" y="661"/>
      <point x="454" y="661" type="curve" smooth="yes"/>
      <point x="474" y="661"/>
      <point x="490" y="645"/>
      <point x="490" y="625" type="curve" smooth="yes"/>
      <point x="490" y="613"/>
      <point x="485" y="604"/>
      <point x="473" y="597" type="curve" smooth="yes"/>
      <point x="302" y="491" type="line"/>
    </contour>
    <contour>
      <point x="143" y="450" type="line"/>
      <point x="476" y="450" type="line"/>
      <point x="446" y="325" type="line"/>
      <point x="428" y="325" type="line"/>
      <point x="439" y="398"/>
      <point x="428" y="413"/>
      <point x="368" y="413" type="curve" smooth="yes"/>
      <point x="278" y="413" type="line"/>
      <point x="186" y="81" type="line" smooth="yes"/>
      <point x="172" y="32"/>
      <point x="181" y="20"/>
      <point x="229" y="15" type="curve"/>
      <point x="225" y="0" type="line"/>
      <point x="17" y="0" type="line"/>
      <point x="21" y="15" type="line"/>
      <point x="72" y="19"/>
      <point x="89" y="35"/>
      <point x="102" y="81" type="curve" smooth="yes"/>
      <point x="182" y="369" type="line" smooth="yes"/>
      <point x="196" y="418"/>
      <point x="187" y="430"/>
      <point x="139" y="435" type="curve"/>
    </contour>
  </outline>
</glyph>
<glyph name="afii10101" format="1">
  <advance width="444"/>
  <unicode hex="0454"/>
  <outline>
    <contour>
      <point x="277" y="216" type="line"/>
      <point x="102" y="216" type="line"/>
      <point x="89" y="123"/>
      <point x="132" y="62"/>
      <point x="212" y="62" type="curve" smooth="yes"/>
      <point x="269" y="62"/>
      <point x="311" y="86"/>
      <point x="379" y="156" type="curve"/>
      <point x="390" y="147" type="line"/>
      <point x="344" y="88"/>
      <point x="318" y="61"/>
      <point x="284" y="37" type="curve" smooth="yes"/>
      <point x="239" y="6"/>
      <point x="195" y="-10"/>
      <point x="150" y="-10" type="curve" smooth="yes"/>
      <point x="39" y="-10"/>
      <point x="-14" y="83"/>
      <point x="22" y="213" type="curve" smooth="yes"/>
      <point x="44" y="292"/>
      <point x="90" y="360"/>
      <point x="153" y="404" type="curve" smooth="yes"/>
      <point x="204" y="440"/>
      <point x="260" y="460"/>
      <point x="309" y="460" type="curve" smooth="yes"/>
      <point x="393" y="460"/>
      <point x="450" y="413"/>
      <point x="435" y="357" type="curve" smooth="yes"/>
      <point x="428" y="334"/>
      <point x="401" y="315"/>
      <point x="375" y="315" type="curve" smooth="yes"/>
      <point x="354" y="315"/>
      <point x="341" y="333"/>
      <point x="341" y="361" type="curve" smooth="yes"/>
      <point x="341" y="383" type="line" smooth="yes"/>
      <point x="341" y="420"/>
      <point x="331" y="431"/>
      <point x="295" y="431" type="curve" smooth="yes"/>
      <point x="213" y="431"/>
      <point x="138" y="358"/>
      <point x="110" y="253" type="curve"/>
      <point x="287" y="253" type="line"/>
    </contour>
  </outline>
</glyph>
